<svg width="14" height="12" viewBox="0 0 14 12" fill="none" xmlns="http://www.w3.org/2000/svg">
<path d="M0.999919 6.00008H4.99992C5.17673 6.00008 5.3463 5.92984 5.47132 5.80482C5.59635 5.67979 5.66659 5.51023 5.66659 5.33341V1.33341C5.66659 1.1566 5.59635 0.987035 5.47132 0.86201C5.3463 0.736986 5.17673 0.666748 4.99992 0.666748H0.999919C0.823108 0.666748 0.653538 0.736986 0.528514 0.86201C0.40349 0.987035 0.333252 1.1566 0.333252 1.33341V5.33341C0.333252 5.51023 0.40349 5.67979 0.528514 5.80482C0.653538 5.92984 0.823108 6.00008 0.999919 6.00008ZM1.66659 2.00008H4.33325V4.66675H1.66659V2.00008ZM7.66659 3.33341H12.9999C13.1767 3.33341 13.3463 3.26318 13.4713 3.13815C13.5963 3.01313 13.6666 2.84356 13.6666 2.66675C13.6666 2.48994 13.5963 2.32037 13.4713 2.19534C13.3463 2.07032 13.1767 2.00008 12.9999 2.00008H7.66659C7.48977 2.00008 7.32021 2.07032 7.19518 2.19534C7.07016 2.32037 6.99992 2.48994 6.99992 2.66675C6.99992 2.84356 7.07016 3.01313 7.19518 3.13815C7.32021 3.26318 7.48977 3.33341 7.66659 3.33341V3.33341ZM7.66659 10.0001H0.999919C0.823108 10.0001 0.653538 10.0703 0.528514 10.1953C0.40349 10.3204 0.333252 10.4899 0.333252 10.6667C0.333252 10.8436 0.40349 11.0131 0.528514 11.1382C0.653538 11.2632 0.823108 11.3334 0.999919 11.3334H7.66659C7.8434 11.3334 8.01297 11.2632 8.13799 11.1382C8.26301 11.0131 8.33325 10.8436 8.33325 10.6667C8.33325 10.4899 8.26301 10.3204 8.13799 10.1953C8.01297 10.0703 7.8434 10.0001 7.66659 10.0001ZM12.9999 7.33341H0.999919C0.823108 7.33341 0.653538 7.40365 0.528514 7.52868C0.40349 7.6537 0.333252 7.82327 0.333252 8.00008C0.333252 8.17689 0.40349 8.34646 0.528514 8.47149C0.653538 8.59651 0.823108 8.66675 0.999919 8.66675H12.9999C13.1767 8.66675 13.3463 8.59651 13.4713 8.47149C13.5963 8.34646 13.6666 8.17689 13.6666 8.00008C13.6666 7.82327 13.5963 7.6537 13.4713 7.52868C13.3463 7.40365 13.1767 7.33341 12.9999 7.33341ZM12.9999 4.66675H7.66659C7.48977 4.66675 7.32021 4.73699 7.19518 4.86201C7.07016 4.98703 6.99992 5.1566 6.99992 5.33341C6.99992 5.51023 7.07016 5.67979 7.19518 5.80482C7.32021 5.92984 7.48977 6.00008 7.66659 6.00008H12.9999C13.1767 6.00008 13.3463 5.92984 13.4713 5.80482C13.5963 5.67979 13.6666 5.51023 13.6666 5.33341C13.6666 5.1566 13.5963 4.98703 13.4713 4.86201C13.3463 4.73699 13.1767 4.66675 12.9999 4.66675Z" fill="#212121"/>
</svg>
