<svg width="14" height="14" viewBox="0 0 14 14" fill="none" xmlns="http://www.w3.org/2000/svg">
<path d="M11.6667 3.40434H9.66668V2.73767C9.66668 2.20724 9.45596 1.69853 9.08089 1.32346C8.70582 0.948385 8.19711 0.737671 7.66668 0.737671H6.33334C5.80291 0.737671 5.2942 0.948385 4.91913 1.32346C4.54406 1.69853 4.33334 2.20724 4.33334 2.73767V3.40434H2.33334C1.80291 3.40434 1.2942 3.61505 0.91913 3.99012C0.544057 4.3652 0.333344 4.8739 0.333344 5.40434V11.4043C0.333344 11.9348 0.544057 12.4435 0.91913 12.8186C1.2942 13.1936 1.80291 13.4043 2.33334 13.4043H11.6667C12.1971 13.4043 12.7058 13.1936 13.0809 12.8186C13.456 12.4435 13.6667 11.9348 13.6667 11.4043V5.40434C13.6667 4.8739 13.456 4.3652 13.0809 3.99012C12.7058 3.61505 12.1971 3.40434 11.6667 3.40434ZM5.66668 2.73767C5.66668 2.56086 5.73692 2.39129 5.86194 2.26627C5.98696 2.14124 6.15653 2.071 6.33334 2.071H7.66668C7.84349 2.071 8.01306 2.14124 8.13808 2.26627C8.26311 2.39129 8.33334 2.56086 8.33334 2.73767V3.40434H5.66668V2.73767ZM12.3333 11.4043C12.3333 11.5811 12.2631 11.7507 12.1381 11.8757C12.0131 12.0008 11.8435 12.071 11.6667 12.071H2.33334C2.15653 12.071 1.98696 12.0008 1.86194 11.8757C1.73691 11.7507 1.66668 11.5811 1.66668 11.4043V7.73767C3.36418 8.4111 5.1738 8.75719 7.00001 8.75767C8.82616 8.75655 10.6357 8.41048 12.3333 7.73767V11.4043ZM12.3333 6.27767C10.6523 7.01619 8.83615 7.39752 7.00001 7.39752C5.16387 7.39752 3.34775 7.01619 1.66668 6.27767V5.40434C1.66668 5.22753 1.73691 5.05796 1.86194 4.93293C1.98696 4.80791 2.15653 4.73767 2.33334 4.73767H11.6667C11.8435 4.73767 12.0131 4.80791 12.1381 4.93293C12.2631 5.05796 12.3333 5.22753 12.3333 5.40434V6.27767Z" fill="black"/>
</svg>
