
<svg width="24" height="24" viewBox="0 0 24 24" fill="none" xmlns="http://www.w3.org/2000/svg">
<path d="M21.8576 3.2175H17.3576V1.50321C17.3576 1.38535 17.2611 1.28893 17.1433 1.28893H15.6433C15.5254 1.28893 15.429 1.38535 15.429 1.50321V3.2175H8.57185V1.50321C8.57185 1.38535 8.47542 1.28893 8.35756 1.28893H6.85756C6.7397 1.28893 6.64328 1.38535 6.64328 1.50321V3.2175H2.14328C1.66917 3.2175 1.28613 3.60053 1.28613 4.07464V21.8604C1.28613 22.3345 1.66917 22.7175 2.14328 22.7175H21.8576C22.3317 22.7175 22.7147 22.3345 22.7147 21.8604V4.07464C22.7147 3.60053 22.3317 3.2175 21.8576 3.2175ZM20.7861 20.7889H3.2147V10.6104H20.7861V20.7889ZM3.2147 8.78893V5.14607H6.64328V6.43178C6.64328 6.54964 6.7397 6.64607 6.85756 6.64607H8.35756C8.47542 6.64607 8.57185 6.54964 8.57185 6.43178V5.14607H15.429V6.43178C15.429 6.54964 15.5254 6.64607 15.6433 6.64607H17.1433C17.2611 6.64607 17.3576 6.54964 17.3576 6.43178V5.14607H20.7861V8.78893H3.2147Z" fill="white"/>
</svg>
