<svg width="16" height="16" viewBox="0 0 16 16" fill="none" xmlns="http://www.w3.org/2000/svg">
<path d="M9.15591 7.99898L15.0153 1.01461C15.1135 0.898538 15.0309 0.722198 14.8791 0.722198H13.0979C12.993 0.722198 12.8925 0.769073 12.8233 0.849431L7.99073 6.61059L3.15814 0.849431C3.09117 0.769073 2.99073 0.722198 2.88358 0.722198H1.10233C0.950549 0.722198 0.867959 0.898538 0.966173 1.01461L6.82555 7.99898L0.966173 14.9834C0.944173 15.0092 0.930058 15.0409 0.925505 15.0745C0.920953 15.1082 0.926153 15.1424 0.940489 15.1732C0.954825 15.204 0.977695 15.23 1.00638 15.2482C1.03507 15.2664 1.06837 15.276 1.10233 15.2758H2.88358C2.9885 15.2758 3.08894 15.2289 3.15814 15.1485L7.99073 9.38738L12.8233 15.1485C12.8903 15.2289 12.9907 15.2758 13.0979 15.2758H14.8791C15.0309 15.2758 15.1135 15.0994 15.0153 14.9834L9.15591 7.99898Z" fill="#424242"/>
</svg>
