<svg width="17" height="16" viewBox="0 0 17 16" fill="none" xmlns="http://www.w3.org/2000/svg">
<g clip-path="url(#clip0_8285_8468)">
<path fill-rule="evenodd" clip-rule="evenodd" d="M8.40407 1.1434C8.39966 1.15487 8.39384 1.17675 8.39384 1.21202V1.45444C8.39384 2.52671 7.76302 3.31802 6.83983 3.62575L6.76285 3.65141H6.73919C6.7347 3.65363 6.72958 3.65619 6.7235 3.65923C6.72196 3.66 6.72031 3.66083 6.71857 3.6617C6.69139 3.67533 6.64022 3.70097 6.58455 3.72185C6.54286 3.73748 6.48662 3.75531 6.41966 3.76513C5.57499 4.02654 4.54328 3.9019 3.90392 3.26254L3.78271 3.14133C3.75227 3.11089 3.72675 3.10596 3.71202 3.10596C3.69728 3.10596 3.67176 3.11089 3.64133 3.14133C3.61089 3.17176 3.60596 3.19728 3.60596 3.21202C3.60596 3.22675 3.61089 3.25227 3.64133 3.28271C4.00415 3.64553 4.24466 4.06869 4.32584 4.53544C4.40248 4.97616 4.33081 5.42013 4.13607 5.84253C4.12608 5.8903 4.1127 5.93115 4.10064 5.96334C4.07976 6.019 4.05412 6.07016 4.0405 6.09734C4.03962 6.09909 4.03879 6.10074 4.03802 6.10229C4.03498 6.10836 4.03242 6.11349 4.0302 6.11798V6.14164L4.00454 6.21862C3.69051 7.16071 2.76427 7.77262 1.83323 7.77262H1.71202C1.67675 7.77262 1.65487 7.77844 1.6434 7.78286C1.63238 7.7871 1.62791 7.79111 1.62618 7.79284C1.62444 7.79458 1.62043 7.79904 1.61619 7.81007C1.61178 7.82154 1.60596 7.84342 1.60596 7.87868C1.60596 7.91395 1.61178 7.93583 1.61619 7.9473C1.62043 7.95832 1.62444 7.96279 1.62618 7.96452C1.62791 7.96626 1.63238 7.97027 1.6434 7.97451C1.65487 7.97892 1.67675 7.98474 1.71202 7.98474H1.95444C2.92617 7.98474 3.70379 8.63649 4.00454 9.53875L4.0302 9.61573V9.69687C4.0302 9.72889 4.03491 9.75107 4.06515 9.84178C4.0662 9.84494 4.06728 9.84818 4.06839 9.8515C4.09151 9.92063 4.12643 10.0251 4.14261 10.1582C4.54936 10.9532 4.37591 11.9825 3.76254 12.5959L3.64133 12.7171C3.61089 12.7475 3.60596 12.773 3.60596 12.7878C3.60596 12.8025 3.61089 12.828 3.64133 12.8585C3.6499 12.867 3.65808 12.8736 3.66574 12.8786L3.74583 12.7785C4.39012 11.9731 5.51653 11.8086 6.3329 12.2984L6.38568 12.3301L6.42921 12.3736C6.43194 12.3763 6.4439 12.3872 6.46717 12.4031C6.48938 12.4182 6.51534 12.4334 6.54169 12.4466C6.56351 12.4575 6.58161 12.465 6.5943 12.4696H6.64164L6.71862 12.4953C7.62087 12.796 8.27262 13.5736 8.27262 14.5454V14.6666C8.27262 14.7018 8.27844 14.7237 8.28286 14.7352C8.2871 14.7462 8.29111 14.7507 8.29284 14.7524C8.29458 14.7541 8.29905 14.7582 8.31007 14.7624C8.32154 14.7668 8.34342 14.7726 8.37868 14.7726C8.41395 14.7726 8.43583 14.7668 8.4473 14.7624C8.45832 14.7582 8.46279 14.7541 8.46453 14.7524C8.46626 14.7507 8.47027 14.7462 8.47451 14.7352C8.47892 14.7237 8.48475 14.7018 8.48475 14.6666V14.5454C8.48475 13.6055 9.09446 12.8472 9.95082 12.5264C10.0046 12.4889 10.0566 12.4621 10.0998 12.4424C10.166 12.4124 10.2333 12.39 10.2746 12.3762L10.2812 12.374C10.3185 12.3616 10.339 12.3545 10.3527 12.3491L10.4007 12.301L10.496 12.2629C11.2648 11.9554 12.3317 12.0943 12.9747 12.7373L13.0613 12.8239C13.0631 12.8242 13.0649 12.8245 13.0669 12.8249C13.0868 12.8282 13.1112 12.8305 13.14 12.8319C13.169 12.8332 13.1964 12.8332 13.2272 12.8332C13.2906 12.8332 13.3328 12.8331 13.3682 12.8317C13.3726 12.8316 13.3767 12.8314 13.3804 12.8312C13.3915 12.8129 13.3938 12.7978 13.3938 12.7878C13.3938 12.773 13.3889 12.7475 13.3585 12.7171L13.2373 12.5959C12.8744 12.2331 12.6339 11.8099 12.5527 11.3431C12.4761 10.9024 12.5478 10.4584 12.7425 10.036C12.7525 9.98828 12.7659 9.94742 12.7779 9.91524C12.7988 9.85956 12.8245 9.80839 12.8381 9.78121C12.839 9.77947 12.8398 9.77783 12.8406 9.77629C12.8436 9.77022 12.8462 9.76509 12.8484 9.7606V9.70004L12.9012 9.59447C13.3286 8.7397 14.086 8.10596 15.1666 8.10596C15.2418 8.10596 15.3008 8.0803 15.3344 8.05043C15.3588 8.02875 15.3938 7.98543 15.3938 7.87868C15.3938 7.84342 15.388 7.82154 15.3836 7.81007C15.3794 7.79904 15.3754 7.79458 15.3736 7.79284C15.3719 7.79111 15.3674 7.7871 15.3564 7.78286C15.3449 7.77844 15.323 7.77262 15.2878 7.77262H15.1666C14.1287 7.77262 13.354 7.18162 13.0263 6.30651C12.9889 6.25273 12.9621 6.20072 12.9424 6.15756C12.9124 6.09139 12.89 6.02403 12.8762 5.98276L12.874 5.97619C12.8616 5.93889 12.8545 5.91835 12.8491 5.90472L12.801 5.85664L12.7629 5.76135C12.4554 4.99252 12.5943 3.92568 13.2373 3.28271L13.3585 3.1615C13.3889 3.13106 13.3938 3.10554 13.3938 3.09081C13.3938 3.07607 13.3889 3.05055 13.3585 3.02012C13.328 2.98968 13.3025 2.98474 13.2878 2.98474C13.273 2.98474 13.2475 2.98968 13.2171 3.02012L13.1141 3.12312C12.4669 3.90858 11.3542 4.06528 10.5457 3.58016L10.4929 3.54849L10.4494 3.50496C10.4466 3.50223 10.4347 3.49138 10.4114 3.47551C10.3892 3.46037 10.3632 3.44513 10.3369 3.43196C10.3151 3.42104 10.297 3.41354 10.2843 3.40899H10.2369L10.16 3.38333C9.25771 3.08258 8.60596 2.30496 8.60596 1.33323V1.21202C8.60596 1.17675 8.60014 1.15487 8.59572 1.1434C8.59148 1.13238 8.58747 1.12791 8.58574 1.12618C8.584 1.12444 8.57954 1.12043 8.56851 1.11619C8.55704 1.11178 8.53517 1.10596 8.4999 1.10596C8.46463 1.10596 8.44275 1.11178 8.43128 1.11619C8.42026 1.12043 8.41579 1.12444 8.41406 1.12618C8.41232 1.12791 8.40831 1.13238 8.40407 1.1434ZM7.70695 0.41907C7.9194 0.20662 8.20445 0.105957 8.4999 0.105957C8.79534 0.105957 9.08039 0.20662 9.29284 0.41907C9.50529 0.631521 9.60596 0.916576 9.60596 1.21202V1.33323C9.60596 1.80154 9.90509 2.2244 10.4271 2.41738C10.5689 2.4385 10.6994 2.49516 10.7841 2.53753C10.8859 2.58841 11.0005 2.65902 11.0996 2.74497C11.493 2.95466 12.0371 2.86887 12.3519 2.47543L12.3692 2.4538L12.51 2.31301C12.9477 1.87532 13.6279 1.87532 14.0656 2.31301C14.5033 2.7507 14.5033 3.43092 14.0656 3.8686L13.9444 3.98981C13.6329 4.30131 13.5242 4.88859 13.6684 5.32681C13.7069 5.38159 13.7344 5.43468 13.7543 5.4786C13.7844 5.54475 13.8068 5.61209 13.8205 5.65336L13.8227 5.65996C13.8352 5.69727 13.8423 5.7178 13.8476 5.73144L13.9066 5.79041L13.9439 5.90239C14.1211 6.43374 14.5419 6.77262 15.1666 6.77262H15.2878C15.5832 6.77262 15.8683 6.87329 16.0807 7.08574C16.2932 7.29819 16.3938 7.58324 16.3938 7.87868C16.3938 8.25679 16.2471 8.5771 15.9987 8.79784C15.7596 9.0104 15.4549 9.10596 15.1666 9.10596C14.5739 9.10596 14.1307 9.41655 13.8309 9.97361C13.8212 10.0172 13.8088 10.0546 13.7976 10.0845C13.7767 10.1402 13.7511 10.1914 13.7375 10.2186L13.735 10.2235C13.732 10.2296 13.7294 10.2347 13.7272 10.2392V10.2997L13.6744 10.4053C13.5335 10.6871 13.4981 10.9427 13.538 11.1718C13.578 11.402 13.7011 11.6455 13.9444 11.8888L14.0656 12.01C14.5033 12.4477 14.5033 13.1279 14.0656 13.5656C13.794 13.8372 13.474 13.8349 13.2686 13.8334C13.2542 13.8333 13.2404 13.8332 13.2272 13.8332L13.2209 13.8332C13.1604 13.8333 13.0349 13.8333 12.9025 13.8113C12.777 13.7903 12.5602 13.737 12.3888 13.5656L12.2676 13.4444C11.9561 13.1329 11.3688 13.0242 10.9306 13.1684C10.8758 13.2069 10.8227 13.2344 10.7788 13.2543C10.7126 13.2844 10.6453 13.3068 10.604 13.3205L10.5974 13.3227C10.5601 13.3352 10.5396 13.3423 10.5259 13.3476L10.467 13.4066L10.355 13.4439C9.80269 13.628 9.48475 14.0625 9.48475 14.5454V14.6666C9.48475 14.962 9.38408 15.2471 9.17163 15.4595C8.95918 15.672 8.67413 15.7726 8.37868 15.7726C8.08324 15.7726 7.79819 15.672 7.58574 15.4595C7.37329 15.2471 7.27262 14.962 7.27262 14.6666V14.5454C7.27262 14.077 6.97348 13.6542 6.4515 13.4612C6.30972 13.4401 6.17922 13.3834 6.09447 13.341C5.99271 13.2902 5.87811 13.2196 5.779 13.1336C5.42808 12.9466 4.95726 12.9946 4.63626 13.2864V13.4191L4.48981 13.5656C4.05213 14.0033 3.37191 14.0033 2.93422 13.5656C2.49654 13.1279 2.49654 12.4477 2.93422 12.01L3.05543 11.8888C3.38238 11.5618 3.46513 10.9643 3.22267 10.5602L3.15141 10.4414V10.3029C3.15141 10.2709 3.1467 10.2487 3.11646 10.158C3.11541 10.1549 3.11433 10.1516 3.11322 10.1483C3.08742 10.0711 3.04691 9.94995 3.03417 9.79402C2.8392 9.27936 2.4192 8.98474 1.95444 8.98474H1.71202C1.41658 8.98474 1.13152 8.88408 0.91907 8.67163C0.70662 8.45918 0.605957 8.17413 0.605957 7.87868C0.605957 7.58324 0.70662 7.29819 0.91907 7.08574C1.13152 6.87329 1.41658 6.77262 1.71202 6.77262H1.83323C2.34077 6.77262 2.85283 6.43632 3.03925 5.94882C3.04932 5.88629 3.06613 5.8336 3.08097 5.79403C3.10185 5.73836 3.12749 5.6872 3.14112 5.66002C3.14199 5.65827 3.14282 5.65662 3.14359 5.65508C3.14663 5.649 3.14919 5.64388 3.15141 5.63939V5.57883L3.2042 5.47326C3.34506 5.19153 3.38046 4.93583 3.34062 4.70678C3.30059 4.47656 3.17746 4.23305 2.93422 3.98981C2.49654 3.55213 2.49654 2.87191 2.93422 2.43422C3.37191 1.99654 4.05213 1.99654 4.48981 2.43422L4.61103 2.55543C4.92703 2.87144 5.56015 2.99822 6.15997 2.79828L6.23694 2.77262H6.2606C6.26509 2.7704 6.27022 2.76784 6.27629 2.7648C6.27783 2.76403 6.27948 2.76321 6.28123 2.76233C6.30841 2.74871 6.35958 2.72306 6.41524 2.70219C6.45515 2.68722 6.5084 2.67024 6.57163 2.6602C7.07529 2.47412 7.39384 2.06011 7.39384 1.45444V1.21202C7.39384 0.916576 7.4945 0.631521 7.70695 0.41907Z" fill="black"/>
<path d="M8.01506 6.18172C8.01506 5.45445 7.40899 4.84839 6.68172 4.84839C5.95445 4.84839 5.34839 5.45445 5.34839 6.18172C5.34839 6.90899 5.95445 7.51506 6.68172 7.51506C7.40899 7.51506 8.01506 6.90899 8.01506 6.18172Z" fill="#212121"/>
<path d="M8.01511 9.69702C7.53026 9.69702 7.04541 10.0607 7.04541 10.6667C7.04541 11.1516 7.53026 11.6364 8.01511 11.6364C8.49996 11.6364 8.9848 11.1516 8.9848 10.6667C8.9848 10.0607 8.49996 9.69702 8.01511 9.69702Z" fill="black"/>
<path d="M10.9243 6.42432C10.5607 6.42432 10.197 6.78795 10.197 7.15159C10.197 7.63644 10.5607 7.87886 11.0455 7.87886C11.4091 7.87886 11.7728 7.51523 11.7728 7.15159C11.7728 6.78795 11.4091 6.42432 10.9243 6.42432Z" fill="black"/>
</g>
<defs>
<clipPath id="clip0_8285_8468">
<rect width="16" height="16" fill="white" transform="translate(0.5)"/>
</clipPath>
</defs>
</svg>
