<svg width="17" height="16" viewBox="0 0 17 16" fill="none" xmlns="http://www.w3.org/2000/svg">
<g clip-path="url(#clip0_6442_4130)">
<path fill-rule="evenodd" clip-rule="evenodd" d="M8.40418 1.1435C8.39976 1.15498 8.39394 1.17685 8.39394 1.21212V1.45454C8.39394 2.52681 7.76313 3.31812 6.83994 3.62586L6.76296 3.65151H6.7393C6.73481 3.65374 6.72968 3.6563 6.72361 3.65933C6.72207 3.66011 6.72042 3.66093 6.71868 3.66181C6.6915 3.67543 6.64033 3.70108 6.58466 3.72195C6.54297 3.73758 6.48673 3.75541 6.41977 3.76523C5.5751 4.02665 4.54338 3.902 3.90403 3.26264L3.78281 3.14143C3.75238 3.111 3.72686 3.10606 3.71212 3.10606C3.69739 3.10606 3.67187 3.111 3.64144 3.14143C3.611 3.17187 3.60606 3.19739 3.60606 3.21212C3.60606 3.22685 3.611 3.25237 3.64144 3.28281C4.00426 3.64563 4.24477 4.06879 4.32594 4.53554C4.40259 4.97626 4.33091 5.42023 4.13618 5.84264C4.12619 5.8904 4.11281 5.93126 4.10074 5.96344C4.07987 6.0191 4.05423 6.07026 4.04061 6.09744C4.03973 6.0992 4.0389 6.10085 4.03813 6.10239C4.03509 6.10847 4.03253 6.11359 4.03031 6.11808V6.14174L4.00465 6.21872C3.69062 7.16082 2.76438 7.77273 1.83334 7.77273H1.71212C1.67686 7.77273 1.65498 7.77855 1.64351 7.78296C1.63248 7.7872 1.62802 7.79121 1.62628 7.79295C1.62455 7.79468 1.62054 7.79915 1.6163 7.81017C1.61188 7.82164 1.60606 7.84352 1.60606 7.87879C1.60606 7.91406 1.61188 7.93593 1.6163 7.9474C1.62054 7.95843 1.62455 7.96289 1.62628 7.96463C1.62802 7.96636 1.63248 7.97037 1.64351 7.97461C1.65498 7.97903 1.67686 7.98485 1.71212 7.98485H1.95455C2.92628 7.98485 3.7039 8.6366 4.00465 9.53885L4.03031 9.61583V9.69697C4.03031 9.72899 4.03502 9.75117 4.06525 9.84189C4.06631 9.84504 4.06739 9.84828 4.0685 9.8516C4.09161 9.92073 4.12654 10.0252 4.14272 10.1583C4.54946 10.9533 4.37602 11.9826 3.76265 12.596L3.64143 12.7172C3.611 12.7476 3.60606 12.7731 3.60606 12.7879C3.60606 12.8026 3.611 12.8281 3.64144 12.8586C3.65001 12.8671 3.65819 12.8737 3.66584 12.8787L3.74593 12.7786C4.39022 11.9732 5.51663 11.8087 6.33301 12.2985L6.38579 12.3302L6.42931 12.3737C6.43204 12.3764 6.444 12.3873 6.46728 12.4032C6.48949 12.4183 6.51545 12.4336 6.54179 12.4467C6.56362 12.4576 6.58172 12.4651 6.59441 12.4697H6.64175L6.71872 12.4954C7.62098 12.7961 8.27273 13.5737 8.27273 14.5455V14.6667C8.27273 14.7019 8.27855 14.7238 8.28296 14.7353C8.2872 14.7463 8.29122 14.7508 8.29295 14.7525C8.29469 14.7542 8.29915 14.7583 8.31018 14.7625C8.32165 14.7669 8.34352 14.7727 8.37879 14.7727C8.41406 14.7727 8.43593 14.7669 8.44741 14.7625C8.45843 14.7583 8.4629 14.7542 8.46463 14.7525C8.46637 14.7508 8.47038 14.7463 8.47462 14.7353C8.47903 14.7238 8.48485 14.7019 8.48485 14.6667V14.5455C8.48485 13.6056 9.09456 12.8473 9.95093 12.5265C10.0047 12.489 10.0568 12.4622 10.0999 12.4425C10.1661 12.4125 10.2334 12.3901 10.2747 12.3763L10.2813 12.3741C10.3186 12.3617 10.3391 12.3546 10.3528 12.3492L10.4008 12.3011L10.4961 12.263C11.265 11.9555 12.3318 12.0944 12.9748 12.7374L13.0614 12.824C13.0632 12.8243 13.065 12.8246 13.0671 12.825C13.0869 12.8283 13.1113 12.8306 13.1401 12.832C13.1691 12.8333 13.1965 12.8333 13.2273 12.8333C13.2907 12.8333 13.3329 12.8333 13.3683 12.8318C13.3727 12.8317 13.3768 12.8315 13.3805 12.8313C13.3916 12.813 13.3939 12.7979 13.3939 12.7879C13.3939 12.7731 13.389 12.7476 13.3586 12.7172L13.2374 12.596C12.8745 12.2332 12.634 11.81 12.5529 11.3432C12.4762 10.9025 12.5479 10.4586 12.7426 10.0361C12.7526 9.98838 12.766 9.94753 12.7781 9.91534C12.7989 9.85967 12.8246 9.80849 12.8382 9.78131C12.8391 9.77957 12.8399 9.77793 12.8407 9.77639C12.8437 9.77032 12.8463 9.76519 12.8485 9.76071V9.70015L12.9013 9.59457C13.3287 8.7398 14.0861 8.10606 15.1667 8.10606C15.242 8.10606 15.3009 8.0804 15.3345 8.05054C15.3589 8.02885 15.3939 7.98553 15.3939 7.87879C15.3939 7.84352 15.3881 7.82164 15.3837 7.81017C15.3795 7.79915 15.3755 7.79468 15.3737 7.79295C15.372 7.79121 15.3675 7.7872 15.3565 7.78296C15.345 7.77855 15.3232 7.77273 15.2879 7.77273H15.1667C14.1288 7.77273 13.3541 7.18172 13.0264 6.30661C12.989 6.25284 12.9622 6.20082 12.9425 6.15766C12.9125 6.09149 12.8901 6.02414 12.8763 5.98287L12.8741 5.97629C12.8617 5.93899 12.8546 5.91846 12.8492 5.90482L12.8012 5.85674L12.763 5.76145C12.4555 4.99263 12.5944 3.92578 13.2374 3.28281L13.3586 3.1616C13.389 3.13116 13.3939 3.10564 13.3939 3.09091C13.3939 3.07617 13.389 3.05066 13.3586 3.02022C13.3281 2.98978 13.3026 2.98485 13.2879 2.98485C13.2731 2.98485 13.2476 2.98978 13.2172 3.02022L13.1142 3.12322C12.467 3.90868 11.3543 4.06539 10.5458 3.58026L10.493 3.54859L10.4495 3.50507C10.4468 3.50234 10.4348 3.49148 10.4115 3.47561C10.3893 3.46047 10.3633 3.44523 10.337 3.43206C10.3152 3.42115 10.2971 3.41364 10.2844 3.40909H10.237L10.1601 3.38343C9.25782 3.08268 8.60606 2.30507 8.60606 1.33333V1.21212C8.60606 1.17685 8.60024 1.15498 8.59583 1.1435C8.59159 1.13248 8.58758 1.12801 8.58584 1.12628C8.58411 1.12455 8.57964 1.12053 8.56862 1.11629C8.55715 1.11188 8.53527 1.10606 8.5 1.10606C8.46474 1.10606 8.44286 1.11188 8.43139 1.11629C8.42036 1.12053 8.4159 1.12455 8.41416 1.12628C8.41243 1.12801 8.40842 1.13248 8.40418 1.1435ZM7.70706 0.419173C7.91951 0.206723 8.20456 0.10606 8.5 0.10606C8.79545 0.10606 9.0805 0.206723 9.29295 0.419173C9.5054 0.631624 9.60606 0.916679 9.60606 1.21212V1.33333C9.60606 1.80164 9.9052 2.22451 10.4272 2.41749C10.569 2.4386 10.6995 2.49526 10.7842 2.53763C10.886 2.58852 11.0006 2.65912 11.0997 2.74507C11.4931 2.95476 12.0372 2.86898 12.352 2.47553L12.3693 2.45391L12.5101 2.31311C12.9478 1.87543 13.628 1.87543 14.0657 2.31311C14.5034 2.7508 14.5034 3.43102 14.0657 3.8687L13.9445 3.98992C13.633 4.30142 13.5243 4.88869 13.6685 5.32691C13.707 5.3817 13.7345 5.43478 13.7544 5.4787C13.7845 5.54486 13.8069 5.6122 13.8206 5.65347L13.8228 5.66007C13.8353 5.69737 13.8424 5.71791 13.8477 5.73154L13.9067 5.79051L13.944 5.90249C14.1212 6.43384 14.542 6.77273 15.1667 6.77273H15.2879C15.5833 6.77273 15.8684 6.87339 16.0808 7.08584C16.2933 7.29829 16.3939 7.58334 16.3939 7.87879C16.3939 8.25689 16.2472 8.57721 15.9989 8.79795C15.7597 9.01051 15.455 9.10606 15.1667 9.10606C14.574 9.10606 14.1308 9.41665 13.831 9.97372C13.8213 10.0173 13.8089 10.0547 13.7977 10.0847C13.7768 10.1403 13.7512 10.1915 13.7376 10.2187L13.7351 10.2236C13.7321 10.2297 13.7295 10.2348 13.7273 10.2393V10.2999L13.6745 10.4054C13.5336 10.6872 13.4982 10.9429 13.5381 11.1719C13.5781 11.4021 13.7012 11.6456 13.9445 11.8889L14.0657 12.0101C14.5034 12.4478 14.5034 13.128 14.0657 13.5657C13.7941 13.8373 13.4741 13.835 13.2687 13.8335C13.2543 13.8334 13.2405 13.8333 13.2273 13.8333L13.221 13.8333C13.1605 13.8334 13.035 13.8334 12.9027 13.8114C12.7771 13.7904 12.5603 13.7371 12.3889 13.5657L12.2677 13.4445C11.9562 13.133 11.3689 13.0243 10.9307 13.1685C10.8759 13.207 10.8228 13.2345 10.7789 13.2544C10.7127 13.2845 10.6454 13.3069 10.6041 13.3206L10.5975 13.3228C10.5602 13.3353 10.5397 13.3424 10.526 13.3477L10.4671 13.4067L10.3551 13.444C9.8028 13.6281 9.48485 14.0626 9.48485 14.5455V14.6667C9.48485 14.9621 9.38419 15.2472 9.17174 15.4596C8.95929 15.6721 8.67423 15.7727 8.37879 15.7727C8.08335 15.7727 7.79829 15.6721 7.58584 15.4596C7.37339 15.2472 7.27273 14.9621 7.27273 14.6667V14.5455C7.27273 14.0771 6.97359 13.6543 6.45161 13.4613C6.30982 13.4402 6.17932 13.3835 6.09458 13.3412C5.99281 13.2903 5.87822 13.2197 5.77911 13.1337C5.42818 12.9467 4.95737 12.9947 4.63637 13.2865V13.4192L4.48992 13.5657C4.05223 14.0034 3.37202 14.0034 2.93433 13.5657C2.49664 13.128 2.49664 12.4478 2.93433 12.0101L3.05554 11.8889C3.38249 11.5619 3.46524 10.9644 3.22277 10.5603L3.15152 10.4415V10.303C3.15152 10.271 3.14681 10.2488 3.11657 10.1581C3.11552 10.155 3.11444 10.1517 3.11332 10.1484C3.08753 10.0712 3.04701 9.95006 3.03428 9.79412C2.83931 9.27946 2.41931 8.98485 1.95455 8.98485H1.71212C1.41668 8.98485 1.13163 8.88418 0.919177 8.67173C0.706727 8.45928 0.606064 8.17423 0.606064 7.87879C0.606064 7.58334 0.706727 7.29829 0.919177 7.08584C1.13163 6.87339 1.41668 6.77273 1.71212 6.77273H1.83334C2.34088 6.77273 2.85294 6.43642 3.03935 5.94892C3.04942 5.8864 3.06624 5.83371 3.08108 5.79413C3.10196 5.73847 3.1276 5.6873 3.14122 5.66012C3.1421 5.65837 3.14293 5.65672 3.1437 5.65518C3.14674 5.64911 3.1493 5.64398 3.15152 5.63949V5.57893L3.2043 5.47336C3.34517 5.19163 3.38057 4.93593 3.34073 4.70688C3.30069 4.47666 3.17757 4.23315 2.93433 3.98992C2.49664 3.55223 2.49664 2.87201 2.93433 2.43432C3.37202 1.99664 4.05223 1.99664 4.48992 2.43432L4.61113 2.55554C4.92714 2.87154 5.56026 2.99832 6.16007 2.79838L6.23705 2.77273H6.26071C6.26519 2.7705 6.27032 2.76794 6.2764 2.76491C6.27794 2.76413 6.27959 2.76331 6.28134 2.76243C6.30852 2.74881 6.35968 2.72316 6.41535 2.70229C6.45526 2.68732 6.50851 2.67035 6.57174 2.66031C7.07539 2.47422 7.39394 2.06021 7.39394 1.45454V1.21212C7.39394 0.916679 7.49461 0.631624 7.70706 0.419173Z" fill="black"/>
<path d="M8.01515 6.18182C8.01515 5.45454 7.40909 4.84848 6.68181 4.84848C5.95454 4.84848 5.34848 5.45454 5.34848 6.18182C5.34848 6.90909 5.95454 7.51515 6.68181 7.51515C7.40909 7.51515 8.01515 6.90909 8.01515 6.18182Z" fill="#212121"/>
<path d="M8.01515 9.69697C7.5303 9.69697 7.04546 10.0606 7.04546 10.6667C7.04546 11.1515 7.5303 11.6364 8.01515 11.6364C8.5 11.6364 8.98485 11.1515 8.98485 10.6667C8.98485 10.0606 8.5 9.69697 8.01515 9.69697Z" fill="black"/>
<path d="M10.9242 6.42424C10.5606 6.42424 10.197 6.78788 10.197 7.15151C10.197 7.63636 10.5606 7.87879 11.0455 7.87879C11.4091 7.87879 11.7727 7.51515 11.7727 7.15151C11.7727 6.78788 11.4091 6.42424 10.9242 6.42424Z" fill="black"/>
</g>
<defs>
<clipPath id="clip0_6442_4130">
<rect width="16" height="16" fill="white" transform="translate(0.5)"/>
</clipPath>
</defs>
</svg>
