
<svg width="17" height="13" viewBox="0 0 17 13" fill="none" xmlns="http://www.w3.org/2000/svg">
<path d="M9.19359 0.0231299C9.86883 -0.0289124 10.596 0.0231299 11.2712 0.0231299C11.4271 0.0231299 11.5829 -0.0289124 11.6868 0.127215C11.7387 0.283342 11.6348 0.387426 11.5829 0.543553C10.1805 4.6549 8.77806 8.7142 7.37564 12.8255C7.37564 12.9296 7.27175 13.0337 7.16787 12.9817C6.44069 12.9817 5.71351 12.9817 5.03827 12.9817C4.93439 12.9817 4.83051 12.9296 4.77856 12.8255C4.83051 12.6694 4.83051 12.5133 4.93439 12.4092C6.33681 8.3499 7.73923 4.2906 9.14165 0.231299C9.08971 0.127215 9.14165 0.0751722 9.19359 0.0231299Z" fill="#22E3D8"/>
<path d="M12.5568 0.0211489C12.6607 -0.0308934 12.8165 0.0211489 12.8684 0.125234C14.0111 1.58242 15.1019 3.0396 16.2446 4.49679C16.3485 4.65292 16.5043 4.80904 16.4524 5.01721C16.0888 6.1101 15.7252 7.20299 15.3616 8.24384C15.3097 8.39996 15.2058 8.50405 15.05 8.50405C13.232 8.97243 11.3621 9.44081 9.54417 9.96123C9.44029 9.96123 9.28447 10.0133 9.18058 9.96123C9.0767 9.85715 9.12864 9.75306 9.18058 9.59694C9.38835 9.02447 9.54417 8.45201 9.75194 7.93158C9.80388 7.8275 9.80388 7.67137 9.9597 7.67137C11.5699 7.25503 13.1801 6.83869 14.7903 6.42235C14.8941 6.42235 14.9461 6.31827 14.8941 6.21419C13.9073 4.91313 12.8684 3.61207 11.8815 2.25897C11.8296 2.20693 11.7777 2.10284 11.8296 1.99876C12.0374 1.37425 12.2451 0.801784 12.4529 0.177276C12.4529 0.177276 12.5048 0.0731912 12.5568 0.0211489Z" fill="#21263B"/>
<path d="M6.99912 2.93546C7.103 2.88341 7.25882 2.93546 7.31077 3.03954C7.31077 3.09158 7.31077 3.14362 7.31077 3.19567C7.15494 3.76813 6.94717 4.28856 6.73941 4.86102C6.68747 4.96511 6.63553 5.12123 6.58358 5.22532C6.42776 5.27736 6.32388 5.3294 6.16805 5.38144C4.66175 5.74574 3.20739 6.16208 1.70108 6.52637C1.5972 6.52637 1.49332 6.63046 1.54526 6.73454C2.58409 8.0356 3.62292 9.3887 4.60981 10.6898C4.71369 10.7938 4.60981 10.95 4.60981 11.1061C4.40204 11.6786 4.19428 12.3031 3.98651 12.8755C3.93457 12.9796 3.77874 13.0317 3.67486 12.9796C3.62292 12.9796 3.62292 12.9276 3.57098 12.8755C2.37632 11.3143 1.23361 9.80504 0.0389561 8.24377C-0.0129854 8.13969 -0.0129854 7.98356 0.0389561 7.87948C0.402547 6.78659 0.766137 5.74574 1.12973 4.65285C1.18167 4.49672 1.28555 4.39264 1.44138 4.39264C3.31127 3.92426 5.12922 3.45588 6.99912 2.93546Z" fill="#21263B"/>
</svg>
