<svg width="14" height="14" viewBox="0 0 14 14" fill="none" xmlns="http://www.w3.org/2000/svg">
<path d="M3.0835 6.6671C2.68953 6.6671 2.29942 6.5895 1.93545 6.43874C1.57147 6.28797 1.24075 6.06699 0.962176 5.78842C0.6836 5.50984 0.462622 5.17913 0.311857 4.81515C0.161093 4.45117 0.0834961 4.06106 0.0834961 3.6671C0.0834961 3.27313 0.161093 2.88303 0.311857 2.51905C0.462622 2.15507 0.6836 1.82435 0.962176 1.54578C1.24075 1.2672 1.57147 1.04622 1.93545 0.89546C2.29942 0.744696 2.68953 0.667099 3.0835 0.667099C3.87915 0.667099 4.64221 0.983169 5.20482 1.54578C5.76743 2.10839 6.0835 2.87145 6.0835 3.6671C6.0835 4.46275 5.76743 5.22581 5.20482 5.78842C4.64221 6.35103 3.87915 6.6671 3.0835 6.6671ZM3.41683 13.3338C2.62118 13.3338 1.85812 13.0177 1.29551 12.4551C0.7329 11.8925 0.41683 11.1294 0.41683 10.3338C0.41683 9.53812 0.7329 8.77505 1.29551 8.21245C1.85812 7.64984 2.62118 7.33377 3.41683 7.33377C4.21248 7.33377 4.97554 7.64984 5.53815 8.21245C6.10076 8.77505 6.41683 9.53812 6.41683 10.3338C6.41683 11.1294 6.10076 11.8925 5.53815 12.4551C4.97554 13.0177 4.21248 13.3338 3.41683 13.3338ZM10.0835 6.6671C9.68953 6.6671 9.29942 6.5895 8.93545 6.43874C8.57147 6.28797 8.24075 6.06699 7.96218 5.78842C7.6836 5.50984 7.46262 5.17913 7.31186 4.81515C7.16109 4.45117 7.0835 4.06106 7.0835 3.6671C7.0835 3.27313 7.16109 2.88303 7.31186 2.51905C7.46262 2.15507 7.6836 1.82435 7.96218 1.54578C8.24075 1.2672 8.57147 1.04622 8.93545 0.89546C9.29942 0.744696 9.68953 0.667099 10.0835 0.667099C10.8791 0.667099 11.6422 0.983169 12.2048 1.54578C12.7674 2.10839 13.0835 2.87145 13.0835 3.6671C13.0835 4.46275 12.7674 5.22581 12.2048 5.78842C11.6422 6.35103 10.8791 6.6671 10.0835 6.6671ZM10.0835 13.3338C9.28785 13.3338 8.52479 13.0177 7.96218 12.4551C7.39957 11.8925 7.0835 11.1294 7.0835 10.3338C7.0835 9.53812 7.39957 8.77505 7.96218 8.21245C8.52479 7.64984 9.28785 7.33377 10.0835 7.33377C10.8791 7.33377 11.6422 7.64984 12.2048 8.21245C12.7674 8.77505 13.0835 9.53812 13.0835 10.3338C13.0835 11.1294 12.7674 11.8925 12.2048 12.4551C11.6422 13.0177 10.8791 13.3338 10.0835 13.3338ZM3.0835 5.33377C3.52552 5.33377 3.94945 5.15817 4.26201 4.84561C4.57457 4.53305 4.75016 4.10913 4.75016 3.6671C4.75016 3.22507 4.57457 2.80115 4.26201 2.48859C3.94945 2.17603 3.52552 2.00043 3.0835 2.00043C2.64147 2.00043 2.21755 2.17603 1.90498 2.48859C1.59242 2.80115 1.41683 3.22507 1.41683 3.6671C1.41683 4.10913 1.59242 4.53305 1.90498 4.84561C2.21755 5.15817 2.64147 5.33377 3.0835 5.33377ZM3.41683 12.0004C3.85886 12.0004 4.28278 11.8248 4.59534 11.5123C4.9079 11.1997 5.0835 10.7758 5.0835 10.3338C5.0835 9.89174 4.9079 9.46781 4.59534 9.15525C4.28278 8.84269 3.85886 8.6671 3.41683 8.6671C2.9748 8.6671 2.55088 8.84269 2.23832 9.15525C1.92576 9.46781 1.75016 9.89174 1.75016 10.3338C1.75016 10.7758 1.92576 11.1997 2.23832 11.5123C2.55088 11.8248 2.9748 12.0004 3.41683 12.0004ZM10.0835 5.33377C10.5255 5.33377 10.9494 5.15817 11.262 4.84561C11.5746 4.53305 11.7502 4.10913 11.7502 3.6671C11.7502 3.22507 11.5746 2.80115 11.262 2.48859C10.9494 2.17603 10.5255 2.00043 10.0835 2.00043C9.64147 2.00043 9.21755 2.17603 8.90499 2.48859C8.59242 2.80115 8.41683 3.22507 8.41683 3.6671C8.41683 4.10913 8.59242 4.53305 8.90499 4.84561C9.21755 5.15817 9.64147 5.33377 10.0835 5.33377ZM10.0835 12.0004C10.5255 12.0004 10.9494 11.8248 11.262 11.5123C11.5746 11.1997 11.7502 10.7758 11.7502 10.3338C11.7502 9.89174 11.5746 9.46781 11.262 9.15525C10.9494 8.84269 10.5255 8.6671 10.0835 8.6671C9.64147 8.6671 9.21755 8.84269 8.90499 9.15525C8.59242 9.46781 8.41683 9.89174 8.41683 10.3338C8.41683 10.7758 8.59242 11.1997 8.90499 11.5123C9.21755 11.8248 9.64147 12.0004 10.0835 12.0004Z" fill="#212121"/>
</svg>
