<svg width="18" height="21" viewBox="0 0 18 21" fill="none" xmlns="http://www.w3.org/2000/svg">
<path d="M7 16.3571C7.26522 16.3571 7.51957 16.2518 7.70711 16.0643C7.89464 15.8767 8 15.6224 8 15.3571V9.35715C8 9.09193 7.89464 8.83758 7.70711 8.65004C7.51957 8.4625 7.26522 8.35715 7 8.35715C6.73478 8.35715 6.48043 8.4625 6.29289 8.65004C6.10536 8.83758 6 9.09193 6 9.35715V15.3571C6 15.6224 6.10536 15.8767 6.29289 16.0643C6.48043 16.2518 6.73478 16.3571 7 16.3571ZM17 4.35715H13V3.35715C13 2.5615 12.6839 1.79844 12.1213 1.23583C11.5587 0.673218 10.7956 0.357147 10 0.357147H8C7.20435 0.357147 6.44129 0.673218 5.87868 1.23583C5.31607 1.79844 5 2.5615 5 3.35715V4.35715H1C0.734784 4.35715 0.48043 4.4625 0.292893 4.65004C0.105357 4.83758 0 5.09193 0 5.35715C0 5.62236 0.105357 5.87672 0.292893 6.06425C0.48043 6.25179 0.734784 6.35715 1 6.35715H2V17.3571C2 18.1528 2.31607 18.9159 2.87868 19.4785C3.44129 20.0411 4.20435 20.3571 5 20.3571H13C13.7956 20.3571 14.5587 20.0411 15.1213 19.4785C15.6839 18.9159 16 18.1528 16 17.3571V6.35715H17C17.2652 6.35715 17.5196 6.25179 17.7071 6.06425C17.8946 5.87672 18 5.62236 18 5.35715C18 5.09193 17.8946 4.83758 17.7071 4.65004C17.5196 4.4625 17.2652 4.35715 17 4.35715ZM7 3.35715C7 3.09193 7.10536 2.83758 7.29289 2.65004C7.48043 2.4625 7.73478 2.35715 8 2.35715H10C10.2652 2.35715 10.5196 2.4625 10.7071 2.65004C10.8946 2.83758 11 3.09193 11 3.35715V4.35715H7V3.35715ZM14 17.3571C14 17.6224 13.8946 17.8767 13.7071 18.0643C13.5196 18.2518 13.2652 18.3571 13 18.3571H5C4.73478 18.3571 4.48043 18.2518 4.29289 18.0643C4.10536 17.8767 4 17.6224 4 17.3571V6.35715H14V17.3571ZM11 16.3571C11.2652 16.3571 11.5196 16.2518 11.7071 16.0643C11.8946 15.8767 12 15.6224 12 15.3571V9.35715C12 9.09193 11.8946 8.83758 11.7071 8.65004C11.5196 8.4625 11.2652 8.35715 11 8.35715C10.7348 8.35715 10.4804 8.4625 10.2929 8.65004C10.1054 8.83758 10 9.09193 10 9.35715V15.3571C10 15.6224 10.1054 15.8767 10.2929 16.0643C10.4804 16.2518 10.7348 16.3571 11 16.3571Z" fill="#FA4949"/>
</svg>
