<svg width="22" height="24" viewBox="0 0 22 24" fill="none" xmlns="http://www.w3.org/2000/svg">
<path d="M2 8.8V20.8C2 21.2243 2.16857 21.6313 2.46863 21.9314C2.76869 22.2314 3.17566 22.4 3.6 22.4H5.2C5.41217 22.4 5.61566 22.4843 5.76569 22.6343C5.91572 22.7843 6 22.9878 6 23.2C6 23.4122 5.91572 23.6157 5.76569 23.7657C5.61566 23.9157 5.41217 24 5.2 24H3.6C2.75131 24 1.93738 23.6629 1.33726 23.0627C0.737143 22.4626 0.400002 21.6487 0.400002 20.8V7.6688L8.0688 0H16.4C17.2487 0 18.0626 0.337142 18.6627 0.937258C19.2629 1.53737 19.6 2.35131 19.6 3.2V15.2C19.6 15.4122 19.5157 15.6157 19.3657 15.7657C19.2157 15.9157 19.0122 16 18.8 16C18.5878 16 18.3843 15.9157 18.2343 15.7657C18.0843 15.6157 18 15.4122 18 15.2V3.2C18 2.77565 17.8314 2.36869 17.5314 2.06863C17.2313 1.76857 16.8243 1.6 16.4 1.6H9.2V6.4C9.2 7.03652 8.94715 7.64697 8.49706 8.09706C8.04697 8.54714 7.43652 8.8 6.8 8.8H2ZM7.6 2.7312L3.1312 7.2H6.8C7.01217 7.2 7.21566 7.11571 7.36569 6.96569C7.51572 6.81566 7.6 6.61217 7.6 6.4V2.7312ZM9.1072 17.7312C9.9552 17.7312 10.6368 17.92 11.1496 18.2968C11.6616 18.6744 11.9184 19.3664 11.9184 20.3728C11.9184 21.3648 11.6688 22.0608 11.1688 22.464C10.6688 22.8672 10.0208 23.0688 9.2248 23.0688H7.6V17.7312H9.1072ZM8.8808 18.6472V22.1528H9.3024C9.724 22.1528 10.044 22.0224 10.2624 21.7632C10.4816 21.504 10.5904 21.0408 10.5904 20.3728C10.5904 19.916 10.536 19.5616 10.4272 19.3104C10.3176 19.0584 10.1688 18.8848 9.9816 18.7904C9.7944 18.6944 9.5624 18.6472 9.2864 18.6472H8.8808ZM14.8704 17.6C15.6408 17.6 16.2408 17.844 16.6704 18.332C17.1 18.82 17.3144 19.508 17.3144 20.396C17.3144 20.9768 17.2168 21.4768 17.0216 21.8984C16.8264 22.3192 16.5456 22.6416 16.1784 22.8648C15.8112 23.0888 15.3752 23.2 14.8704 23.2C14.3656 23.2 13.9304 23.0896 13.5664 22.8688C13.1958 22.6414 12.903 22.3069 12.7264 21.9096C12.5312 21.4912 12.4336 20.9864 12.4336 20.396C12.4336 19.8208 12.5312 19.3232 12.7264 18.9016C12.9216 18.4808 13.2016 18.1584 13.5664 17.9352C13.9304 17.7112 14.3656 17.6 14.8704 17.6ZM14.8704 18.524C14.5008 18.524 14.2264 18.672 14.0464 18.9672C13.8672 19.2632 13.7768 19.7392 13.7768 20.396C13.7768 21.0536 13.868 21.5312 14.0504 21.8288C14.2328 22.1264 14.5064 22.276 14.8704 22.276C15.2448 22.276 15.5224 22.128 15.7024 21.8328C15.8816 21.5368 15.9712 21.0584 15.9712 20.396C15.9712 19.7336 15.88 19.256 15.6984 18.964C15.516 18.6704 15.24 18.524 14.8704 18.524ZM20.2896 17.6C20.628 17.6 20.9296 17.6488 21.192 17.7464C21.4544 17.844 21.704 17.9904 21.9376 18.1856L21.3288 18.9016C21.1672 18.7784 21.0088 18.6856 20.852 18.6248C20.6927 18.5625 20.523 18.531 20.352 18.532C19.988 18.532 19.7 18.684 19.4896 18.9864C19.2784 19.2896 19.1728 19.7568 19.1728 20.3888C19.1728 21.0096 19.2784 21.4704 19.4896 21.7712C19.7 22.0712 19.9936 22.2216 20.368 22.2216C20.5656 22.2216 20.7456 22.1848 20.9064 22.1096C21.068 22.0352 21.2424 21.9288 21.4296 21.7904L22 22.5144C21.7968 22.7144 21.5512 22.8792 21.2624 23.0072C20.9728 23.1352 20.6544 23.2 20.3056 23.2C19.8056 23.2 19.3712 23.092 19.0016 22.8768C18.632 22.6608 18.344 22.3408 18.1384 21.9168C17.9328 21.4936 17.8296 20.984 17.8296 20.3888C17.8296 19.808 17.9352 19.3072 18.1464 18.8864C18.3568 18.4656 18.6488 18.1456 19.0208 17.9272C19.3928 17.7088 19.816 17.6 20.2896 17.6Z" fill="#2892D7"/>
</svg>
