<svg width="8" height="14" viewBox="0 0 8 14" fill="none" xmlns="http://www.w3.org/2000/svg">
<path d="M5.33333 6.33334H2.66667C2.31304 6.33334 1.97391 6.19287 1.72386 5.94282C1.47381 5.69277 1.33333 5.35363 1.33333 5.00001C1.33333 4.64639 1.47381 4.30725 1.72386 4.0572C1.97391 3.80715 2.31304 3.66668 2.66667 3.66668H6C6.17681 3.66668 6.34638 3.73691 6.4714 3.86194C6.59643 3.98696 6.66667 4.15653 6.66667 4.33334C6.66667 4.51015 6.7369 4.67972 6.86193 4.80475C6.98695 4.92977 7.15652 5.00001 7.33333 5.00001C7.51014 5.00001 7.67971 4.92977 7.80474 4.80475C7.92976 4.67972 8 4.51015 8 4.33334C8 3.80291 7.78929 3.2942 7.41421 2.91913C7.03914 2.54406 6.53043 2.33334 6 2.33334H4.66667V1.00001C4.66667 0.823199 4.59643 0.65363 4.4714 0.528606C4.34638 0.403581 4.17681 0.333344 4 0.333344C3.82319 0.333344 3.65362 0.403581 3.5286 0.528606C3.40357 0.65363 3.33333 0.823199 3.33333 1.00001V2.33334H2.66667C1.95942 2.33334 1.28115 2.6143 0.781048 3.11439C0.280951 3.61449 0 4.29277 0 5.00001C0 5.70725 0.280951 6.38553 0.781048 6.88563C1.28115 7.38573 1.95942 7.66668 2.66667 7.66668H5.33333C5.68696 7.66668 6.02609 7.80715 6.27614 8.0572C6.52619 8.30725 6.66667 8.64639 6.66667 9.00001C6.66667 9.35363 6.52619 9.69277 6.27614 9.94282C6.02609 10.1929 5.68696 10.3333 5.33333 10.3333H2C1.82319 10.3333 1.65362 10.2631 1.5286 10.1381C1.40357 10.0131 1.33333 9.84349 1.33333 9.66668C1.33333 9.48987 1.2631 9.3203 1.13807 9.19527C1.01305 9.07025 0.843478 9.00001 0.666667 9.00001C0.489856 9.00001 0.320287 9.07025 0.195262 9.19527C0.070238 9.3203 0 9.48987 0 9.66668C0 10.1971 0.210714 10.7058 0.585787 11.0809C0.960859 11.456 1.46957 11.6667 2 11.6667H3.33333V13C3.33333 13.1768 3.40357 13.3464 3.5286 13.4714C3.65362 13.5964 3.82319 13.6667 4 13.6667C4.17681 13.6667 4.34638 13.5964 4.4714 13.4714C4.59643 13.3464 4.66667 13.1768 4.66667 13V11.6667H5.33333C6.04058 11.6667 6.71885 11.3857 7.21895 10.8856C7.71905 10.3855 8 9.70725 8 9.00001C8 8.29277 7.71905 7.61449 7.21895 7.11439C6.71885 6.6143 6.04058 6.33334 5.33333 6.33334Z" fill="#29B57A"/>
</svg>
