<svg width="14" height="14" viewBox="0 0 14 14" fill="none" xmlns="http://www.w3.org/2000/svg">
<path d="M2.33334 11.071H5.16001C5.24775 11.0716 5.33472 11.0547 5.41595 11.0216C5.49717 10.9884 5.57105 10.9395 5.63334 10.8777L10.2467 6.25771L12.14 4.40438C12.2025 4.3424 12.2521 4.26867 12.2859 4.18743C12.3198 4.10619 12.3372 4.01905 12.3372 3.93105C12.3372 3.84304 12.3198 3.7559 12.2859 3.67466C12.2521 3.59342 12.2025 3.51969 12.14 3.45771L9.31334 0.597712C9.25137 0.535226 9.17763 0.48563 9.0964 0.451784C9.01516 0.417938 8.92802 0.400513 8.84001 0.400513C8.752 0.400513 8.66487 0.417938 8.58363 0.451784C8.50239 0.48563 8.42865 0.535226 8.36668 0.597712L6.48668 2.48438L1.86001 7.10438C1.79822 7.16667 1.74934 7.24055 1.71616 7.32177C1.68299 7.403 1.66617 7.48997 1.66668 7.57771V10.4044C1.66668 10.5812 1.73691 10.7508 1.86194 10.8758C1.98696 11.0008 2.15653 11.071 2.33334 11.071ZM8.84001 2.01104L10.7267 3.89771L9.78001 4.84438L7.89334 2.95771L8.84001 2.01104ZM3.00001 7.85105L6.95334 3.89771L8.84001 5.78438L4.88668 9.73771H3.00001V7.85105ZM13 12.4044H1.00001C0.823199 12.4044 0.65363 12.4746 0.528606 12.5996C0.403581 12.7247 0.333344 12.8942 0.333344 13.071C0.333344 13.2479 0.403581 13.4174 0.528606 13.5424C0.65363 13.6675 0.823199 13.7377 1.00001 13.7377H13C13.1768 13.7377 13.3464 13.6675 13.4714 13.5424C13.5964 13.4174 13.6667 13.2479 13.6667 13.071C13.6667 12.8942 13.5964 12.7247 13.4714 12.5996C13.3464 12.4746 13.1768 12.4044 13 12.4044Z" fill="black"/>
</svg>
