<svg width="21" height="20" viewBox="0 0 21 20" fill="none" xmlns="http://www.w3.org/2000/svg">
<path d="M10.5 9C10.2348 9 9.98043 9.10536 9.7929 9.29289C9.60536 9.48043 9.5 9.73478 9.5 10V14C9.5 14.2652 9.60536 14.5196 9.7929 14.7071C9.98043 14.8946 10.2348 15 10.5 15C10.7652 15 11.0196 14.8946 11.2071 14.7071C11.3946 14.5196 11.5 14.2652 11.5 14V10C11.5 9.73478 11.3946 9.48043 11.2071 9.29289C11.0196 9.10536 10.7652 9 10.5 9ZM10.88 5.08C10.6365 4.97998 10.3635 4.97998 10.12 5.08C9.99725 5.12759 9.88511 5.19896 9.79 5.29C9.70167 5.3872 9.63065 5.49882 9.58 5.62C9.52402 5.73868 9.49662 5.86882 9.5 6C9.49924 6.13161 9.52447 6.26207 9.57423 6.38391C9.624 6.50574 9.69732 6.61656 9.79 6.71C9.88721 6.79833 9.99882 6.86936 10.12 6.92C10.2715 6.98224 10.436 7.00632 10.599 6.99011C10.7619 6.97391 10.9184 6.91792 11.0547 6.82707C11.191 6.73622 11.3029 6.61328 11.3805 6.46907C11.4582 6.32486 11.4992 6.16378 11.5 6C11.4963 5.73523 11.3927 5.48163 11.21 5.29C11.1149 5.19896 11.0028 5.12759 10.88 5.08ZM10.5 0C8.52219 0 6.58879 0.58649 4.9443 1.6853C3.29981 2.78412 2.01809 4.3459 1.26121 6.17317C0.504333 8.00043 0.306299 10.0111 0.692152 11.9509C1.078 13.8907 2.03041 15.6725 3.42894 17.0711C4.82746 18.4696 6.60929 19.422 8.5491 19.8079C10.4889 20.1937 12.4996 19.9957 14.3268 19.2388C16.1541 18.4819 17.7159 17.2002 18.8147 15.5557C19.9135 13.9112 20.5 11.9778 20.5 10C20.5 8.68678 20.2413 7.38642 19.7388 6.17317C19.2363 4.95991 18.4997 3.85752 17.5711 2.92893C16.6425 2.00035 15.5401 1.26375 14.3268 0.761205C13.1136 0.258658 11.8132 0 10.5 0ZM10.5 18C8.91775 18 7.37104 17.5308 6.05544 16.6518C4.73985 15.7727 3.71447 14.5233 3.10897 13.0615C2.50347 11.5997 2.34504 9.99113 2.65372 8.43928C2.9624 6.88743 3.72433 5.46197 4.84315 4.34315C5.96197 3.22433 7.38743 2.4624 8.93928 2.15372C10.4911 1.84504 12.0997 2.00346 13.5615 2.60896C15.0233 3.21447 16.2727 4.23984 17.1518 5.55544C18.0308 6.87103 18.5 8.41775 18.5 10C18.5 12.1217 17.6572 14.1566 16.1569 15.6569C14.6566 17.1571 12.6217 18 10.5 18Z" fill="#EF9D21"/>
</svg>
