<svg width="15" height="12" viewBox="0 0 15 12" fill="none" xmlns="http://www.w3.org/2000/svg">
<path d="M1.50001 6H5.50001C5.67682 6 5.84639 5.92976 5.97141 5.80474C6.09644 5.67971 6.16668 5.51014 6.16668 5.33333V1.33333C6.16668 1.15652 6.09644 0.986953 5.97141 0.861928C5.84639 0.736904 5.67682 0.666666 5.50001 0.666666H1.50001C1.3232 0.666666 1.15363 0.736904 1.02861 0.861928C0.903581 0.986953 0.833344 1.15652 0.833344 1.33333V5.33333C0.833344 5.51014 0.903581 5.67971 1.02861 5.80474C1.15363 5.92976 1.3232 6 1.50001 6ZM2.16668 2H4.83334V4.66667H2.16668V2ZM8.16668 3.33333H13.5C13.6768 3.33333 13.8464 3.26309 13.9714 3.13807C14.0964 3.01305 14.1667 2.84348 14.1667 2.66667C14.1667 2.48985 14.0964 2.32029 13.9714 2.19526C13.8464 2.07024 13.6768 2 13.5 2H8.16668C7.98987 2 7.8203 2.07024 7.69527 2.19526C7.57025 2.32029 7.50001 2.48985 7.50001 2.66667C7.50001 2.84348 7.57025 3.01305 7.69527 3.13807C7.8203 3.26309 7.98987 3.33333 8.16668 3.33333V3.33333ZM8.16668 10H1.50001C1.3232 10 1.15363 10.0702 1.02861 10.1953C0.903581 10.3203 0.833344 10.4899 0.833344 10.6667C0.833344 10.8435 0.903581 11.013 1.02861 11.1381C1.15363 11.2631 1.3232 11.3333 1.50001 11.3333H8.16668C8.34349 11.3333 8.51306 11.2631 8.63808 11.1381C8.76311 11.013 8.83334 10.8435 8.83334 10.6667C8.83334 10.4899 8.76311 10.3203 8.63808 10.1953C8.51306 10.0702 8.34349 10 8.16668 10ZM13.5 7.33333H1.50001C1.3232 7.33333 1.15363 7.40357 1.02861 7.52859C0.903581 7.65362 0.833344 7.82319 0.833344 8C0.833344 8.17681 0.903581 8.34638 1.02861 8.4714C1.15363 8.59643 1.3232 8.66667 1.50001 8.66667H13.5C13.6768 8.66667 13.8464 8.59643 13.9714 8.4714C14.0964 8.34638 14.1667 8.17681 14.1667 8C14.1667 7.82319 14.0964 7.65362 13.9714 7.52859C13.8464 7.40357 13.6768 7.33333 13.5 7.33333ZM13.5 4.66667H8.16668C7.98987 4.66667 7.8203 4.7369 7.69527 4.86193C7.57025 4.98695 7.50001 5.15652 7.50001 5.33333C7.50001 5.51014 7.57025 5.67971 7.69527 5.80474C7.8203 5.92976 7.98987 6 8.16668 6H13.5C13.6768 6 13.8464 5.92976 13.9714 5.80474C14.0964 5.67971 14.1667 5.51014 14.1667 5.33333C14.1667 5.15652 14.0964 4.98695 13.9714 4.86193C13.8464 4.7369 13.6768 4.66667 13.5 4.66667Z" fill="#212121"/>
</svg>
