
<svg width="14" height="14" viewBox="0 0 14 14" fill="none" xmlns="http://www.w3.org/2000/svg">
<path d="M11.6667 0.333334H2.33337C1.80294 0.333334 1.29423 0.544048 0.919161 0.91912C0.544088 1.29419 0.333374 1.8029 0.333374 2.33333V3.11333C0.333279 3.38863 0.390018 3.66098 0.500041 3.91333V3.95333C0.594227 4.16731 0.727636 4.36177 0.893374 4.52667L5.00004 8.60667V13C4.99981 13.1133 5.02846 13.2248 5.08329 13.3239C5.13811 13.4231 5.2173 13.5066 5.31337 13.5667C5.41947 13.6324 5.54189 13.6671 5.66671 13.6667C5.77107 13.666 5.87383 13.6409 5.96671 13.5933L8.63337 12.26C8.74332 12.2046 8.83577 12.1198 8.90049 12.0151C8.96521 11.9104 8.99967 11.7898 9.00004 11.6667V8.60667L13.08 4.52667C13.2458 4.36177 13.3792 4.16731 13.4734 3.95333V3.91333C13.5926 3.66295 13.6584 3.39052 13.6667 3.11333V2.33333C13.6667 1.8029 13.456 1.29419 13.0809 0.91912C12.7058 0.544048 12.1971 0.333334 11.6667 0.333334ZM7.86004 7.86C7.79825 7.92229 7.74937 7.99617 7.71619 8.0774C7.68302 8.15862 7.6662 8.2456 7.66671 8.33333V11.2533L6.33337 11.92V8.33333C6.33388 8.2456 6.31706 8.15862 6.28389 8.0774C6.25071 7.99617 6.20183 7.92229 6.14004 7.86L2.60671 4.33333H11.3934L7.86004 7.86ZM12.3334 3H1.66671V2.33333C1.66671 2.15652 1.73695 1.98695 1.86197 1.86193C1.98699 1.73691 2.15656 1.66667 2.33337 1.66667H11.6667C11.8435 1.66667 12.0131 1.73691 12.1381 1.86193C12.2631 1.98695 12.3334 2.15652 12.3334 2.33333V3Z" fill="white"/>
</svg>
