<svg width="20" height="20" viewBox="0 0 20 20" fill="none" xmlns="http://www.w3.org/2000/svg">
<path d="M19.6422 8.9816H3.96986L13.3502 0.838745C13.5002 0.707495 13.4091 0.463745 13.2109 0.463745H10.8404C10.7359 0.463745 10.6368 0.501245 10.5591 0.568209L0.436827 9.35124C0.344119 9.43161 0.269767 9.53096 0.218809 9.64256C0.167852 9.75417 0.141479 9.87543 0.141479 9.99812C0.141479 10.1208 0.167852 10.2421 0.218809 10.3537C0.269767 10.4653 0.344119 10.5646 0.436827 10.645L10.6181 19.4816C10.6583 19.5164 10.7065 19.5352 10.7574 19.5352H13.2083C13.4065 19.5352 13.4975 19.2887 13.3475 19.1602L3.96986 11.0173H19.6422C19.76 11.0173 19.8565 10.9209 19.8565 10.803V9.19589C19.8565 9.07803 19.76 8.9816 19.6422 8.9816Z" fill="black" fill-opacity="0.85"/>
</svg>
