<svg width="14" height="14" viewBox="0 0 14 14" fill="none" xmlns="http://www.w3.org/2000/svg">
<path d="M9.47333 7.47333C10.1269 6.95911 10.604 6.25395 10.8382 5.45596C11.0723 4.65798 11.0519 3.80684 10.7799 3.02098C10.5078 2.23511 9.9975 1.5536 9.32005 1.07124C8.64259 0.58888 7.83163 0.32967 7 0.32967C6.16836 0.32967 5.35741 0.58888 4.67995 1.07124C4.0025 1.5536 3.49223 2.23511 3.22014 3.02098C2.94805 3.80684 2.92767 4.65798 3.16184 5.45596C3.396 6.25395 3.87307 6.95911 4.52666 7.47333C3.40672 7.92203 2.42952 8.66623 1.69926 9.62661C0.968997 10.587 0.51304 11.7275 0.379998 12.9267C0.370368 13.0142 0.378075 13.1028 0.402681 13.1874C0.427287 13.2719 0.468309 13.3508 0.523405 13.4196C0.634677 13.5583 0.79652 13.6472 0.973331 13.6667C1.15014 13.6861 1.32744 13.6345 1.46621 13.5233C1.60499 13.412 1.69388 13.2501 1.71333 13.0733C1.85972 11.7701 2.48112 10.5665 3.45881 9.69253C4.4365 8.81852 5.70193 8.33535 7.01333 8.33535C8.32473 8.33535 9.59016 8.81852 10.5679 9.69253C11.5455 10.5665 12.1669 11.7701 12.3133 13.0733C12.3315 13.2371 12.4096 13.3884 12.5327 13.498C12.6559 13.6076 12.8152 13.6677 12.98 13.6667H13.0533C13.2281 13.6466 13.3878 13.5582 13.4977 13.4208C13.6076 13.2835 13.6587 13.1082 13.64 12.9333C13.5063 11.7308 13.0479 10.5873 12.3139 9.62547C11.5799 8.66362 10.5979 7.91965 9.47333 7.47333V7.47333ZM7 7C6.47258 7 5.95701 6.8436 5.51848 6.55059C5.07995 6.25757 4.73815 5.84109 4.53632 5.35382C4.33449 4.86655 4.28168 4.33038 4.38457 3.81309C4.48746 3.29581 4.74144 2.82066 5.11438 2.44772C5.48732 2.07478 5.96248 1.8208 6.47976 1.71791C6.99704 1.61501 7.53322 1.66782 8.02049 1.86966C8.50776 2.07149 8.92423 2.41328 9.21725 2.85181C9.51027 3.29034 9.66667 3.80592 9.66667 4.33333C9.66667 5.04058 9.38571 5.71886 8.88562 6.21895C8.38552 6.71905 7.70724 7 7 7Z" fill="#212121"/>
</svg>
