<svg width="8" height="8" viewBox="0 0 8 8" fill="none" xmlns="http://www.w3.org/2000/svg">
<path d="M7.23665 0.763394C7.20566 0.732152 7.16879 0.707353 7.12817 0.690431C7.08755 0.673508 7.04398 0.664795 6.99998 0.664795C6.95598 0.664795 6.91241 0.673508 6.87179 0.690431C6.83117 0.707353 6.7943 0.732152 6.76331 0.763394L6.05665 1.47006L5.81998 1.23673C5.75753 1.17464 5.67304 1.1398 5.58498 1.1398C5.49692 1.1398 5.41243 1.17464 5.34998 1.23673L4.87998 1.70673L4.64331 1.47006C4.61233 1.43882 4.57546 1.41402 4.53484 1.3971C4.49422 1.38017 4.45065 1.37146 4.40665 1.37146C4.36264 1.37146 4.31907 1.38017 4.27845 1.3971C4.23784 1.41402 4.20097 1.43882 4.16998 1.47006L1.57998 4.06339L1.33331 3.83006C1.26862 3.78485 1.18997 3.76406 1.11138 3.77139C1.03279 3.77873 0.959354 3.81372 0.904144 3.87013C0.848934 3.92654 0.815533 4.00071 0.809887 4.07944C0.804242 4.15817 0.826717 4.23635 0.873314 4.30006L2.04998 5.48006L1.47331 6.06006L1.23665 5.82006C1.17388 5.75729 1.08875 5.72203 0.99998 5.72203C0.911213 5.72203 0.826082 5.75729 0.763314 5.82006C0.700546 5.88283 0.665283 5.96796 0.665283 6.05673C0.665283 6.14549 0.700546 6.23063 0.763314 6.29339L1.70665 7.23673C1.73779 7.26762 1.77473 7.29206 1.81535 7.30865C1.85596 7.32524 1.89944 7.33365 1.94331 7.33339C1.98718 7.33365 2.03067 7.32524 2.07128 7.30865C2.1119 7.29206 2.14883 7.26762 2.17998 7.23673C2.21122 7.20574 2.23602 7.16887 2.25294 7.12825C2.26987 7.08763 2.27858 7.04406 2.27858 7.00006C2.27858 6.95606 2.26987 6.91249 2.25294 6.87187C2.23602 6.83125 2.21122 6.79438 2.17998 6.76339L1.94331 6.53006L2.52331 5.95006L3.69998 7.12673C3.73085 7.15822 3.76767 7.18328 3.80829 7.20045C3.84892 7.21761 3.89254 7.22654 3.93665 7.22673C4.00257 7.22645 4.06693 7.20663 4.12159 7.16978C4.17626 7.13292 4.21876 7.08069 4.24374 7.01968C4.26871 6.95867 4.27503 6.89162 4.26191 6.82702C4.24878 6.76241 4.21679 6.70315 4.16998 6.65673L3.93665 6.42006L6.52998 3.83006C6.56122 3.79907 6.58602 3.76221 6.60294 3.72159C6.61987 3.68097 6.62858 3.6374 6.62858 3.59339C6.62858 3.54939 6.61987 3.50582 6.60294 3.4652C6.58602 3.42458 6.56122 3.38772 6.52998 3.35673L6.29331 3.12006L6.76331 2.66673C6.8254 2.60427 6.86024 2.51979 6.86024 2.43173C6.86024 2.34367 6.8254 2.25918 6.76331 2.19673L6.52998 1.96006L7.23665 1.25339C7.27048 1.22218 7.29748 1.1843 7.31595 1.14213C7.33442 1.09996 7.34396 1.05443 7.34396 1.00839C7.34396 0.96236 7.33442 0.916826 7.31595 0.874659C7.29748 0.832492 7.27048 0.794608 7.23665 0.763394ZM2.52331 5.00006L2.04998 4.53673L2.51998 4.06339L2.99998 4.53673L2.52331 5.00006ZM3.46331 5.94339L2.99998 5.48006L3.46331 5.00006L3.93665 5.47339L3.46331 5.94339ZM4.40665 5.00006L2.99998 3.59339L4.41331 2.18006L4.64998 2.41339L5.82665 3.59339L4.40665 5.00006ZM5.81998 2.66673L5.34998 2.18006L5.58665 1.94339L5.81998 2.17673L6.05331 2.41006L5.81998 2.66673Z" fill="#D9ECDA"/>
</svg>
