<svg width="14" height="14" viewBox="0 0 14 14" fill="none" xmlns="http://www.w3.org/2000/svg">
<path d="M6.83326 0.404411C5.54768 0.404411 4.29097 0.78563 3.22205 1.49986C2.15313 2.21409 1.32001 3.22925 0.828038 4.41697C0.336068 5.60469 0.207347 6.91162 0.458151 8.1725C0.708955 9.43337 1.32802 10.5916 2.23706 11.5006C3.1461 12.4096 4.30429 13.0287 5.56517 13.2795C6.82604 13.5303 8.13298 13.4016 9.3207 12.9096C10.5084 12.4177 11.5236 11.5845 12.2378 10.5156C12.952 9.4467 13.3333 8.18999 13.3333 6.90441C13.3313 5.1811 12.6459 3.52894 11.4273 2.31037C10.2087 1.09181 8.55656 0.406362 6.83326 0.404411ZM6.83329 10.9044C6.68495 10.9044 6.53995 10.8604 6.41661 10.778C6.29327 10.6956 6.19714 10.5785 6.14038 10.4414C6.08361 10.3044 6.06876 10.1536 6.0977 10.0081C6.12664 9.86263 6.19807 9.72899 6.30296 9.6241C6.40785 9.51922 6.54149 9.44778 6.68697 9.41885C6.83246 9.38991 6.98326 9.40476 7.1203 9.46152C7.25735 9.51829 7.37448 9.61442 7.45689 9.73776C7.5393 9.86109 7.58329 10.0061 7.58329 10.1544C7.58329 10.3533 7.50427 10.5441 7.36362 10.6848C7.22297 10.8254 7.0322 10.9044 6.83329 10.9044ZM7.33326 7.84875V7.90472C7.33326 8.03732 7.28058 8.1645 7.18681 8.25827C7.09304 8.35204 6.96587 8.40472 6.83326 8.40472C6.70065 8.40472 6.57347 8.35204 6.4797 8.25827C6.38594 8.1645 6.33326 8.03732 6.33326 7.90472V7.40472C6.33326 7.27211 6.38595 7.14494 6.47971 7.05117C6.57348 6.9574 6.70065 6.90472 6.83326 6.90472C7.08048 6.90472 7.32216 6.83141 7.52772 6.69405C7.73328 6.5567 7.8935 6.36148 7.98811 6.13307C8.08272 5.90466 8.10747 5.65333 8.05924 5.41085C8.01101 5.16838 7.89196 4.94565 7.71714 4.77083C7.54233 4.59602 7.3196 4.47697 7.07712 4.42873C6.83464 4.3805 6.58331 4.40526 6.3549 4.49987C6.1265 4.59448 5.93127 4.75469 5.79392 4.96025C5.65657 5.16582 5.58326 5.40749 5.58326 5.65472C5.58326 5.78732 5.53058 5.9145 5.43681 6.00827C5.34304 6.10204 5.21587 6.15472 5.08326 6.15472C4.95065 6.15472 4.82347 6.10204 4.7297 6.00827C4.63594 5.9145 4.58326 5.78732 4.58326 5.65472C4.58331 5.23117 4.70292 4.81624 4.92831 4.45765C5.1537 4.09905 5.47574 3.81136 5.85737 3.62766C6.239 3.44395 6.66474 3.3717 7.08561 3.4192C7.50649 3.46671 7.90541 3.63204 8.23649 3.89619C8.56758 4.16034 8.81738 4.51257 8.95717 4.91239C9.09697 5.3122 9.12107 5.74335 9.02671 6.15625C8.93236 6.56916 8.72337 6.94704 8.4238 7.24645C8.12422 7.54586 7.74621 7.75462 7.33326 7.84875Z" fill="black"/>
</svg>
