<svg width="9" height="8" viewBox="0 0 9 8" fill="none" xmlns="http://www.w3.org/2000/svg">
<path fill-rule="evenodd" clip-rule="evenodd" d="M2.95555 0.399809C2.33547 0.427806 1.79802 0.579513 1.36404 1.01196C0.928541 1.44668 0.778822 1.98663 0.750774 2.60069C0.733339 2.98395 0.631387 5.87942 0.927025 6.63876C1.12639 7.15104 1.51905 7.54492 2.03566 7.74506C2.27672 7.83889 2.55189 7.9024 2.95555 7.92094C6.33075 8.0738 7.5819 7.99058 8.1095 6.63876C8.20312 6.39813 8.26756 6.123 8.28537 5.72007C8.43963 2.33388 8.26036 1.59991 7.67212 1.01196C7.20554 0.546217 6.65671 0.229176 2.95555 0.399809ZM2.98663 7.23993C2.61708 7.22328 2.41658 7.16166 2.28278 7.10983C1.94621 6.97892 1.6934 6.72699 1.5634 6.39215C1.33826 5.81517 1.41293 3.07482 1.43302 2.6314C1.45273 2.19705 1.54066 1.8001 1.84691 1.49364C2.22593 1.11529 2.71563 0.929869 6.04989 1.08045C6.48501 1.10012 6.88261 1.18794 7.18962 1.49364C7.56864 1.87198 7.75663 2.36578 7.60351 5.68954C7.58683 6.05843 7.52505 6.25859 7.47313 6.39215C7.13011 7.2718 6.34098 7.39391 2.98663 7.23993ZM6.08666 2.1406C6.08666 2.39106 6.2902 2.59473 6.54149 2.59473C6.79278 2.59473 6.9967 2.39106 6.9967 2.1406C6.9967 1.89013 6.79278 1.68665 6.54149 1.68665C6.2902 1.68665 6.08666 1.89013 6.08666 2.1406ZM2.57198 4.16019C2.57198 5.23318 3.44336 6.1031 4.51826 6.1031C5.59317 6.1031 6.46455 5.23318 6.46455 4.16019C6.46455 3.08721 5.59317 2.21784 4.51826 2.21784C3.44336 2.21784 2.57198 3.08721 2.57198 4.16019ZM3.25498 4.16019C3.25498 3.46404 3.82048 2.89922 4.51826 2.89922C5.21605 2.89922 5.78155 3.46404 5.78155 4.16019C5.78155 4.85672 5.21605 5.42172 4.51826 5.42172C3.82048 5.42172 3.25498 4.85672 3.25498 4.16019Z" fill="#616161"/>
</svg>
