<svg width="15" height="14" viewBox="0 0 15 14" fill="none" xmlns="http://www.w3.org/2000/svg">
<path d="M7.57333 9.25999L4.98666 11.8467C4.83367 12.0003 4.65186 12.1221 4.45165 12.2053C4.25145 12.2884 4.03679 12.3313 3.82 12.3313C3.60321 12.3313 3.38855 12.2884 3.18834 12.2053C2.98814 12.1221 2.80632 12.0003 2.65333 11.8467C2.49893 11.6941 2.37635 11.5125 2.29268 11.3122C2.20901 11.1119 2.16593 10.897 2.16593 10.68C2.16593 10.463 2.20901 10.2481 2.29268 10.0478C2.37635 9.84753 2.49893 9.66586 2.65333 9.51333L5.24 6.92666C5.36553 6.80112 5.43606 6.63086 5.43606 6.45333C5.43606 6.27579 5.36553 6.10553 5.24 5.97999C5.11446 5.85446 4.9442 5.78393 4.76666 5.78393C4.58913 5.78393 4.41887 5.85446 4.29333 5.97999L1.70666 8.57333C1.18557 9.14052 0.903745 9.8871 0.920048 10.6572C0.936351 11.4272 1.24952 12.1612 1.79415 12.7058C2.33879 13.2505 3.07277 13.5636 3.84283 13.5799C4.61289 13.5962 5.35947 13.3144 5.92666 12.7933L8.52 10.2067C8.64553 10.0811 8.71606 9.91086 8.71606 9.73333C8.71606 9.55579 8.64553 9.38553 8.52 9.25999C8.39446 9.13446 8.2242 9.06393 8.04666 9.06393C7.86913 9.06393 7.69887 9.13446 7.57333 9.25999ZM5.38666 9.11333C5.44896 9.17511 5.52284 9.224 5.60406 9.25717C5.68529 9.29035 5.77226 9.30717 5.86 9.30666C5.94774 9.30717 6.03471 9.29035 6.11594 9.25717C6.19716 9.224 6.27104 9.17511 6.33333 9.11333L9.61333 5.83333C9.73887 5.70779 9.80939 5.53753 9.80939 5.35999C9.80939 5.18246 9.73887 5.01219 9.61333 4.88666C9.4878 4.76112 9.31753 4.6906 9.14 4.6906C8.96246 4.6906 8.7922 4.76112 8.66667 4.88666L5.38666 8.16666C5.32418 8.22863 5.27458 8.30237 5.24074 8.38361C5.20689 8.46485 5.18947 8.55198 5.18947 8.63999C5.18947 8.728 5.20689 8.81514 5.24074 8.89638C5.27458 8.97762 5.32418 9.05135 5.38666 9.11333ZM13.5 11H12.8333V10.3333C12.8333 10.1565 12.7631 9.98695 12.6381 9.86192C12.513 9.7369 12.3435 9.66666 12.1667 9.66666C11.9899 9.66666 11.8203 9.7369 11.6953 9.86192C11.5702 9.98695 11.5 10.1565 11.5 10.3333V11H10.8333C10.6565 11 10.487 11.0702 10.3619 11.1953C10.2369 11.3203 10.1667 11.4898 10.1667 11.6667C10.1667 11.8435 10.2369 12.013 10.3619 12.1381C10.487 12.2631 10.6565 12.3333 10.8333 12.3333H11.5V13C11.5 13.1768 11.5702 13.3464 11.6953 13.4714C11.8203 13.5964 11.9899 13.6667 12.1667 13.6667C12.3435 13.6667 12.513 13.5964 12.6381 13.4714C12.7631 13.3464 12.8333 13.1768 12.8333 13V12.3333H13.5C13.6768 12.3333 13.8464 12.2631 13.9714 12.1381C14.0964 12.013 14.1667 11.8435 14.1667 11.6667C14.1667 11.4898 14.0964 11.3203 13.9714 11.1953C13.8464 11.0702 13.6768 11 13.5 11ZM10.7067 8.01999L13.2933 5.42666C13.8144 4.85946 14.0962 4.11288 14.0799 3.34282C14.0636 2.57277 13.7505 1.83878 13.2058 1.29415C12.6612 0.749514 11.9272 0.436345 11.1572 0.420042C10.3871 0.40374 9.64053 0.685564 9.07333 1.20666L6.48 3.79333C6.41784 3.85548 6.36853 3.92928 6.33489 4.01049C6.30125 4.09171 6.28394 4.17875 6.28394 4.26666C6.28394 4.35457 6.30125 4.44161 6.33489 4.52283C6.36853 4.60404 6.41784 4.67783 6.48 4.73999C6.54216 4.80215 6.61595 4.85146 6.69717 4.8851C6.77838 4.91874 6.86543 4.93605 6.95333 4.93605C7.04124 4.93605 7.12828 4.91874 7.2095 4.8851C7.29071 4.85146 7.36451 4.80215 7.42667 4.73999L10.0133 2.15333C10.1663 1.99973 10.3481 1.87785 10.5483 1.79469C10.7486 1.71153 10.9632 1.66873 11.18 1.66873C11.3968 1.66873 11.6114 1.71153 11.8117 1.79469C12.0119 1.87785 12.1937 1.99973 12.3467 2.15333C12.5011 2.30586 12.6236 2.48753 12.7073 2.6878C12.791 2.88807 12.8341 3.10295 12.8341 3.31999C12.8341 3.53703 12.791 3.75192 12.7073 3.95218C12.6236 4.15245 12.5011 4.33412 12.3467 4.48666L9.76 7.07333C9.69751 7.1353 9.64792 7.20904 9.61407 7.29028C9.58022 7.37151 9.5628 7.45865 9.5628 7.54666C9.5628 7.63467 9.58022 7.7218 9.61407 7.80304C9.64792 7.88428 9.69751 7.95802 9.76 8.01999C9.82197 8.08248 9.89571 8.13207 9.97695 8.16592C10.0582 8.19977 10.1453 8.21719 10.2333 8.21719C10.3213 8.21719 10.4085 8.19977 10.4897 8.16592C10.571 8.13207 10.6447 8.08248 10.7067 8.01999Z" fill="#212121"/>
</svg>
