<svg width="189" height="120" viewBox="0 0 189 120" fill="none" xmlns="http://www.w3.org/2000/svg">
<path d="M161.358 47.1283H161.312L135.005 58.3615L99.0112 73.7311C98.8706 73.7902 98.7197 73.8211 98.5671 73.8219C98.4145 73.8226 98.2633 73.7933 98.122 73.7356L60.9873 58.3294L34.0339 47.1466L33.9927 47.1283H33.9469C33.5216 47.1288 33.1139 47.2979 32.8131 47.5986C32.5124 47.8994 32.3432 48.3071 32.3428 48.7324V118.396C32.3432 118.821 32.5124 119.229 32.8131 119.53C33.1139 119.83 33.5216 120 33.9469 120H161.358C161.783 120 162.191 119.83 162.491 119.53C162.792 119.229 162.961 118.821 162.962 118.396V48.7324C162.961 48.3071 162.792 47.8994 162.491 47.5986C162.191 47.2979 161.783 47.1288 161.358 47.1283Z" fill="white"/>
<path d="M161.473 47.5867C161.426 47.5867 161.38 47.5724 161.342 47.5456L97.9665 3.40931C97.7736 3.27562 97.5445 3.20417 97.3098 3.20457C97.0751 3.20497 96.8462 3.2772 96.6538 3.41154L33.7351 47.5452C33.6853 47.5798 33.6239 47.5933 33.5641 47.5827C33.5044 47.5721 33.4514 47.5383 33.4165 47.4886C33.3817 47.439 33.368 47.3776 33.3784 47.3178C33.3888 47.2581 33.4224 47.2049 33.4719 47.1699L96.3906 3.03627C96.66 2.84822 96.9805 2.74712 97.3091 2.74658C97.6376 2.74604 97.9584 2.84608 98.2284 3.03325L161.604 47.1694C161.644 47.1973 161.674 47.2373 161.69 47.2835C161.705 47.3296 161.706 47.3796 161.691 47.4262C161.677 47.4728 161.648 47.5134 161.608 47.5423C161.569 47.5711 161.521 47.5867 161.472 47.5867H161.473Z" fill="#3F3D56"/>
<path d="M37.3311 49.1513L97.3725 4.65308L157.87 52.3175L100.466 86.347L69.301 79.2435L37.3311 49.1513Z" fill="#E6E6E6"/>
<path d="M71.9313 107.366H42.2692C41.9017 107.366 41.549 107.221 41.2887 106.961C41.0284 106.702 40.8819 106.35 40.8813 105.982C40.8808 105.615 41.0263 105.262 41.2858 105.002C41.5453 104.741 41.8976 104.595 42.2651 104.594H71.9313C72.2988 104.594 72.6515 104.739 72.9118 104.999C73.172 105.258 73.3186 105.61 73.3191 105.978C73.3196 106.346 73.1742 106.698 72.9147 106.958C72.6552 107.219 72.3029 107.365 71.9353 107.366H71.9313Z" fill="#2892D7"/>
<path d="M52.9118 101.408H42.2697C41.9023 101.408 41.5499 101.263 41.2898 101.003C41.0297 100.744 40.8834 100.391 40.8828 100.024C40.8823 99.6567 41.0276 99.3041 41.2869 99.0439C41.5462 98.7837 41.8982 98.637 42.2656 98.6362H52.9118C53.0938 98.6358 53.2742 98.6713 53.4425 98.7407C53.6109 98.81 53.7639 98.9118 53.8929 99.0403C54.0219 99.1688 54.1243 99.3215 54.1942 99.4896C54.2642 99.6577 54.3003 99.8379 54.3006 100.02C54.3009 100.202 54.2652 100.382 54.1958 100.551C54.1263 100.719 54.0244 100.872 53.8958 101.001C53.7672 101.13 53.6145 101.232 53.4463 101.302C53.2782 101.372 53.098 101.408 52.9159 101.408H52.9118Z" fill="#2892D7"/>
<path d="M98.2163 73.9361C97.9909 73.9363 97.7675 73.8926 97.5588 73.8073L60.5293 58.4427V10.3487C60.5298 9.92344 60.699 9.51572 60.9997 9.21501C61.3004 8.91429 61.7081 8.74513 62.1334 8.74463H133.172C133.597 8.74513 134.005 8.91429 134.306 9.21501C134.606 9.51572 134.775 9.92344 134.776 10.3487V58.4762L134.706 58.506L98.8937 73.7998C98.6792 73.8899 98.4489 73.9363 98.2163 73.9361Z" fill="white"/>
<path d="M98.2166 74.0507C97.9762 74.0509 97.7381 74.0043 97.5155 73.9135L60.415 58.5193V10.3488C60.4156 9.89313 60.5968 9.45628 60.919 9.13408C61.2412 8.81188 61.6781 8.63064 62.1337 8.63013H133.172C133.628 8.63064 134.065 8.81188 134.387 9.13408C134.709 9.45628 134.89 9.89313 134.891 10.3488V58.552L98.939 73.9052C98.7103 74.0014 98.4647 74.0509 98.2166 74.0507ZM60.8733 58.2131L97.6903 73.4898C98.0337 73.6291 98.4183 73.6268 98.76 73.4834L134.433 58.2494V10.3488C134.432 10.0147 134.299 9.69431 134.063 9.45804C133.827 9.22176 133.506 9.08886 133.172 9.08846H62.1337C61.7996 9.08886 61.4792 9.22176 61.243 9.45804C61.0067 9.69431 60.8738 10.0147 60.8734 10.3488L60.8733 58.2131Z" fill="#3F3D56"/>
<path d="M161.015 47.1283H160.969L134.662 58.3615L98.6684 73.7311C98.5278 73.7902 98.3769 73.8211 98.2243 73.8219C98.0717 73.8226 97.9205 73.7933 97.7792 73.7356L60.6445 58.3294L33.6912 47.1466L33.65 47.1283H33.6041C33.1788 47.1288 32.7711 47.2979 32.4704 47.5986C32.1696 47.8994 32.0005 48.3071 32 48.7324V118.396C32.0005 118.821 32.1696 119.229 32.4704 119.53C32.7711 119.83 33.1788 120 33.6041 120H161.015C161.44 120 161.848 119.83 162.149 119.53C162.449 119.229 162.619 118.821 162.619 118.396V48.7324C162.619 48.3071 162.449 47.8994 162.149 47.5986C161.848 47.2979 161.44 47.1288 161.015 47.1283ZM162.161 118.396C162.161 118.7 162.04 118.991 161.825 119.206C161.61 119.421 161.319 119.542 161.015 119.542H33.6041C33.3002 119.542 33.0089 119.421 32.794 119.206C32.5792 118.991 32.4584 118.7 32.4583 118.396V48.7324C32.4587 48.4361 32.5736 48.1514 32.7791 47.9379C32.9845 47.7244 33.2645 47.5985 33.5606 47.5866L60.6445 58.8244L97.6029 74.1596C98.003 74.3223 98.4513 74.3199 98.8495 74.1527L134.662 58.8588L161.061 47.5866C161.356 47.5994 161.636 47.7256 161.84 47.939C162.045 48.1524 162.16 48.4366 162.161 48.7324V118.396Z" fill="#3F3D56"/>
<path d="M92.4524 26.7223H67.2452C66.7595 26.7216 66.2938 26.5281 65.9506 26.1844C65.6074 25.8407 65.4146 25.3748 65.4146 24.889C65.4146 24.4033 65.6074 23.9374 65.9506 23.5936C66.2938 23.2499 66.7595 23.0565 67.2452 23.0558H92.4524C92.9382 23.0565 93.4038 23.2499 93.747 23.5936C94.0903 23.9374 94.2831 24.4033 94.2831 24.889C94.2831 25.3748 94.0903 25.8407 93.747 26.1844C93.4038 26.5281 92.9382 26.7216 92.4524 26.7223Z" fill="#2892D7"/>
<path d="M79.3897 18.931H67.2444C66.7582 18.931 66.2919 18.7379 65.9481 18.3941C65.6043 18.0503 65.4111 17.584 65.4111 17.0978C65.4111 16.6116 65.6043 16.1453 65.9481 15.8015C66.2919 15.4577 66.7582 15.2645 67.2444 15.2645H79.3897C79.8759 15.2645 80.3422 15.4577 80.686 15.8015C81.0298 16.1453 81.2229 16.6116 81.2229 17.0978C81.2229 17.584 81.0298 18.0503 80.686 18.3941C80.3422 18.7379 79.8759 18.931 79.3897 18.931Z" fill="#2892D7"/>
<path d="M116.506 45.0548H78.0079C77.5221 45.0541 77.0565 44.8607 76.7133 44.5169C76.37 44.1732 76.1772 43.7073 76.1772 43.2216C76.1772 42.7358 76.37 42.2699 76.7133 41.9262C77.0565 41.5824 77.5221 41.389 78.0079 41.3883H116.506C116.992 41.389 117.458 41.5824 117.801 41.9262C118.144 42.2699 118.337 42.7358 118.337 43.2216C118.337 43.7073 118.144 44.1732 117.801 44.5169C117.458 44.8607 116.992 45.0541 116.506 45.0548Z" fill="#CCCCCC"/>
<path d="M116.506 53.5336H78.008C77.5218 53.5336 77.0556 53.3404 76.7118 52.9966C76.368 52.6528 76.1748 52.1865 76.1748 51.7003C76.1748 51.2141 76.368 50.7478 76.7118 50.404C77.0556 50.0602 77.5218 49.8671 78.008 49.8671H116.506C116.993 49.8671 117.459 50.0602 117.803 50.404C118.146 50.7478 118.34 51.2141 118.34 51.7003C118.34 52.1865 118.146 52.6528 117.803 52.9966C117.459 53.3404 116.993 53.5336 116.506 53.5336Z" fill="#CCCCCC"/>
<path d="M156.228 65.2245C165.856 65.2245 173.66 57.42 173.66 47.7927C173.66 38.1653 165.856 30.3608 156.228 30.3608C146.601 30.3608 138.796 38.1653 138.796 47.7927C138.796 57.42 146.601 65.2245 156.228 65.2245Z" fill="#2892D7"/>
<path d="M154.567 55.1512L149.35 48.4425L152.384 46.0827L154.854 49.2591L163.199 40.4492L165.99 43.0932L154.567 55.1512Z" fill="white"/>
<path d="M19.818 0.10236C19.699 0.0320206 19.5626 -0.00336552 19.4244 0.000252051C19.2863 0.00386962 19.1519 0.0463461 19.0367 0.122816C18.9216 0.199285 18.8303 0.306649 18.7734 0.432604C18.7165 0.55856 18.6962 0.698011 18.7149 0.834967L19.283 5.00175C19.2908 5.06319 19.2866 5.12556 19.2706 5.18539C19.2528 5.2443 19.2231 5.29892 19.1833 5.34586L16.0014 9.11534C15.8951 9.23667 15.8327 9.39021 15.8242 9.5513C15.8157 9.71238 15.8617 9.87164 15.9546 10.0035L15.958 10.0083C16.047 10.1416 16.1781 10.2412 16.3303 10.2913C16.4825 10.3415 16.6471 10.3393 16.7979 10.285L19.0958 9.50508C19.172 9.47989 19.2536 9.47588 19.3318 9.49349C19.4101 9.5111 19.4821 9.54967 19.5402 9.60507C19.5835 9.64517 19.618 9.69381 19.6416 9.74792C19.6652 9.80202 19.6773 9.86042 19.6772 9.91945L19.767 18.1067C19.768 18.2252 19.7978 18.3417 19.8538 18.4461C19.9098 18.5506 19.9905 18.6398 20.0887 18.7061C20.1866 18.7722 20.2989 18.8139 20.4163 18.8276C20.5336 18.8412 20.6526 18.8265 20.763 18.7846L37.9136 12.2255C38.0429 12.1763 38.1558 12.0916 38.2391 11.9811C38.3224 11.8707 38.3729 11.7389 38.3846 11.6011C38.3964 11.4632 38.3691 11.3248 38.3057 11.2018C38.2423 11.0788 38.1455 10.9762 38.0264 10.9058L37.7929 10.7671L19.818 0.102355V0.10236ZM19.0052 0.794932C18.9942 0.712694 19.0065 0.629013 19.0409 0.553466C19.0752 0.47792 19.1301 0.413561 19.1993 0.367763C19.2685 0.321965 19.3491 0.296576 19.4321 0.294504C19.515 0.292432 19.5969 0.313764 19.6683 0.35605L37.6374 11.0176L37.8767 11.1594C37.9477 11.2019 38.0054 11.2635 38.0432 11.3371C38.081 11.4108 38.0973 11.4936 38.0903 11.5761C38.0833 11.6586 38.0532 11.7375 38.0036 11.8038C37.9539 11.87 37.8867 11.921 37.8095 11.9509L20.6589 18.51C20.5926 18.5353 20.5211 18.5441 20.4506 18.5358C20.3801 18.5275 20.3127 18.5023 20.254 18.4624C20.1954 18.4225 20.1472 18.369 20.1136 18.3064C20.0801 18.2439 20.0621 18.1742 20.0613 18.1032L19.9715 9.91608C19.9715 9.83506 19.9576 9.75465 19.9303 9.67836L37.3912 11.6846C37.4593 11.6931 37.5282 11.6775 37.5861 11.6406C37.6439 11.6037 37.687 11.5477 37.7079 11.4824C37.7289 11.417 37.7263 11.3464 37.7007 11.2827C37.6751 11.2191 37.628 11.1664 37.5677 11.1337C37.553 11.1256 37.5376 11.1189 37.5217 11.1137L19.5786 5.12427C19.5829 5.07006 19.5812 5.01553 19.5733 4.96171L19.0052 0.794938L19.0052 0.794932Z" fill="#F1F1F1"/>
<path d="M19.818 0.10236C19.699 0.0320206 19.5626 -0.00336552 19.4244 0.000252051C19.2863 0.00386962 19.1519 0.0463461 19.0367 0.122816C18.9216 0.199285 18.8303 0.306649 18.7734 0.432604C18.7165 0.55856 18.6962 0.698011 18.7149 0.834967L19.283 5.00175C19.2908 5.06319 19.2866 5.12556 19.2706 5.18539C19.2528 5.2443 19.2231 5.29892 19.1833 5.34586L16.0014 9.11534C15.8951 9.23667 15.8327 9.39021 15.8242 9.5513C15.8157 9.71238 15.8617 9.87164 15.9546 10.0035L15.958 10.0083C16.047 10.1416 16.1781 10.2412 16.3303 10.2913C16.4825 10.3415 16.6471 10.3393 16.7979 10.285L19.0958 9.50508C19.172 9.47989 19.2536 9.47588 19.3318 9.49349C19.4101 9.5111 19.4821 9.54967 19.5402 9.60507C19.5835 9.64517 19.618 9.69381 19.6416 9.74792C19.6652 9.80202 19.6773 9.86042 19.6772 9.91945L19.767 18.1067C19.768 18.2252 19.7978 18.3417 19.8538 18.4461C19.9098 18.5506 19.9905 18.6398 20.0887 18.7061C20.1866 18.7722 20.2989 18.8139 20.4163 18.8276C20.5336 18.8412 20.6526 18.8265 20.763 18.7846L37.9136 12.2255C38.0429 12.1763 38.1558 12.0916 38.2391 11.9811C38.3224 11.8707 38.3729 11.7389 38.3846 11.6011C38.3964 11.4632 38.3691 11.3248 38.3057 11.2018C38.2423 11.0788 38.1455 10.9762 38.0264 10.9058L37.7929 10.7671L19.818 0.102355V0.10236ZM19.0052 0.794932C18.9942 0.712694 19.0065 0.629013 19.0409 0.553466C19.0752 0.47792 19.1301 0.413561 19.1993 0.367763C19.2685 0.321965 19.3491 0.296576 19.4321 0.294504C19.515 0.292432 19.5969 0.313764 19.6683 0.35605L37.6374 11.0176L37.8767 11.1594C37.9477 11.2019 38.0054 11.2635 38.0432 11.3371C38.081 11.4108 38.0973 11.4936 38.0903 11.5761C38.0833 11.6586 38.0532 11.7375 38.0036 11.8038C37.9539 11.87 37.8867 11.921 37.8095 11.9509L20.6589 18.51C20.5926 18.5353 20.5211 18.5441 20.4506 18.5358C20.3802 18.5275 20.3127 18.5023 20.254 18.4624C20.1954 18.4225 20.1472 18.369 20.1137 18.3064C20.0801 18.2439 20.0621 18.1742 20.0613 18.1032L19.9715 9.91607C19.9715 9.83505 19.9576 9.75464 19.9303 9.67835C19.8919 9.5685 19.8272 9.46968 19.742 9.39049C19.7304 9.37888 19.7175 9.3681 19.7047 9.35728L19.7039 9.3561C19.6075 9.27656 19.4925 9.22295 19.3696 9.20037C19.2467 9.17779 19.1201 9.18699 19.0018 9.22708L16.7027 10.0078C16.6121 10.0407 16.513 10.042 16.4216 10.0116C16.3301 9.98109 16.2517 9.92061 16.1989 9.83994L16.1972 9.83752C16.1408 9.75873 16.1129 9.66309 16.118 9.56632C16.1232 9.46955 16.1611 9.37743 16.2256 9.30508L19.4075 5.53566C19.4415 5.49619 19.471 5.45301 19.4953 5.40695L19.4965 5.40611C19.5201 5.362 19.5388 5.31552 19.5525 5.26744C19.5663 5.22079 19.575 5.1728 19.5786 5.1243C19.5829 5.07008 19.5812 5.01555 19.5733 4.96174L19.0052 0.794949V0.794932Z" fill="#E5E5E5"/>
<path d="M19.5792 5.12421L37.5223 11.1136C37.5382 11.1188 37.5536 11.1255 37.5683 11.1337C37.6286 11.1663 37.6757 11.219 37.7013 11.2827C37.7269 11.3463 37.7295 11.4169 37.7085 11.4823C37.6876 11.5476 37.6445 11.6036 37.5867 11.6405C37.5288 11.6775 37.4599 11.693 37.3918 11.6845L19.9309 9.67827L19.6226 9.64315L19.6567 9.35154L19.7045 9.35602L19.7053 9.35719L37.4251 11.3917L19.4972 5.40602L19.4959 5.40685L19.4185 5.3801L19.5115 5.10129L19.5792 5.12421Z" fill="#E5E5E5"/>
<path d="M184.871 0.102371L166.896 10.7671L166.662 10.9058C166.543 10.9762 166.446 11.0788 166.383 11.2018C166.32 11.3248 166.292 11.4632 166.304 11.6011C166.316 11.7389 166.366 11.8707 166.45 11.9811C166.533 12.0916 166.646 12.1763 166.775 12.2255L183.926 18.7846C184.036 18.8265 184.155 18.8412 184.272 18.8276C184.39 18.8139 184.502 18.7722 184.6 18.7061C184.698 18.6398 184.779 18.5506 184.835 18.4461C184.891 18.3417 184.921 18.2252 184.922 18.1067L185.011 9.91945C185.011 9.86042 185.023 9.80203 185.047 9.74792C185.071 9.69382 185.105 9.64517 185.148 9.60507C185.206 9.54967 185.278 9.51111 185.357 9.4935C185.435 9.47589 185.517 9.47989 185.593 9.50509L187.891 10.285C188.041 10.3393 188.206 10.3415 188.358 10.2913C188.511 10.2412 188.642 10.1416 188.731 10.0083L188.734 10.0035C188.827 9.87164 188.873 9.71238 188.864 9.5513C188.856 9.39022 188.793 9.23667 188.687 9.11534L185.505 5.34587C185.466 5.29892 185.436 5.2443 185.418 5.1854C185.402 5.12556 185.398 5.06319 185.406 5.00175L185.974 0.834967C185.992 0.698011 185.972 0.558566 185.915 0.43261C185.858 0.306654 185.767 0.19929 185.652 0.122821C185.537 0.0463517 185.402 0.00386958 185.264 0.000252016C185.126 -0.00336555 184.99 0.0320261 184.871 0.102366V0.102371ZM185.683 0.794949L185.115 4.96172C185.107 5.01554 185.106 5.07007 185.11 5.12428L167.167 11.1137C167.151 11.1189 167.136 11.1256 167.121 11.1337C167.061 11.1664 167.013 11.2191 166.988 11.2827C166.962 11.3464 166.96 11.417 166.981 11.4824C167.002 11.5477 167.045 11.6037 167.103 11.6406C167.16 11.6775 167.229 11.6931 167.297 11.6846L184.758 9.67836C184.731 9.75464 184.717 9.83506 184.717 9.91607L184.627 18.1032C184.626 18.1742 184.609 18.2439 184.575 18.3064C184.541 18.369 184.493 18.4225 184.435 18.4624C184.376 18.5023 184.308 18.5275 184.238 18.5358C184.167 18.5441 184.096 18.5353 184.03 18.51L166.879 11.9509C166.802 11.921 166.735 11.87 166.685 11.8038C166.635 11.7375 166.605 11.6586 166.598 11.5761C166.591 11.4936 166.608 11.4108 166.645 11.3371C166.683 11.2635 166.741 11.2019 166.812 11.1594L167.051 11.0176L185.02 0.356039C185.092 0.313753 185.174 0.292427 185.256 0.294499C185.339 0.296571 185.42 0.321959 185.489 0.367757C185.559 0.413555 185.613 0.477909 185.648 0.553455C185.682 0.629002 185.694 0.712688 185.683 0.794927V0.794949Z" fill="#F1F1F1"/>
<path d="M184.871 0.102371L166.896 10.7671L166.662 10.9058C166.543 10.9762 166.446 11.0788 166.383 11.2018C166.32 11.3248 166.292 11.4632 166.304 11.6011C166.316 11.7389 166.366 11.8707 166.45 11.9811C166.533 12.0916 166.646 12.1763 166.775 12.2255L183.926 18.7846C184.036 18.8265 184.155 18.8412 184.272 18.8276C184.39 18.8139 184.502 18.7722 184.6 18.7061C184.698 18.6398 184.779 18.5506 184.835 18.4461C184.891 18.3417 184.921 18.2252 184.922 18.1067L185.011 9.91945C185.011 9.86042 185.023 9.80203 185.047 9.74792C185.071 9.69382 185.105 9.64517 185.148 9.60507C185.206 9.54967 185.278 9.51111 185.357 9.4935C185.435 9.47589 185.517 9.47989 185.593 9.50509L187.891 10.285C188.041 10.3393 188.206 10.3415 188.358 10.2913C188.511 10.2412 188.642 10.1416 188.731 10.0083L188.734 10.0035C188.827 9.87164 188.873 9.71238 188.864 9.5513C188.856 9.39022 188.793 9.23667 188.687 9.11534L185.505 5.34587C185.466 5.29892 185.436 5.2443 185.418 5.1854C185.402 5.12556 185.398 5.06319 185.406 5.00175L185.974 0.834967C185.992 0.698011 185.972 0.558566 185.915 0.43261C185.858 0.306654 185.767 0.19929 185.652 0.122821C185.537 0.0463517 185.402 0.00386958 185.264 0.000252016C185.126 -0.00336555 184.99 0.0320261 184.871 0.102366V0.102371ZM185.683 0.794949L185.115 4.96173C185.107 5.01555 185.106 5.07008 185.11 5.12429C185.114 5.1728 185.122 5.22079 185.136 5.26744C185.15 5.31552 185.169 5.362 185.192 5.40611L185.193 5.40694C185.218 5.45301 185.247 5.49618 185.281 5.53566L188.463 9.30507C188.527 9.37742 188.565 9.46955 188.571 9.56632C188.576 9.66309 188.548 9.75873 188.491 9.83752L188.49 9.83994C188.437 9.92061 188.358 9.98108 188.267 10.0116C188.176 10.042 188.076 10.0407 187.986 10.0078L185.687 9.22707C185.568 9.18698 185.442 9.17779 185.319 9.20037C185.196 9.22295 185.081 9.27655 184.985 9.35609L184.984 9.35728C184.971 9.3681 184.958 9.37888 184.947 9.39048C184.861 9.46968 184.797 9.56849 184.758 9.67835C184.731 9.75463 184.717 9.83505 184.717 9.91606L184.627 18.1032C184.626 18.1742 184.608 18.2439 184.575 18.3064C184.541 18.3689 184.493 18.4225 184.435 18.4624C184.376 18.5023 184.308 18.5275 184.238 18.5358C184.167 18.5441 184.096 18.5353 184.03 18.51L166.879 11.9509C166.802 11.921 166.735 11.87 166.685 11.8038C166.635 11.7375 166.605 11.6586 166.598 11.5761C166.591 11.4936 166.608 11.4108 166.645 11.3371C166.683 11.2635 166.741 11.2019 166.812 11.1594L167.051 11.0176L185.02 0.356044C185.092 0.313758 185.174 0.292432 185.256 0.294504C185.339 0.296576 185.42 0.321965 185.489 0.367763C185.559 0.413561 185.613 0.477914 185.648 0.553461C185.682 0.629007 185.694 0.712694 185.683 0.794932V0.794949Z" fill="#E5E5E5"/>
<path d="M185.178 5.10141L185.271 5.38022L185.193 5.40698L185.192 5.40615L167.264 11.3918L184.984 9.35731L184.985 9.35614L185.033 9.35166L185.067 9.64327L184.758 9.67839L167.298 11.6846C167.229 11.6931 167.161 11.6776 167.103 11.6407C167.045 11.6037 167.002 11.5478 166.981 11.4824C166.96 11.4171 166.962 11.3464 166.988 11.2828C167.014 11.2191 167.061 11.1664 167.121 11.1338C167.136 11.1256 167.151 11.1189 167.167 11.1138L185.11 5.12434L185.178 5.10141Z" fill="#E5E5E5"/>
<path d="M0.400419 105.031C0.277377 105.094 0.174579 105.19 0.103792 105.309C0.0330047 105.427 -0.00291236 105.564 0.000184644 105.702C0.00328164 105.84 0.0452533 105.975 0.121288 106.09C0.197323 106.205 0.304349 106.297 0.430089 106.355L4.25554 108.101C4.31164 108.127 4.36212 108.164 4.40416 108.21C4.44442 108.256 4.47471 108.311 4.49312 108.369L5.97868 113.073C6.02443 113.228 6.12086 113.363 6.25247 113.456C6.38409 113.549 6.54324 113.596 6.70434 113.587L6.71022 113.587C6.87044 113.583 7.0247 113.526 7.14844 113.424C7.27217 113.322 7.35827 113.182 7.39303 113.025L7.96185 110.666C7.98126 110.588 8.02147 110.517 8.07819 110.46C8.1349 110.404 8.20599 110.363 8.28383 110.344C8.34087 110.329 8.40041 110.326 8.45875 110.335C8.51708 110.344 8.57293 110.365 8.62277 110.396L15.5907 114.696C15.6914 114.758 15.8058 114.795 15.924 114.804C16.0423 114.812 16.1608 114.792 16.2693 114.744C16.3775 114.697 16.4728 114.624 16.547 114.532C16.6213 114.44 16.6724 114.332 16.6961 114.216L20.3179 96.2148C20.3454 96.0792 20.3341 95.9386 20.2853 95.8091C20.2364 95.6797 20.152 95.5666 20.0418 95.483C19.9316 95.3993 19.8 95.3485 19.6622 95.3363C19.5243 95.3242 19.3859 95.3512 19.2627 95.4142L19.0207 95.5374L0.400419 105.031ZM0.551439 106.088C0.476035 106.053 0.411884 105.998 0.36637 105.929C0.320857 105.859 0.295804 105.778 0.294072 105.695C0.29234 105.613 0.313999 105.531 0.356578 105.46C0.399156 105.388 0.460948 105.331 0.534842 105.293L19.1493 95.8027L19.397 95.6763C19.4709 95.639 19.5538 95.6231 19.6362 95.6306C19.7187 95.638 19.7974 95.6685 19.8634 95.7185C19.9294 95.7685 19.98 95.8361 20.0094 95.9134C20.0389 95.9908 20.0461 96.0749 20.0301 96.1561L16.4083 114.157C16.3942 114.227 16.3635 114.292 16.3188 114.347C16.2741 114.402 16.2168 114.446 16.1517 114.474C16.0865 114.502 16.0156 114.515 15.9448 114.509C15.874 114.504 15.8055 114.482 15.745 114.445L8.77714 110.146C8.70869 110.102 8.6333 110.071 8.55425 110.053L19.5814 96.3673C19.625 96.3143 19.6487 96.2477 19.6484 96.1791C19.6481 96.1105 19.6238 96.0441 19.5798 95.9915C19.5357 95.9389 19.4747 95.9033 19.4072 95.8909C19.3397 95.8786 19.27 95.8902 19.2101 95.9238C19.1954 95.9318 19.1815 95.9412 19.1687 95.9519L4.51706 107.917C4.47357 107.884 4.42655 107.857 4.37687 107.834L0.551439 106.088Z" fill="#F1F1F1"/>
<path d="M0.400419 105.031C0.277377 105.094 0.174579 105.19 0.103792 105.309C0.0330047 105.427 -0.00291236 105.564 0.000184644 105.702C0.00328164 105.84 0.0452533 105.975 0.121288 106.09C0.197323 106.205 0.304349 106.297 0.430089 106.355L4.25554 108.101C4.31164 108.127 4.36212 108.164 4.40416 108.21C4.44442 108.256 4.47471 108.311 4.49312 108.369L5.97868 113.073C6.02443 113.228 6.12086 113.363 6.25247 113.456C6.38409 113.549 6.54324 113.596 6.70434 113.587L6.71022 113.587C6.87044 113.583 7.0247 113.526 7.14844 113.424C7.27217 113.322 7.35827 113.182 7.39303 113.025L7.96185 110.666C7.98126 110.588 8.02147 110.517 8.07819 110.46C8.1349 110.404 8.20599 110.363 8.28383 110.344C8.34087 110.329 8.40041 110.326 8.45875 110.335C8.51708 110.344 8.57293 110.365 8.62277 110.396L15.5907 114.696C15.6914 114.758 15.8058 114.795 15.924 114.804C16.0423 114.812 16.1608 114.792 16.2693 114.744C16.3775 114.697 16.4728 114.624 16.547 114.532C16.6213 114.44 16.6724 114.332 16.6961 114.216L20.3179 96.2148C20.3454 96.0792 20.3341 95.9386 20.2853 95.8091C20.2364 95.6797 20.152 95.5666 20.0418 95.483C19.9316 95.3993 19.8 95.3485 19.6622 95.3363C19.5243 95.3242 19.3859 95.3512 19.2627 95.4142L19.0207 95.5374L0.400419 105.031ZM0.551439 106.088C0.476035 106.053 0.411884 105.998 0.36637 105.929C0.320857 105.859 0.295804 105.778 0.294072 105.695C0.29234 105.613 0.313999 105.531 0.356578 105.46C0.399156 105.388 0.460948 105.331 0.534842 105.293L19.1493 95.8027L19.397 95.6763C19.4709 95.639 19.5538 95.6231 19.6362 95.6306C19.7187 95.638 19.7974 95.6685 19.8634 95.7185C19.9294 95.7685 19.98 95.8361 20.0094 95.9134C20.0389 95.9908 20.0461 96.0749 20.0301 96.1561L16.4083 114.157C16.3942 114.227 16.3635 114.292 16.3188 114.347C16.2741 114.402 16.2168 114.446 16.1517 114.474C16.0865 114.502 16.0156 114.515 15.9448 114.509C15.874 114.504 15.8055 114.482 15.745 114.445L8.77714 110.146C8.70869 110.102 8.63328 110.071 8.55422 110.053C8.44084 110.027 8.32276 110.029 8.21025 110.059C8.19424 110.062 8.17829 110.067 8.16228 110.072L8.16084 110.073C8.04212 110.111 7.93533 110.18 7.85058 110.272C7.76583 110.364 7.70593 110.476 7.67658 110.597L7.10783 112.957C7.0872 113.052 7.03535 113.136 6.96072 113.197C6.88608 113.258 6.79302 113.292 6.69664 113.294L6.69369 113.294C6.59695 113.299 6.50119 113.272 6.42215 113.216C6.34312 113.16 6.28554 113.078 6.25885 112.985L4.77333 108.281C4.75814 108.231 4.73741 108.183 4.7115 108.138L4.71143 108.137C4.68672 108.093 4.65746 108.053 4.62413 108.015C4.59205 107.979 4.55618 107.946 4.51709 107.917C4.47359 107.884 4.42655 107.857 4.37687 107.834L0.551439 106.088Z" fill="#E5E5E5"/>
<path d="M4.51646 107.917L19.168 95.9519C19.1809 95.9412 19.1948 95.9317 19.2095 95.9237C19.2694 95.8902 19.3391 95.8786 19.4066 95.8909C19.4741 95.9033 19.5351 95.9389 19.5792 95.9915C19.6232 96.0441 19.6475 96.1105 19.6478 96.1791C19.6481 96.2477 19.6244 96.3143 19.5808 96.3673L8.55362 110.053L8.35916 110.295L8.13092 110.11L8.16023 110.073L8.16167 110.072L19.3512 96.1826L4.71083 108.137L4.71089 108.138L4.64686 108.189L4.46094 107.962L4.51646 107.917Z" fill="#E5E5E5"/>
</svg>
