<svg width="7" height="8" viewBox="0 0 7 8" fill="none" xmlns="http://www.w3.org/2000/svg">
<path fill-rule="evenodd" clip-rule="evenodd" d="M6.87676 7.34122H5.60707V5.118C5.60707 4.50812 5.33822 4.16785 4.85605 4.16785C4.33136 4.16785 4.01996 4.52241 4.01996 5.118V7.34122H2.75028V3.21181H4.01996V3.67618C4.01996 3.67618 4.41833 2.97668 5.316 2.97668C6.21398 2.97668 6.87676 3.52504 6.87676 4.65968V7.34122ZM1.30347 2.55139C0.875263 2.55139 0.52832 2.20136 0.52832 1.76968C0.52832 1.33832 0.875263 0.988281 1.30347 0.988281C1.73135 0.988281 2.07829 1.33832 2.07829 1.76968C2.07861 2.20136 1.73135 2.55139 1.30347 2.55139ZM0.52832 7.34122H2.11543V3.21181H0.52832V7.34122Z" fill="#616161"/>
</svg>
