<svg width="114" height="24" viewBox="0 0 114 24" fill="none" xmlns="http://www.w3.org/2000/svg">
<path d="M5.36948 2.74232C4.94205 1.92368 5.12712 0.918994 5.56072 0.141113C7.5322 2.23554 9.50367 4.32997 11.4769 6.42352C13.3162 4.4168 15.1528 2.40654 16.9965 0.403359C17.4336 1.09885 17.5394 1.97241 17.3094 2.76004C17.2768 3.01165 17.067 3.16935 16.9119 3.34832C15.5415 4.84206 14.1711 6.3367 12.8033 7.83221C13.6432 8.72704 14.4874 9.61921 15.3264 10.5149C15.6605 9.56162 16.362 8.74122 17.268 8.29735C18.337 7.75868 19.658 7.76665 20.72 8.3195C21.789 8.85816 22.5743 9.92487 22.7646 11.113C22.9673 12.2505 22.6201 13.4705 21.8516 14.3308C21.0391 15.2682 19.755 15.7581 18.5282 15.6057C17.2873 15.4746 16.1602 14.6825 15.5697 13.583C14.7818 14.2838 13.9913 14.982 13.2034 15.6828C14.1164 16.0992 14.8655 16.8718 15.226 17.8153C15.6481 18.89 15.5556 20.1543 14.9757 21.1528C14.4284 22.1211 13.4431 22.8272 12.352 23.023C11.2504 23.241 10.0615 22.9318 9.19874 22.2097C8.26897 21.4531 7.73578 20.2402 7.80011 19.0397C7.84506 17.6647 8.69728 16.3747 9.91701 15.7616C9.08682 15.0227 8.25311 14.2892 7.42468 13.5485C6.9523 14.4407 6.13798 15.1477 5.17471 15.4489C4.15504 15.7811 2.99966 15.6544 2.07429 15.1113C1.06784 14.5328 0.351341 13.4723 0.197113 12.3152C0.000582069 11.0545 0.491467 9.71401 1.4468 8.875C2.31312 8.08826 3.54695 7.74539 4.69352 7.95979C6.06659 8.19457 7.24578 9.24799 7.6688 10.5787C8.49723 9.66085 9.35385 8.7678 10.1638 7.83487C8.55804 6.14533 6.95847 4.44781 5.36948 2.74232ZM8.8048 12.193C9.70549 12.9974 10.6115 13.7948 11.513 14.5984C12.4261 13.793 13.3356 12.985 14.2451 12.1761C13.325 11.2069 12.4137 10.2296 11.4945 9.2604C10.5965 10.2358 9.70285 11.2166 8.8048 12.193ZM3.57515 9.87792C2.8375 10.04 2.2338 10.6744 2.10778 11.4222C1.9465 12.2426 2.39332 13.1294 3.13978 13.4927C3.75581 13.8143 4.54194 13.7558 5.10509 13.3474C5.68499 12.9478 6.01195 12.2107 5.90972 11.5099C5.79427 10.4201 4.63535 9.59883 3.57515 9.87792ZM18.4736 9.89652C17.7677 10.0808 17.2027 10.7028 17.0802 11.4248C16.9383 12.1593 17.2776 12.954 17.8972 13.366C18.3969 13.7115 19.0623 13.7974 19.6307 13.583C20.2803 13.3518 20.7782 12.7431 20.8769 12.0574C20.9853 11.3929 20.7112 10.6859 20.1895 10.266C19.7206 9.87526 19.0605 9.72996 18.4736 9.89652ZM11.2442 17.3307C10.4969 17.4831 9.87735 18.1192 9.74868 18.8758C9.60062 19.6165 9.94609 20.4183 10.5727 20.8303C11.1262 21.2139 11.8841 21.2662 12.4851 20.9623C13.0289 20.6983 13.4325 20.1649 13.5365 19.566C13.6714 18.8678 13.3735 18.1112 12.8077 17.6869C12.3706 17.3466 11.7836 17.212 11.2442 17.3307Z" fill="#2892D7"/>
<path d="M29.5713 14.3145H31.8373C31.8609 14.7817 32.0616 15.1847 32.4393 15.5234C32.8169 15.8505 33.3185 16.014 33.9441 16.014C34.5342 16.014 35.0122 15.8797 35.378 15.611C35.7439 15.3307 35.9386 14.9803 35.9622 14.5598C35.9859 14.1626 35.856 13.8297 35.5728 13.5611C35.3013 13.2924 34.8705 13.0763 34.2804 12.9128L32.7756 12.5274C30.722 11.9316 29.6952 10.8103 29.6952 9.16334C29.6952 8.12377 30.0906 7.27692 30.8813 6.62281C31.6839 5.95701 32.6576 5.62412 33.8024 5.62412C34.9827 5.62412 35.9504 5.95701 36.7058 6.62281C37.4729 7.27692 37.8565 8.15881 37.8565 9.26847H35.5905C35.5905 8.78956 35.4252 8.40994 35.0948 8.12961C34.7761 7.83759 34.3335 7.69158 33.767 7.69158C33.2477 7.69158 32.811 7.82591 32.457 8.09456C32.1147 8.35154 31.9436 8.69028 31.9436 9.11078C31.9436 9.77657 32.4275 10.238 33.3952 10.4949L34.9 10.933C36.1629 11.2717 37.0481 11.7681 37.5556 12.4222C38.0631 13.0763 38.2873 13.8064 38.2283 14.6123C38.1811 15.6636 37.7444 16.4988 36.9182 17.1178C36.1039 17.7252 35.1125 18.0289 33.9441 18.0289C32.6576 18.0289 31.6072 17.6727 30.7928 16.9601C29.9785 16.2476 29.5713 15.3657 29.5713 14.3145Z" fill="#0C2C41"/>
<path d="M45.0134 14.0166V9.65393H47.1733V17.8362H45.0134V16.6798C44.7892 17.1003 44.4587 17.4274 44.022 17.661C43.5972 17.8946 43.1664 18.0114 42.7297 18.0114C41.7265 18.0114 40.9298 17.7077 40.3397 17.1003C39.7614 16.4929 39.4722 15.6227 39.4722 14.4897V9.65393H41.6498V14.1042C41.6498 14.7233 41.8032 15.1847 42.1101 15.4884C42.4169 15.7804 42.7887 15.9264 43.2254 15.9264C43.7329 15.9264 44.1578 15.7746 44.5 15.4709C44.8423 15.1555 45.0134 14.6707 45.0134 14.0166Z" fill="#0C2C41"/>
<path d="M51.9423 12.1244C51.5056 12.5215 51.2872 13.053 51.2872 13.7188C51.2872 14.3846 51.4997 14.9277 51.9246 15.3482C52.3613 15.757 52.8806 15.9615 53.4825 15.9615C54.0962 15.9615 54.6096 15.757 55.0227 15.3482C55.4476 14.9277 55.66 14.3846 55.66 13.7188C55.66 13.0647 55.4476 12.5332 55.0227 12.1244C54.6096 11.7156 54.0962 11.5111 53.4825 11.5111C52.8924 11.5111 52.379 11.7156 51.9423 12.1244ZM51.2518 17.8362H49.092V5.20361H51.2518V10.7402C51.4643 10.3431 51.8065 10.0335 52.2786 9.81161C52.7507 9.58968 53.27 9.47872 53.8365 9.47872C54.9578 9.47872 55.9138 9.87586 56.7045 10.6701C57.4953 11.4527 57.8906 12.4806 57.8906 13.7538C57.8906 15.0153 57.4953 16.0432 56.7045 16.8375C55.9138 17.6201 54.9578 18.0114 53.8365 18.0114C53.2818 18.0114 52.7625 17.9004 52.2786 17.6785C51.8065 17.4449 51.4643 17.1295 51.2518 16.7324V17.8362Z" fill="#0C2C41"/>
<path d="M62.7501 14.3145H65.0162C65.0398 14.7817 65.2404 15.1847 65.6181 15.5234C65.9958 15.8505 66.4974 16.014 67.1229 16.014C67.713 16.014 68.191 15.8797 68.5569 15.611C68.9227 15.3307 69.1175 14.9803 69.1411 14.5598C69.1647 14.1626 69.0349 13.8297 68.7516 13.5611C68.4801 13.2924 68.0494 13.0763 67.4592 12.9128L65.9544 12.5274C63.9008 11.9316 62.874 10.8103 62.874 9.16334C62.874 8.12377 63.2694 7.27692 64.0602 6.62281C64.8627 5.95701 65.8364 5.62412 66.9813 5.62412C68.1615 5.62412 69.1293 5.95701 69.8846 6.62281C70.6518 7.27692 71.0353 8.15881 71.0353 9.26847H68.7693C68.7693 8.78956 68.6041 8.40994 68.2736 8.12961C67.9549 7.83759 67.5124 7.69158 66.9458 7.69158C66.4265 7.69158 65.9899 7.82591 65.6358 8.09456C65.2935 8.35154 65.1224 8.69028 65.1224 9.11078C65.1224 9.77657 65.6063 10.238 66.5741 10.4949L68.0789 10.933C69.3417 11.2717 70.2269 11.7681 70.7344 12.4222C71.2419 13.0763 71.4661 13.8064 71.4071 14.6123C71.3599 15.6636 70.9232 16.4988 70.0971 17.1178C69.2827 17.7252 68.2913 18.0289 67.1229 18.0289C65.8364 18.0289 64.786 17.6727 63.9717 16.9601C63.1573 16.2476 62.7501 15.3657 62.7501 14.3145Z" fill="#0C2C41"/>
<path d="M79.1108 17.8362V16.7849C78.8629 17.1704 78.4852 17.4683 77.9777 17.6785C77.4821 17.8888 77.0041 17.9939 76.5438 17.9939C75.4107 17.9939 74.4252 17.6026 73.5873 16.82C72.7493 16.0257 72.3303 14.9978 72.3303 13.7363C72.3303 12.4748 72.7434 11.4527 73.5696 10.6701C74.4075 9.87586 75.3989 9.47872 76.5438 9.47872C77.0041 9.47872 77.4762 9.578 77.96 9.77657C78.4557 9.96346 78.8393 10.2613 79.1108 10.6701V9.65393H81.2706V17.8362H79.1108ZM75.2337 12.1594C74.7852 12.5682 74.561 13.0939 74.561 13.7363C74.561 14.3787 74.7852 14.9102 75.2337 15.3307C75.694 15.7395 76.231 15.9439 76.8447 15.9439C77.4584 15.9439 77.9895 15.7454 78.438 15.3482C78.8865 14.9394 79.1108 14.4021 79.1108 13.7363C79.1108 13.0588 78.8806 12.5215 78.4203 12.1244C77.9718 11.7272 77.4466 11.5287 76.8447 11.5287C76.231 11.5287 75.694 11.7389 75.2337 12.1594Z" fill="#0C2C41"/>
<path d="M83.1871 17.8362V5.20361H85.347V17.8362H83.1871Z" fill="#0C2C41"/>
<path d="M89.5031 15.3132C89.9162 15.7103 90.4296 15.9089 91.0433 15.9089C91.6571 15.9089 92.1705 15.7103 92.5835 15.3132C92.9966 14.9044 93.2032 14.3729 93.2032 13.7188C93.2032 13.088 92.9966 12.5741 92.5835 12.1769C92.1705 11.7798 91.6571 11.5812 91.0433 11.5812C90.4296 11.5812 89.9162 11.7798 89.5031 12.1769C89.09 12.5741 88.8835 13.088 88.8835 13.7188C88.8835 14.3729 89.09 14.9044 89.5031 15.3132ZM94.0883 16.8025C93.2622 17.5967 92.2472 17.9939 91.0433 17.9939C89.8395 17.9939 88.8186 17.5967 87.9806 16.8025C87.1545 16.0082 86.7414 14.9803 86.7414 13.7188C86.7414 12.4573 87.1545 11.4352 87.9806 10.6526C88.8186 9.87002 89.8395 9.47872 91.0433 9.47872C92.2472 9.47872 93.2622 9.87002 94.0883 10.6526C94.9263 11.4352 95.3453 12.4573 95.3453 13.7188C95.3453 14.9803 94.9263 16.0082 94.0883 16.8025Z" fill="#0C2C41"/>
<path d="M98.9994 15.3132C99.4125 15.7103 99.9259 15.9089 100.54 15.9089C101.153 15.9089 101.667 15.7103 102.08 15.3132C102.493 14.9044 102.699 14.3729 102.699 13.7188C102.699 13.088 102.493 12.5741 102.08 12.1769C101.667 11.7798 101.153 11.5812 100.54 11.5812C99.9259 11.5812 99.4125 11.7798 98.9994 12.1769C98.5863 12.5741 98.3798 13.088 98.3798 13.7188C98.3798 14.3729 98.5863 14.9044 98.9994 15.3132ZM103.585 16.8025C102.758 17.5967 101.743 17.9939 100.54 17.9939C99.3358 17.9939 98.3149 17.5967 97.4769 16.8025C96.6507 16.0082 96.2376 14.9803 96.2376 13.7188C96.2376 12.4573 96.6507 11.4352 97.4769 10.6526C98.3149 9.87002 99.3358 9.47872 100.54 9.47872C101.743 9.47872 102.758 9.87002 103.585 10.6526C104.423 11.4352 104.842 12.4573 104.842 13.7188C104.842 14.9803 104.423 16.0082 103.585 16.8025Z" fill="#0C2C41"/>
<path d="M108.407 13.4735V17.8362H106.247V9.65393H108.407V10.8629C108.631 10.4424 108.974 10.1095 109.434 9.86418C109.894 9.6072 110.372 9.47872 110.868 9.47872C111.848 9.47872 112.603 9.78241 113.134 10.3898C113.677 10.9855 113.948 11.8557 113.948 13.0004V17.8362H111.789V13.3859C111.789 12.8019 111.647 12.3521 111.364 12.0368C111.08 11.7214 110.697 11.5637 110.213 11.5637C109.682 11.5637 109.245 11.7156 108.903 12.0192C108.572 12.3229 108.407 12.8077 108.407 13.4735Z" fill="#0C2C41"/>
</svg>
