<svg width="133" height="42" viewBox="0 0 133 42" fill="none" xmlns="http://www.w3.org/2000/svg">
<path d="M19.3818 23.7379C18.9944 23.3763 18.5294 23.1696 18.0645 22.9372C17.9612 22.7822 17.8062 22.7305 17.6512 22.6789C17.1346 22.4464 16.618 22.2397 16.1014 22.0073C14.9907 21.4907 13.8025 21.129 12.6401 20.7416C11.8394 20.4058 11.0645 20.0958 10.2638 19.76C8.81727 19.0368 7.44827 18.2102 6.33757 16.9962C5.71764 16.3246 5.22686 15.5755 4.73609 14.7231C4.73609 14.8523 4.71026 14.8781 4.73609 14.9298C5.56266 18.2361 7.39661 20.8707 10.1604 22.8597C10.8579 23.4021 11.6069 23.8671 12.4335 24.2287C13.6217 24.8744 14.939 25.3136 16.1014 26.0368C16.6438 26.4501 17.1863 26.8375 17.7287 27.2508C18.297 27.7933 18.8394 28.3615 19.3302 29.0073C19.4077 29.1364 19.511 29.2914 19.5885 29.4206C20.9058 31.487 21.3449 33.7084 20.6992 36.1106C20.2859 37.5829 19.4852 38.8228 18.452 39.9593C17.832 40.4759 17.2379 40.9925 16.618 41.5091C16.3339 41.6124 16.1014 41.7674 15.8948 41.9999C16.1531 41.8966 16.463 41.8707 16.6955 41.6641C17.4704 41.38 18.1678 40.9409 18.8136 40.3984C19.9759 39.5202 20.9317 38.4353 21.7066 37.2213C23.1272 34.9482 23.8246 32.5202 23.2822 29.8597C22.7914 27.3025 21.5258 25.2361 19.3818 23.7379Z" fill="#353A48"/>
<path d="M18.8911 35.6974C17.9354 34.6642 16.8764 33.9926 15.4557 33.9926C14.2675 33.941 13.286 34.4059 12.3561 35.0517C11.297 35.6199 10.238 36.1882 8.99815 36.2657C8.6107 36.1882 8.48155 35.8782 8.3524 35.5683C8.19741 35.1808 8.17159 34.7417 8.11992 34.3284C8.09409 34.0701 7.99077 33.9151 7.70664 33.8893C7.57749 33.8893 7.42251 33.8376 7.31919 33.8118C6.98339 33.6827 6.93173 33.4244 7.21587 33.1919C7.29336 33.1144 7.39668 33.0886 7.55166 33.0111C7.39668 32.9594 7.29336 32.9078 7.16421 32.8819C6.31181 32.6236 6.31181 32.572 6.6476 31.7712C6.82841 31.3579 6.72509 31.0738 6.28598 30.893C5.89852 30.738 5.51107 30.6347 5.12361 30.5055C4.58118 30.3247 4.52952 30.1956 4.86531 29.7306C5.43358 28.9041 5.95018 28.0775 6.28598 27.1476C6.49262 26.631 6.49262 26.1402 6.23432 25.5978C5.82103 24.7196 5.43358 23.8413 5.14944 22.8856C4.81365 21.7233 4.65867 20.5351 4.58118 19.1919C4.50369 19.3727 4.45203 19.4502 4.45203 19.5535C4.27122 20.7417 4.27122 21.9299 4.50369 23.1439C4.6845 24.1255 5.14944 25.0037 5.56273 25.9078C5.74354 26.3469 5.74354 26.7085 5.56273 27.1218C5.20111 27.9484 4.65867 28.6974 4.1679 29.4723C3.72878 30.1439 3.90959 30.738 4.60701 31.0738C5.02029 31.2805 5.45941 31.4354 5.92435 31.4613C5.92435 31.5129 5.92435 31.5646 5.89852 31.5904C5.43358 32.4686 5.45941 32.5203 6.23432 33.1144C6.36347 33.2177 6.36347 33.2694 6.33764 33.4244C6.20849 33.8635 6.3893 34.2509 6.77675 34.3543C7.42251 34.5351 7.52583 34.9742 7.60332 35.5166C7.62915 35.6716 7.68081 35.8007 7.73247 35.9557C7.96494 36.4465 8.24908 36.8598 8.81734 36.9373C8.99815 37.0406 9.20479 37.0148 9.38561 36.9889C10.6255 36.8081 11.7103 36.2915 12.7435 35.6458C13.4668 35.2067 14.2159 34.845 15.0424 34.6642C16.4114 34.5351 17.6513 34.845 18.7362 35.7233C18.7362 35.7233 18.7878 35.6974 18.8911 35.6974Z" fill="#353A48"/>
<path d="M7.91331 26.9152C8.27494 26.8378 8.66239 26.7603 8.97236 26.502C9.41147 26.2695 9.56645 25.882 9.64394 25.3396C9.28232 25.6496 8.97236 25.9079 8.63656 26.037C8.3266 26.037 8.04247 26.037 7.7325 26.0112C7.65501 26.0112 7.52586 25.9595 7.50003 26.0628C7.34505 26.3986 7.06092 26.6569 6.67346 26.9152C7.16424 26.9411 7.55169 26.9927 7.91331 26.9152Z" fill="#353A48"/>
<path fill-rule="evenodd" clip-rule="evenodd" d="M18.0646 9.35055C18.6845 8.03321 19.2011 6.71587 18.917 5.01107C18.8912 4.93358 18.8395 4.85609 18.762 4.85609H18.7362C18.6587 4.85609 18.607 4.90775 18.5554 4.95941C18.3487 5.34686 18.1937 5.73432 18.0388 6.09594C17.8321 6.56089 17.6255 6.97417 17.4188 7.38745C17.238 7.72325 17.0314 8.03321 16.8506 8.34317C16.6956 8.57565 16.5406 8.83395 16.3856 9.06642C16.2823 9.27306 16.179 9.32472 16.1532 9.32472C16.0757 9.32472 15.7915 9.04059 15.5332 7.77491C15.4041 7.12915 15.3266 6.53506 15.3266 6.38007C15.2491 4.54613 15.9207 2.76384 17.2122 1.44649C17.393 1.26568 19.1495 0.154982 19.7177 0C19.6661 1.03321 19.9502 1.98893 20.2085 2.91882C20.4926 3.9262 20.7768 4.88192 20.6476 5.8893C20.441 7.18081 19.6144 9.16974 18.0646 9.35055Z" fill="#5573A0"/>
<path fill-rule="evenodd" clip-rule="evenodd" d="M23.4631 13.845C23.3597 13.845 23.2822 13.845 23.1789 13.8192C24.1346 13.0443 25.3228 10.5388 25.3745 10.1513C25.3745 10.0738 25.3487 9.99632 25.2712 9.97049C25.2453 9.94466 25.1937 9.94466 25.1679 9.94466C25.1162 9.94466 25.0904 9.94466 25.0645 9.97049C24.5479 10.3321 24.1346 10.7712 23.7214 11.2103C23.1273 11.8044 22.5848 12.3985 21.8357 12.7343C21.6291 12.8376 21.4483 12.8893 21.3191 12.8893C21.19 12.8893 21.1383 12.8376 21.1125 12.8118C20.88 12.5277 21.035 11.6753 21.0867 11.2878C21.1642 10.8745 21.2417 10.5129 21.2933 10.3838C21.8099 9.0406 22.6107 7.87824 23.4889 7.15499C24.0572 6.69005 26.0203 5.57935 27.131 5.57935C27.3893 5.57935 27.5959 5.65684 27.6992 5.78599C27.8542 5.99263 27.8542 6.35425 27.6992 6.87086C27.5184 7.49079 27.4151 8.16237 27.3376 8.80813C27.1826 9.94466 27.0535 11.107 26.356 11.9853C25.8911 12.5535 24.7546 13.845 23.4631 13.845Z" fill="#5573A0"/>
<path fill-rule="evenodd" clip-rule="evenodd" d="M12.072 10.7969C11.2196 10.7969 9.61814 8.85967 9.33401 8.36889C8.24914 6.63827 8.32663 4.59767 8.58493 3.20284C8.66242 2.76373 8.73991 2.35044 9.04988 2.01465C9.4115 3.09952 10.1864 3.64195 10.9097 4.08107C11.0646 4.18439 11.2454 4.28771 11.4263 4.3652C12.1237 4.77849 12.8728 5.19177 13.3635 5.88919C14.0609 6.89657 14.3967 8.36889 13.6735 9.58291C13.5702 9.04048 13.4152 8.57553 13.1569 8.16225L13.1052 8.05893C12.7953 7.56815 12.4336 6.99989 11.8395 6.79325H11.7621C11.7104 6.79325 11.6846 6.81908 11.6329 6.84491C11.5812 6.89657 11.5554 6.94823 11.5554 7.02572C11.6071 7.36151 11.7879 7.80063 11.9945 8.23974C12.3561 9.09214 12.7694 10.0479 12.382 10.6161C12.3045 10.7194 12.2012 10.7969 12.072 10.7969Z" fill="#5573A0"/>
<path fill-rule="evenodd" clip-rule="evenodd" d="M26.6404 21.7231C26.5887 21.7231 26.4596 21.7231 26.4337 21.3098C26.4079 21.0515 26.4079 20.7932 26.4337 20.5091C26.4337 19.9667 26.4596 19.3984 26.2787 18.8301C26.2529 18.7785 26.2271 18.7268 26.1754 18.701C26.1496 18.701 26.1238 18.6751 26.0979 18.6751C26.0721 18.6751 26.0463 18.6751 26.0204 18.6751C25.2455 18.9851 25.1939 19.605 25.1422 20.1733C25.1422 20.2508 25.1422 20.3541 25.1164 20.4316C25.0906 20.6124 25.0389 20.7416 24.9614 20.7932C24.9356 20.7932 24.9097 20.819 24.8839 20.819C24.7806 20.819 24.574 20.7157 24.3931 20.4574C24.2123 20.225 24.1348 19.7083 24.1607 19.0884C24.2123 18.0552 24.6514 16.867 25.2197 16.1696C25.5555 15.7822 25.9946 15.4464 26.4079 15.1106C27.2603 14.4648 28.1385 13.7932 28.2677 12.6309C29.1201 13.3283 29.43 14.3615 29.5334 15.1364C29.7917 16.9703 29.1717 19.2951 28.0869 20.5607C27.6477 21.129 26.9762 21.7231 26.6404 21.7231Z" fill="#39577E"/>
<path fill-rule="evenodd" clip-rule="evenodd" d="M8.89487 12.3469C7.99081 11.6495 6.80262 11.4687 5.69192 10.7196C7.11258 10.5388 8.24911 10.8488 9.35982 11.3912C9.15317 10.0739 8.04247 9.24729 6.85428 8.88567C5.40779 8.44655 4.4779 9.1698 3.18638 9.66058C2.12734 10.0739 1.0683 9.86722 0.00926307 9.55726C-0.145718 10.3322 1.68823 11.9336 2.20483 12.4502C3.16055 13.4318 4.19377 13.6901 5.48528 13.9484C6.67347 14.1809 7.75834 13.8451 8.81738 13.3801C9.64395 12.9927 9.61812 12.8894 8.89487 12.3469Z" fill="#5573A0"/>
<path fill-rule="evenodd" clip-rule="evenodd" d="M33.6144 22.9114C33.5627 22.2915 33.5627 21.6716 33.6402 20.9742C33.6919 20.4576 33.7694 19.941 33.821 19.4244L33.8985 18.7528C33.8985 18.6753 33.8727 18.5978 33.7952 18.572C33.7694 18.5461 33.7177 18.5461 33.6919 18.5461C33.666 18.5461 33.6144 18.5461 33.5886 18.572C32.762 19.1144 32.2712 19.9926 31.7288 21.9299C31.548 21.8007 31.4963 21.5683 31.4705 21.2583C31.4705 21.1808 31.4446 21.1033 31.4446 21.0258C31.238 19.7343 31.6255 18.417 32.5295 17.4613C32.7878 17.1771 33.1236 16.9446 33.4852 16.738C33.8727 16.5055 34.2601 16.2731 34.5443 15.9114C34.6993 15.7565 34.8284 15.4982 34.9576 15.2399C35.1384 14.8782 35.345 14.4649 35.6033 14.31C35.6808 14.2841 35.7325 14.2583 35.81 14.2583C35.8874 14.2583 35.9649 14.2841 36.0424 14.3358C36.4557 14.5424 36.6365 15.6531 36.714 16.1181L36.7398 16.2472C37.1015 18.5203 36.8173 20.1734 35.81 21.2583C35.7325 21.3616 35.2417 21.6974 34.8284 22.0332C34.2085 22.4465 33.821 22.7048 33.6144 22.9114Z" fill="#39577E"/>
<path fill-rule="evenodd" clip-rule="evenodd" d="M19.9761 9.6604C18.7363 11.4427 17.6514 13.3541 16.0757 14.9039C15.8691 15.0331 15.6625 15.1881 15.4558 15.3172C14.5001 15.5497 13.7769 15.0589 13.0019 14.5681C12.0204 13.9482 11.5296 12.9408 10.8064 12.0884C10.6772 11.9335 10.5739 11.6752 10.3156 11.7527C10.0056 11.856 10.1348 12.1401 10.1865 12.3726C10.5222 13.7674 11.1163 15.0331 11.8912 16.2213C14.2418 19.8117 17.6256 21.9298 21.7067 23.0146C22.9983 23.3504 24.2898 23.7121 25.7879 23.6862C25.1163 22.8855 24.2123 22.653 23.4632 22.2914C22.0942 21.6456 20.4669 20.5866 19.692 19.2434C18.8912 17.8228 18.9171 16.118 19.1754 14.5423C19.2529 13.9999 20.3636 9.81538 20.2344 9.76372C20.1569 9.73789 20.0536 9.68623 19.9761 9.6604Z" fill="#5573A0"/>
<path fill-rule="evenodd" clip-rule="evenodd" d="M13.1827 11.1586C13.0278 11.2361 12.9761 11.3394 12.9761 11.5202C12.4078 12.8117 12.8728 13.9741 14.1126 14.4648C15.3525 14.9556 16.334 14.5165 16.7215 13.3283C17.1606 11.9851 16.5665 10.8744 15.1717 10.5128C14.6034 10.332 14.0868 10.4353 13.6219 10.8228C13.441 10.8486 13.2861 10.9778 13.1827 11.1586Z" fill="#5573A0"/>
<path fill-rule="evenodd" clip-rule="evenodd" d="M22.6625 23.8155C24.4707 25.0296 26.2013 26.3986 28.216 27.251C28.4485 27.3026 28.7068 27.3543 28.9393 27.4059C29.9208 27.251 30.4116 26.5535 30.9541 25.8045C31.6515 24.8487 31.729 23.738 32.0906 22.679C32.1681 22.4982 32.1422 22.2141 32.4005 22.1882C32.7363 22.1882 32.7105 22.4982 32.7363 22.7048C32.9172 24.1255 32.8397 25.5203 32.5555 26.9152C31.7031 31.1255 29.3267 34.3285 25.943 36.8598C24.8581 37.6606 23.7991 38.4613 22.4042 38.9779C22.74 37.9705 23.4891 37.4281 24.0574 36.834C25.3489 35.4392 26.5112 33.8893 26.4854 31.9262C26.4596 30.144 25.5555 28.5683 24.574 27.1476C24.3415 26.786 22.2493 24.1772 22.4301 24.0222C22.5076 23.9447 22.585 23.8672 22.6625 23.8155Z" fill="#39577E"/>
<path fill-rule="evenodd" clip-rule="evenodd" d="M29.5075 22.7307C29.6625 22.7307 29.7916 22.834 29.8175 22.989C30.8249 23.9705 30.8249 25.2362 29.8433 26.1403C28.8618 27.0443 27.8027 27.0185 26.9761 26.0369C26.0721 24.9521 26.2271 23.7122 27.3894 22.834C27.8544 22.4465 28.371 22.369 28.9392 22.5499C29.1717 22.524 29.3525 22.5757 29.5075 22.7307Z" fill="#39577E"/>
<path d="M45.9613 26.9667C44.334 26.9667 42.9391 26.6567 41.7251 26.011C40.5111 25.3652 39.5037 24.5128 38.6513 23.4021L39.3746 22.7047C40.2528 23.8929 41.2343 24.7453 42.345 25.2361C43.4557 25.7527 44.6698 26.011 46.0388 26.011C47.5627 26.011 48.8284 25.6494 49.81 24.9003C50.7915 24.1512 51.2823 23.118 51.2823 21.7748C51.2823 20.7674 51.0757 19.9667 50.6624 19.3209C50.2491 18.6752 49.7325 18.1844 49.0609 17.7711C48.3893 17.3837 47.6661 17.0221 46.8912 16.7379C46.0904 16.428 45.3155 16.1438 44.5148 15.8339C43.714 15.5239 42.9908 15.1623 42.345 14.7232C41.6734 14.284 41.1568 13.7158 40.7436 13.0184C40.3303 12.3209 40.1236 11.4427 40.1236 10.3578C40.1236 9.35047 40.3561 8.44641 40.8469 7.69733C41.3377 6.94825 42.0092 6.35416 42.8875 5.91504C43.7657 5.50176 44.7731 5.26929 45.9354 5.26929C47.2786 5.26929 48.4926 5.52759 49.5517 6.04419C50.6107 6.5608 51.5148 7.30988 52.2639 8.29143L51.5406 8.98884C50.8432 8.08478 50.0424 7.4132 49.1384 6.92242C48.2343 6.45748 47.1753 6.19918 45.9354 6.19918C44.5148 6.19918 43.3782 6.5608 42.4742 7.28405C41.5701 8.00729 41.131 9.01467 41.131 10.3062C41.131 11.2361 41.3377 12.011 41.7509 12.6051C42.1642 13.1992 42.6808 13.69 43.3524 14.0774C44.024 14.4649 44.7472 14.8007 45.5222 15.0848C46.3229 15.3689 47.0978 15.6531 47.8985 15.963C48.6993 16.273 49.4225 16.6604 50.0683 17.1254C50.7399 17.5903 51.2565 18.1586 51.6698 18.8818C52.083 19.6051 52.2897 20.5091 52.2897 21.594C52.2897 23.3505 51.7214 24.6936 50.5849 25.5977C49.4484 26.5276 47.8985 26.9667 45.9613 26.9667Z" fill="#39577E"/>
<path d="M55.0793 26.6567L63.655 5.60508H64.5849L73.083 26.6567H71.9982L63.8616 6.48331H64.3266L56.1384 26.6567H55.0793ZM58.6439 19.7342V18.8302H69.5185V19.7342H58.6439Z" fill="#39577E"/>
<path d="M77.4742 26.6567V5.60508H78.4816V26.6567H77.4742ZM78.0166 26.6567V25.7527H90.2343V26.6567H78.0166Z" fill="#39577E"/>
<path d="M101.729 26.9667C100.256 26.9667 98.8875 26.6826 97.6218 26.1401C96.3561 25.5977 95.2712 24.8228 94.3413 23.8154C93.4115 22.808 92.6882 21.6715 92.1716 20.3542C91.655 19.0368 91.3967 17.6161 91.3967 16.0922C91.3967 14.5682 91.655 13.1217 92.1716 11.8302C92.6882 10.5128 93.4115 9.3763 94.3413 8.39475C95.2712 7.4132 96.3561 6.66412 97.6218 6.09586C98.8616 5.55342 100.231 5.26929 101.703 5.26929C103.175 5.26929 104.544 5.55342 105.81 6.09586C107.076 6.63829 108.161 7.4132 109.09 8.39475C110.02 9.3763 110.744 10.5128 111.26 11.8302C111.777 13.1475 112.035 14.5682 112.035 16.118C112.035 17.642 111.777 19.0626 111.26 20.38C110.744 21.6973 110.02 22.8597 109.09 23.8412C108.161 24.8228 107.076 25.5977 105.836 26.1401C104.544 26.7084 103.201 26.9667 101.729 26.9667ZM101.651 26.011C103.408 26.011 104.983 25.5719 106.378 24.6936C107.773 23.8154 108.858 22.6272 109.685 21.1549C110.485 19.6567 110.899 17.9778 110.899 16.118C110.899 14.7232 110.666 13.4316 110.201 12.2435C109.736 11.0553 109.09 9.99622 108.264 9.118C107.437 8.21394 106.456 7.54235 105.345 7.02574C104.234 6.53497 102.994 6.27667 101.677 6.27667C99.9207 6.27667 98.345 6.71578 96.9502 7.56818C95.5554 8.42058 94.4705 9.60877 93.6698 11.0811C92.869 12.5534 92.4816 14.2324 92.4816 16.118C92.4816 17.5128 92.714 18.8043 93.179 20.0184C93.6439 21.2324 94.2897 22.2656 95.1162 23.1697C95.9428 24.0737 96.9244 24.7711 98.0351 25.2619C99.1458 25.7527 100.36 26.011 101.651 26.011Z" fill="#39577E"/>
<path d="M117.098 26.6567V5.60508H117.847L118.105 6.92242V26.6567H117.098ZM131.64 26.6567L117.64 6.94825L117.847 5.60508L131.847 25.3136L131.64 26.6567ZM131.64 26.6567L131.382 25.3394V5.60508H132.389V26.6567H131.64Z" fill="#39577E"/>
<path fill-rule="evenodd" clip-rule="evenodd" d="M43.0566 6.26366C42.238 6.6738 41.6212 7.22243 41.171 7.90967C40.7294 8.58359 40.5111 9.41008 40.5111 10.3579C40.5111 11.395 40.7087 12.1995 41.0769 12.8208C41.4636 13.4735 41.9408 13.9959 42.5571 14.3989L42.5629 14.4028C43.1792 14.8219 43.875 15.1707 44.6546 15.4725C45.0532 15.6268 45.4455 15.7747 45.8397 15.9234L45.8402 15.9236C46.2327 16.0715 46.6269 16.2202 47.0279 16.3754C47.8277 16.6689 48.5704 17.0408 49.2545 17.4355C49.2577 17.4374 49.2608 17.4392 49.264 17.4412C49.9807 17.8822 50.5413 18.4129 50.9887 19.1121C51.4517 19.8355 51.6698 20.7139 51.6698 21.7748C51.6698 23.228 51.1309 24.3796 50.045 25.2083C48.9791 26.0218 47.6236 26.3984 46.0388 26.3984C44.6202 26.3984 43.3507 26.1305 42.185 25.589C41.1147 25.1153 40.1715 24.3336 39.3316 23.2844L39.1737 23.4366C39.9454 24.3726 40.8427 25.1028 41.9071 25.6689C43.0546 26.2793 44.3844 26.5793 45.9613 26.5793C47.8434 26.5793 49.2948 26.1526 50.3395 25.2978L50.3437 25.2945C51.3676 24.48 51.9022 23.2609 51.9022 21.594C51.9022 20.5567 51.7046 19.7237 51.3334 19.0741C50.9479 18.3995 50.4703 17.875 49.8477 17.4439L49.8419 17.4398C49.2249 16.9956 48.5311 16.6233 47.7587 16.3243C46.9622 16.016 46.1908 15.7332 45.3926 15.4499L45.3888 15.4486C44.5944 15.1573 43.8508 14.8123 43.1588 14.413C42.4359 13.9959 41.8774 13.4654 41.4329 12.8263C40.9625 12.1502 40.7436 11.2914 40.7436 10.3062C40.7436 8.91567 41.2225 7.78921 42.2321 6.9815C43.2182 6.19267 44.4455 5.81173 45.9354 5.81173C47.2309 5.81173 48.3516 6.08209 49.3156 6.57787C49.3182 6.57919 49.3207 6.58053 49.3232 6.58191C50.1595 7.03588 50.9107 7.63659 51.5756 8.41688L51.7412 8.25719C51.0717 7.45331 50.2856 6.83328 49.3818 6.39243C48.3831 5.90526 47.2286 5.65674 45.9354 5.65674C44.8284 5.65674 43.8791 5.87735 43.0566 6.26366ZM42.7225 5.56447C43.6555 5.12542 44.7196 4.88184 45.9354 4.88184C47.3286 4.88184 48.6022 5.14992 49.7215 5.69597C50.8374 6.2403 51.788 7.02922 52.5719 8.05637C52.6912 8.21276 52.6744 8.43378 52.5328 8.57034L51.8096 9.26775C51.7302 9.34423 51.6221 9.38332 51.5123 9.37526C51.4024 9.3672 51.3011 9.31274 51.2338 9.2255C50.5698 8.36472 49.8116 7.72942 48.9574 7.26502C48.1141 6.83213 47.1179 6.58663 45.9354 6.58663C44.5841 6.58663 43.5383 6.92893 42.7162 7.5866C41.9178 8.22538 41.5185 9.11368 41.5185 10.3062C41.5185 11.1807 41.7128 11.8718 42.069 12.3838C42.451 12.933 42.9258 13.384 43.546 13.7418C44.1966 14.1171 44.899 14.4435 45.6536 14.7203C46.4562 15.0051 47.2341 15.2903 48.0384 15.6017C48.8663 15.9222 49.618 16.3242 50.2918 16.8089C51.0109 17.3074 51.5656 17.9187 52.0062 18.6896C52.4615 19.4865 52.6771 20.4616 52.6771 21.594C52.6771 23.439 52.0759 24.9057 50.8281 25.8993C49.6 26.9031 47.9525 27.3542 45.9613 27.3542C44.2835 27.3542 42.8237 27.0342 41.5432 26.3531C40.2798 25.6811 39.2298 24.7923 38.3439 23.638C38.2239 23.4816 38.2405 23.2601 38.3824 23.1232L39.1056 22.4258C39.1859 22.3484 39.2957 22.3093 39.4069 22.3186C39.5181 22.3279 39.6198 22.3847 39.6861 22.4744C40.5355 23.6235 41.4676 24.4248 42.5016 24.8817L42.5084 24.8848C43.5632 25.3753 44.7207 25.6235 46.0388 25.6235C47.5019 25.6235 48.6778 25.2769 49.5749 24.5923C50.4521 23.9228 50.8949 23.008 50.8949 21.7748C50.8949 20.8209 50.6996 20.0979 50.336 19.5298C49.9579 18.9389 49.4866 18.4888 48.8625 18.104C48.2058 17.7254 47.5046 17.3755 46.7578 17.1017L46.7513 17.0993C46.3528 16.945 45.9604 16.797 45.5663 16.6484L45.5657 16.6482C45.1722 16.4999 44.7769 16.3508 44.3749 16.1952C43.5543 15.8775 42.8045 15.5038 42.13 15.0455C41.4046 14.5705 40.8495 13.9571 40.4102 13.2159C39.9519 12.4424 39.7362 11.4905 39.7362 10.3579C39.7362 9.29086 39.9828 8.30923 40.5228 7.485C41.0533 6.67524 41.7785 6.03636 42.7142 5.5685C42.7169 5.56712 42.7197 5.56578 42.7225 5.56447ZM101.703 5.65674C100.282 5.65674 98.9667 5.93064 97.7787 6.4501C96.5562 6.99924 95.5146 7.71972 94.6226 8.66122C93.7277 9.60588 93.0311 10.6998 92.5323 11.9716L92.5313 11.9741C92.0352 13.2145 91.7841 14.6114 91.7841 16.0922C91.7841 17.5715 92.0347 18.9438 92.5323 20.2127C93.0309 21.4842 93.7281 22.5798 94.626 23.5526C95.5198 24.5208 96.5599 25.2635 97.7744 25.784C98.9907 26.3053 100.308 26.5793 101.729 26.5793C103.153 26.5793 104.443 26.3299 105.68 25.7855L105.681 25.7852C106.871 25.2643 107.913 24.5202 108.809 23.5748C109.702 22.632 110.4 21.513 110.899 20.2385C111.397 18.9696 111.648 17.5973 111.648 16.118C111.648 14.6124 111.397 13.2402 110.899 11.9716C110.401 10.6998 109.704 9.60588 108.809 8.66122C107.914 7.71613 106.872 6.97262 105.657 6.45198C104.441 5.9307 103.124 5.65674 101.703 5.65674ZM97.4665 5.74089C98.7578 5.17595 100.18 4.88184 101.703 4.88184C103.227 4.88184 104.648 5.17615 105.963 5.73973C107.279 6.30397 108.407 7.11027 109.372 8.12828C110.337 9.14672 111.086 10.3259 111.621 11.6887C112.157 13.0549 112.423 14.524 112.423 16.118C112.423 17.6866 112.156 19.1557 111.621 20.5214C111.087 21.8817 110.338 23.0874 109.372 24.1077C108.408 25.1254 107.28 25.9311 105.991 26.4951C104.646 27.087 103.249 27.3542 101.729 27.3542C100.205 27.3542 98.7842 27.0598 97.4692 26.4963C96.1523 25.9319 95.0227 25.1247 94.0566 24.0782C93.0948 23.0363 92.3455 21.8588 91.8109 20.4956C91.2753 19.1298 91.0092 17.6608 91.0092 16.0922C91.0092 14.5253 91.2747 13.0296 91.8115 11.6873C92.3459 10.3251 93.0956 9.14637 94.0601 8.12828C95.0275 7.10713 96.155 6.32969 97.4631 5.7424L97.4665 5.74089ZM63.2962 5.45891C63.3556 5.31302 63.4975 5.21763 63.655 5.21763H64.5849C64.7429 5.21763 64.885 5.31355 64.9442 5.46005L73.4423 26.5117C73.4905 26.6311 73.4763 26.7667 73.4042 26.8735C73.3322 26.9802 73.2118 27.0442 73.083 27.0442H71.9982C71.8401 27.0442 71.698 26.9482 71.6388 26.8017L68.9446 20.1217H59.2091L56.4974 26.8025C56.4381 26.9486 56.2961 27.0442 56.1384 27.0442H55.0794C54.9504 27.0442 54.8298 26.98 54.7578 26.8729C54.6858 26.7659 54.6719 26.63 54.7205 26.5106L63.2962 5.45891ZM59.5236 19.3468H68.6321L68.58 19.2176H59.576L59.5236 19.3468ZM59.8905 18.4427H68.2674L64.0922 8.09089L59.8905 18.4427ZM63.6754 7.05741L59.0542 18.4427H58.8438L63.5791 6.81852L63.6754 7.05741ZM64.5113 7.05833L69.103 18.4427H69.3494L64.6329 6.75897L64.5113 7.05833ZM64.366 6.09786L64.3235 5.99254H63.9155L63.8734 6.09586H64.3266C64.3398 6.09586 64.353 6.09653 64.366 6.09786ZM69.7494 20.0454C69.8263 19.9882 69.8813 19.9032 69.8994 19.8053L72.5088 26.2693H72.2597L69.7494 20.0454ZM58.2726 19.845C58.2958 19.9232 58.3432 19.9911 58.4059 20.04L55.8775 26.2693H55.6556L58.2726 19.845ZM77.0867 5.60508C77.0867 5.3911 77.2602 5.21763 77.4742 5.21763H78.4816C78.6955 5.21763 78.869 5.3911 78.869 5.60508V25.3652H90.2343C90.4483 25.3652 90.6218 25.5387 90.6218 25.7527V26.6567C90.6218 26.8707 90.4483 27.0442 90.2343 27.0442H77.4742C77.2602 27.0442 77.0867 26.8707 77.0867 26.6567V5.60508ZM78.869 26.2693H89.8469V26.1401H78.869V26.2693ZM78.0941 25.3652V5.99254H77.8616V25.3975C77.9091 25.3767 77.9615 25.3652 78.0166 25.3652H78.0941ZM116.71 5.60508C116.71 5.3911 116.884 5.21763 117.098 5.21763H117.847C117.972 5.21763 118.09 5.2784 118.163 5.3807L130.994 23.4446V5.60508C130.994 5.3911 131.168 5.21763 131.382 5.21763H132.389C132.603 5.21763 132.777 5.3911 132.777 5.60508V26.6567C132.777 26.8707 132.603 27.0442 132.389 27.0442H131.64C131.515 27.0442 131.397 26.9834 131.324 26.8811L118.493 8.81727V26.6567C118.493 26.8707 118.319 27.0442 118.105 27.0442H117.098C116.884 27.0442 116.71 26.8707 116.71 26.6567V5.60508ZM117.718 7.7264V26.2693H117.485V7.39913L117.718 7.7264ZM118.493 7.47918L130.994 25.0786V24.7827L118.493 7.18319V7.47918ZM132.002 24.8627V5.99254H131.769V24.5354L132.002 24.8627ZM96.7482 7.23758C98.2067 6.34626 99.8528 5.88922 101.677 5.88922C103.045 5.88922 104.339 6.1576 105.502 6.67135L105.508 6.67444C106.657 7.20851 107.682 7.90779 108.548 8.85476C109.411 9.77268 110.082 10.8746 110.562 12.1023C111.046 13.3395 111.286 14.6794 111.286 16.118C111.286 18.0373 110.859 19.7796 110.026 21.3375C110.026 21.3388 110.025 21.3401 110.024 21.3414L110.022 21.3446C109.167 22.8677 108.039 24.1057 106.585 25.0215C105.124 25.9413 103.476 26.3984 101.651 26.3984C100.307 26.3984 99.0397 26.1294 97.8785 25.6163C96.7198 25.1043 95.6939 24.3756 94.8303 23.4311C93.9709 22.4911 93.2994 21.4162 92.8172 20.1569C92.3342 18.896 92.0941 17.5572 92.0941 16.118C92.0941 14.178 92.4932 12.4335 93.3294 10.896C94.1596 9.36952 95.29 8.1287 96.7482 7.23758ZM101.677 6.66412C99.9886 6.66412 98.4834 7.08531 97.1522 7.89879C95.8208 8.71247 94.7814 9.84803 94.0101 11.2662C93.2449 12.6733 92.869 14.2868 92.869 16.118C92.869 17.4685 93.0939 18.7127 93.5408 19.8798C93.9884 21.0485 94.6085 22.0401 95.4022 22.9082C96.1918 23.7718 97.129 24.4379 98.1917 24.9075C99.2519 25.376 100.412 25.6235 101.651 25.6235C103.34 25.6235 104.843 25.2025 106.172 24.3658C107.506 23.5259 108.547 22.3886 109.345 20.9687C110.112 19.5312 110.511 17.9168 110.511 16.118C110.511 14.767 110.286 13.5238 109.84 12.3846C109.391 11.237 108.771 10.2216 107.982 9.38355L107.978 9.37944C107.192 8.52009 106.256 7.87718 105.185 7.37861C104.127 6.9118 102.942 6.66412 101.677 6.66412Z" fill="#39577E"/>
<path d="M46.8392 37.4025C46.5551 37.4025 46.271 37.3508 46.0385 37.2733C45.7802 37.1958 45.5477 37.0667 45.3669 36.9375C45.1603 36.7826 44.9794 36.6276 44.8245 36.4468L45.0828 36.1885C45.3152 36.4984 45.5735 36.7051 45.8835 36.86C46.1935 37.015 46.5293 37.0667 46.8651 37.0667C47.3042 37.0667 47.6658 36.9634 47.9241 36.7826C48.1824 36.6017 48.3115 36.3176 48.3115 35.9818C48.3115 35.6977 48.2341 35.4394 48.0791 35.2844C47.9241 35.1036 47.7175 34.9744 47.485 34.8969C47.2525 34.8195 46.9942 34.7161 46.7101 34.6386C46.4518 34.5612 46.1935 34.4578 45.9352 34.3545C45.6769 34.2512 45.496 34.0962 45.3411 33.9154C45.1861 33.7346 45.1086 33.4763 45.1086 33.1405C45.1086 32.8822 45.1861 32.6497 45.3152 32.4431C45.4444 32.2364 45.651 32.0814 45.9093 31.9523C46.1676 31.8231 46.4776 31.7715 46.8134 31.7715C47.2008 31.7715 47.5366 31.849 47.8724 31.9781C48.2082 32.1073 48.4407 32.3139 48.6215 32.5722L48.3632 32.8305C48.2082 32.6239 48.0016 32.4431 47.7175 32.3139C47.4333 32.1848 47.1234 32.1331 46.7876 32.1331C46.3484 32.1331 46.0127 32.2364 45.806 32.4172C45.5735 32.6239 45.4702 32.8564 45.4702 33.1405C45.4702 33.4246 45.5477 33.6313 45.7027 33.7862C45.8577 33.9412 46.0643 34.0704 46.2968 34.1479C46.5293 34.2254 46.7876 34.3029 47.0717 34.3803C47.3558 34.4578 47.5883 34.5353 47.8466 34.6645C48.0791 34.7678 48.2857 34.9228 48.4407 35.1294C48.5957 35.3361 48.6732 35.5944 48.6732 35.956C48.6732 36.3951 48.5182 36.7567 48.1824 37.015C47.8466 37.2733 47.4075 37.4025 46.8392 37.4025Z" fill="#353A48"/>
<path d="M55.7506 37.4025C55.3373 37.4025 54.9499 37.2992 54.6141 37.0925C54.2783 36.8859 54.02 36.6276 53.8392 36.2659C53.6584 35.9043 53.5551 35.491 53.5551 35.0261V31.9006H53.9167V35.0261C53.9167 35.4136 53.9942 35.7752 54.1492 36.0851C54.3041 36.3951 54.5108 36.6276 54.7949 36.8084C55.079 36.9892 55.389 37.0667 55.7506 37.0667C56.2931 37.0667 56.7322 36.8859 57.068 36.4984C57.4038 36.111 57.5587 35.6202 57.5587 35.0261V31.9006H57.9204V35.0261C57.9204 35.491 57.817 35.9043 57.6362 36.2659C57.4554 36.6276 57.1971 36.9117 56.8613 37.0925C56.5255 37.2733 56.1639 37.4025 55.7506 37.4025Z" fill="#353A48"/>
<path d="M63.1897 37.2991V29.1626H63.5513V33.2438L63.4222 34.5353L63.5513 35.8785V37.325H63.1897V37.2991ZM65.8502 37.4025C65.4369 37.4025 65.0753 37.325 64.7395 37.17C64.4037 37.015 64.1196 36.7825 63.8871 36.4984C63.6546 36.2143 63.4738 35.8785 63.3963 35.491V33.6571C63.4997 33.2696 63.6546 32.908 63.8871 32.6497C64.1196 32.3655 64.4295 32.1589 64.7653 32.0039C65.1011 31.8489 65.4628 31.7715 65.876 31.7715C66.3926 31.7715 66.8576 31.9006 67.245 32.1331C67.6583 32.3914 67.9683 32.7013 68.2008 33.1405C68.4332 33.5537 68.5624 34.0445 68.5624 34.587C68.5624 35.1294 68.4591 35.5943 68.2266 36.0076C67.9941 36.4209 67.6842 36.7567 67.2709 37.015C66.8318 37.2991 66.3668 37.4025 65.8502 37.4025ZM65.7727 37.0667C66.2377 37.0667 66.6509 36.9633 67.0126 36.7567C67.3742 36.5501 67.6583 36.2659 67.8391 35.8785C68.0458 35.5168 68.1491 35.0777 68.1491 34.6128C68.1491 34.122 68.0458 33.7087 67.8391 33.3213C67.6325 32.9596 67.3484 32.6497 67.0126 32.443C66.6509 32.2364 66.2635 32.1331 65.7986 32.1331C65.3336 32.1331 64.9462 32.2364 64.6104 32.443C64.2746 32.6497 63.9904 32.9338 63.8096 33.3213C63.603 33.6829 63.5255 34.122 63.5255 34.6128C63.5255 35.0777 63.6288 35.5168 63.8096 35.8785C63.9904 36.2401 64.2746 36.5501 64.6104 36.7567C64.9462 36.9633 65.3336 37.0667 65.7727 37.0667Z" fill="#353A48"/>
<path d="M75.1233 37.4025C74.8392 37.4025 74.5551 37.3508 74.3226 37.2733C74.0643 37.1958 73.8318 37.0667 73.651 36.9375C73.4444 36.7826 73.2636 36.6276 73.1086 36.4468L73.3669 36.1885C73.5994 36.4984 73.8577 36.7051 74.1676 36.86C74.4776 37.015 74.8134 37.0667 75.1492 37.0667C75.5883 37.0667 75.9499 36.9634 76.2082 36.7826C76.4665 36.6017 76.5957 36.3176 76.5957 35.9818C76.5957 35.6977 76.5182 35.4394 76.3632 35.2844C76.2082 35.1036 76.0016 34.9744 75.7691 34.8969C75.5366 34.8195 75.2783 34.7161 74.9942 34.6386C74.7359 34.5612 74.4776 34.4578 74.2193 34.3545C73.961 34.2512 73.7802 34.0962 73.6252 33.9154C73.4702 33.7346 73.3927 33.4763 73.3927 33.1405C73.3927 32.8822 73.4702 32.6497 73.5994 32.4431C73.7285 32.2364 73.9352 32.0814 74.1935 31.9523C74.4518 31.8231 74.7617 31.7715 75.0975 31.7715C75.485 31.7715 75.8208 31.849 76.1565 31.9781C76.4923 32.1073 76.7248 32.3139 76.9056 32.5722L76.6473 32.8305C76.4923 32.6239 76.2857 32.4431 76.0016 32.3139C75.7174 32.1848 75.4075 32.1331 75.0717 32.1331C74.6326 32.1331 74.2968 32.2364 74.0901 32.4172C73.8577 32.6239 73.7543 32.8564 73.7543 33.1405C73.7543 33.4246 73.8318 33.6313 73.9868 33.7862C74.1418 33.9412 74.3484 34.0704 74.5809 34.1479C74.8134 34.2254 75.0717 34.3029 75.3558 34.3803C75.6399 34.4578 75.8724 34.5353 76.1307 34.6645C76.3632 34.7678 76.5698 34.9228 76.7248 35.1294C76.8798 35.3361 76.9573 35.5944 76.9573 35.956C76.9573 36.3951 76.8023 36.7567 76.4665 37.015C76.1049 37.2733 75.6658 37.4025 75.1233 37.4025Z" fill="#353A48"/>
<path d="M81.3743 32.2363V31.9263H84.5772V32.2363H81.3743ZM82.8208 37.299V29.6274H83.1824V37.299H82.8208Z" fill="#353A48"/>
<path d="M89.5624 30.5833C89.4591 30.5833 89.3816 30.5316 89.3041 30.4542C89.2266 30.3767 89.2008 30.2992 89.2008 30.1959C89.2008 30.0925 89.2266 29.9892 89.3041 29.9375C89.3816 29.8859 89.4591 29.8342 89.5624 29.8342C89.6658 29.8342 89.7691 29.8601 89.8466 29.9375C89.9241 30.015 89.9499 30.0925 89.9499 30.1959C89.9499 30.2992 89.9241 30.3767 89.8466 30.4542C89.7691 30.5316 89.6658 30.5833 89.5624 30.5833ZM89.3816 37.2992V31.9265H89.7432V37.2992H89.3816Z" fill="#353A48"/>
<path d="M94.5734 32.2363V31.9263H97.7764V32.2363H94.5734ZM95.9941 37.299V29.6274H96.3557V37.299H95.9941Z" fill="#353A48"/>
<path d="M104.647 37.4025C104.234 37.4025 103.846 37.2992 103.511 37.0925C103.175 36.8859 102.917 36.6276 102.736 36.2659C102.555 35.9043 102.452 35.491 102.452 35.0261V31.9006H102.813V35.0261C102.813 35.4136 102.891 35.7752 103.046 36.0851C103.201 36.3951 103.407 36.6276 103.692 36.8084C103.976 36.9892 104.286 37.0667 104.647 37.0667C105.19 37.0667 105.629 36.8859 105.965 36.4984C106.3 36.111 106.455 35.6202 106.455 35.0261V31.9006H106.817V35.0261C106.817 35.491 106.714 35.9043 106.533 36.2659C106.352 36.6276 106.094 36.9117 105.758 37.0925C105.422 37.2733 105.061 37.4025 104.647 37.4025Z" fill="#353A48"/>
<path d="M111.492 32.2363V31.9263H114.695V32.2363H111.492ZM112.939 37.299V29.6274H113.3V37.299H112.939Z" fill="#353A48"/>
<path d="M121.747 37.4025C121.205 37.4025 120.74 37.2734 120.301 37.0409C119.887 36.7826 119.552 36.4726 119.293 36.0335C119.035 35.6202 118.932 35.1295 118.932 34.587C118.932 34.0446 119.061 33.5796 119.293 33.1664C119.526 32.7531 119.861 32.4173 120.275 32.159C120.688 31.9007 121.153 31.7974 121.695 31.7974C122.186 31.7974 122.599 31.9007 122.987 32.1073C123.349 32.314 123.659 32.6239 123.865 33.0114C124.072 33.3988 124.175 33.838 124.175 34.3287C124.175 34.3546 124.175 34.4062 124.175 34.4837C124.175 34.5612 124.149 34.6387 124.149 34.742H119.216V34.4062H123.917L123.813 34.4837C123.839 34.0188 123.762 33.6313 123.607 33.2697C123.426 32.9081 123.194 32.6498 122.858 32.4431C122.522 32.2365 122.16 32.1332 121.695 32.1332C121.23 32.1332 120.817 32.2365 120.456 32.4431C120.094 32.6498 119.836 32.9339 119.629 33.2955C119.422 33.6571 119.319 34.0704 119.319 34.5612C119.319 35.052 119.422 35.4911 119.629 35.8785C119.836 36.2402 120.12 36.5501 120.507 36.7568C120.869 36.9634 121.308 37.0667 121.825 37.0667C122.186 37.0667 122.548 36.9892 122.858 36.8601C123.168 36.7309 123.452 36.4985 123.659 36.2402L123.917 36.4985C123.684 36.7826 123.374 37.0151 122.987 37.1701C122.574 37.325 122.186 37.4025 121.747 37.4025Z" fill="#353A48"/>
</svg>
