
<svg width="32" height="33" viewBox="0 0 32 33" fill="none" xmlns="http://www.w3.org/2000/svg">
<path d="M0 16.75C0 7.91344 7.16344 0.75 16 0.75C24.8366 0.75 32 7.91344 32 16.75C32 25.5866 24.8366 32.75 16 32.75C7.16344 32.75 0 25.5866 0 16.75Z" fill="#2892D7"/>
<path d="M16 10.0833C15.1245 10.0833 14.2576 10.2558 13.4488 10.5908C12.6399 10.9258 11.905 11.4169 11.286 12.036C10.0357 13.2862 9.33334 14.9819 9.33334 16.75C9.32751 18.2894 9.86053 19.7824 10.84 20.97L9.50667 22.3033C9.41416 22.3971 9.3515 22.5161 9.32658 22.6455C9.30167 22.7748 9.31562 22.9086 9.36667 23.03C9.42204 23.15 9.5118 23.2508 9.62457 23.3196C9.73733 23.3884 9.868 23.4222 10 23.4167H16C17.7681 23.4167 19.4638 22.7143 20.714 21.4641C21.9643 20.2138 22.6667 18.5181 22.6667 16.75C22.6667 14.9819 21.9643 13.2862 20.714 12.036C19.4638 10.7857 17.7681 10.0833 16 10.0833ZM16 22.0833H11.6067L12.2267 21.4633C12.3508 21.3384 12.4205 21.1695 12.4205 20.9933C12.4205 20.8172 12.3508 20.6483 12.2267 20.5233C11.3537 19.6514 10.8101 18.5037 10.6885 17.2759C10.5668 16.048 10.8746 14.816 11.5595 13.7897C12.2443 12.7634 13.2639 12.0062 14.4443 11.6473C15.6248 11.2884 16.8932 11.3499 18.0335 11.8213C19.1737 12.2927 20.1152 13.1449 20.6976 14.2326C21.28 15.3203 21.4672 16.5764 21.2274 17.7867C20.9876 18.997 20.3355 20.0867 19.3824 20.8702C18.4292 21.6536 17.2338 22.0824 16 22.0833ZM19.3333 16.0833H12.6667C12.4899 16.0833 12.3203 16.1536 12.1953 16.2786C12.0702 16.4036 12 16.5732 12 16.75C12 16.9268 12.0702 17.0964 12.1953 17.2214C12.3203 17.3464 12.4899 17.4167 12.6667 17.4167H19.3333C19.5101 17.4167 19.6797 17.3464 19.8047 17.2214C19.9298 17.0964 20 16.9268 20 16.75C20 16.5732 19.9298 16.4036 19.8047 16.2786C19.6797 16.1536 19.5101 16.0833 19.3333 16.0833ZM18 18.75H14C13.8232 18.75 13.6536 18.8202 13.5286 18.9453C13.4036 19.0703 13.3333 19.2399 13.3333 19.4167C13.3333 19.5935 13.4036 19.7631 13.5286 19.8881C13.6536 20.0131 13.8232 20.0833 14 20.0833H18C18.1768 20.0833 18.3464 20.0131 18.4714 19.8881C18.5964 19.7631 18.6667 19.5935 18.6667 19.4167C18.6667 19.2399 18.5964 19.0703 18.4714 18.9453C18.3464 18.8202 18.1768 18.75 18 18.75ZM14 14.75H18C18.1768 14.75 18.3464 14.6798 18.4714 14.5547C18.5964 14.4297 18.6667 14.2602 18.6667 14.0833C18.6667 13.9065 18.5964 13.737 18.4714 13.6119C18.3464 13.4869 18.1768 13.4167 18 13.4167H14C13.8232 13.4167 13.6536 13.4869 13.5286 13.6119C13.4036 13.737 13.3333 13.9065 13.3333 14.0833C13.3333 14.2602 13.4036 14.4297 13.5286 14.5547C13.6536 14.6798 13.8232 14.75 14 14.75Z" fill="white"/>
</svg>
