<svg width="14" height="14" viewBox="0 0 14 14" fill="none" xmlns="http://www.w3.org/2000/svg">
<path d="M6.99991 0.333332C6.12443 0.333332 5.25752 0.505771 4.44869 0.840802C3.63985 1.17583 2.90492 1.6669 2.28587 2.28595C1.03562 3.5362 0.333244 5.23189 0.333244 7C0.327416 8.53942 0.860439 10.0324 1.83991 11.22L0.506577 12.5533C0.414072 12.6471 0.351408 12.7661 0.326492 12.8955C0.301576 13.0248 0.315524 13.1586 0.366577 13.28C0.421949 13.4 0.511713 13.5007 0.624475 13.5696C0.737237 13.6384 0.867911 13.6722 0.999911 13.6667H6.99991C8.76802 13.6667 10.4637 12.9643 11.714 11.714C12.9642 10.4638 13.6666 8.76811 13.6666 7C13.6666 5.23189 12.9642 3.5362 11.714 2.28595C10.4637 1.03571 8.76802 0.333332 6.99991 0.333332ZM6.99991 12.3333H2.60658L3.22658 11.7133C3.35074 11.5884 3.42044 11.4195 3.42044 11.2433C3.42044 11.0672 3.35074 10.8982 3.22658 10.7733C2.35363 9.90136 1.81003 8.75369 1.68837 7.52586C1.56672 6.29803 1.87454 5.066 2.5594 4.03968C3.24425 3.01336 4.26377 2.25624 5.44425 1.89731C6.62474 1.53839 7.89315 1.59987 9.03339 2.07127C10.1736 2.54268 11.1151 3.39485 11.6975 4.48259C12.2799 5.57034 12.4672 6.82636 12.2273 8.03667C11.9875 9.24698 11.3354 10.3367 10.3823 11.1202C9.42909 11.9036 8.23375 12.3324 6.99991 12.3333ZM10.3332 6.33333H3.66658C3.48977 6.33333 3.3202 6.40357 3.19517 6.52859C3.07015 6.65362 2.99991 6.82319 2.99991 7C2.99991 7.17681 3.07015 7.34638 3.19517 7.4714C3.3202 7.59643 3.48977 7.66667 3.66658 7.66667H10.3332C10.5101 7.66667 10.6796 7.59643 10.8046 7.4714C10.9297 7.34638 10.9999 7.17681 10.9999 7C10.9999 6.82319 10.9297 6.65362 10.8046 6.52859C10.6796 6.40357 10.5101 6.33333 10.3332 6.33333ZM8.99991 9H4.99991C4.8231 9 4.65353 9.07024 4.52851 9.19526C4.40348 9.32029 4.33324 9.48985 4.33324 9.66667C4.33324 9.84348 4.40348 10.013 4.52851 10.1381C4.65353 10.2631 4.8231 10.3333 4.99991 10.3333H8.99991C9.17672 10.3333 9.34629 10.2631 9.47131 10.1381C9.59634 10.013 9.66658 9.84348 9.66658 9.66667C9.66658 9.48985 9.59634 9.32029 9.47131 9.19526C9.34629 9.07024 9.17672 9 8.99991 9ZM4.99991 5H8.99991C9.17672 5 9.34629 4.92976 9.47131 4.80474C9.59634 4.67971 9.66658 4.51014 9.66658 4.33333C9.66658 4.15652 9.59634 3.98695 9.47131 3.86193C9.34629 3.7369 9.17672 3.66667 8.99991 3.66667H4.99991C4.8231 3.66667 4.65353 3.7369 4.52851 3.86193C4.40348 3.98695 4.33324 4.15652 4.33324 4.33333C4.33324 4.51014 4.40348 4.67971 4.52851 4.80474C4.65353 4.92976 4.8231 5 4.99991 5Z" fill="#2892D7"/>
</svg>
