<svg width="14" height="14" viewBox="0 0 14 14" fill="none" xmlns="http://www.w3.org/2000/svg">
<path d="M7.00003 0.333252C6.12455 0.333252 5.25765 0.50569 4.44881 0.840722C3.63997 1.17575 2.90504 1.66682 2.28599 2.28587C1.03575 3.53612 0.333366 5.23181 0.333366 6.99992C0.327538 8.53934 0.860561 10.0323 1.84003 11.2199L0.506699 12.5533C0.414194 12.647 0.35153 12.766 0.326614 12.8954C0.301698 13.0247 0.315646 13.1585 0.366699 13.2799C0.422071 13.3999 0.511835 13.5007 0.624597 13.5695C0.737359 13.6384 0.868033 13.6721 1.00003 13.6666H7.00003C8.76814 13.6666 10.4638 12.9642 11.7141 11.714C12.9643 10.4637 13.6667 8.76803 13.6667 6.99992C13.6667 5.23181 12.9643 3.53612 11.7141 2.28587C10.4638 1.03563 8.76814 0.333252 7.00003 0.333252V0.333252ZM7.00003 12.3333H2.6067L3.2267 11.7133C3.35087 11.5883 3.42056 11.4194 3.42056 11.2433C3.42056 11.0671 3.35087 10.8982 3.2267 10.7733C2.35376 9.90128 1.81015 8.75361 1.68849 7.52578C1.56684 6.29795 1.87466 5.06592 2.55952 4.0396C3.24437 3.01328 4.26389 2.25616 5.44438 1.89723C6.62486 1.53831 7.89327 1.59979 9.03351 2.07119C10.1737 2.5426 11.1153 3.39477 11.6977 4.48251C12.28 5.57026 12.4673 6.82628 12.2275 8.03659C11.9876 9.2469 11.3356 10.3366 10.3824 11.1201C9.42921 11.9035 8.23387 12.3323 7.00003 12.3333V12.3333ZM10.3334 6.33325H3.6667C3.48989 6.33325 3.32032 6.40349 3.1953 6.52851C3.07027 6.65354 3.00003 6.82311 3.00003 6.99992C3.00003 7.17673 3.07027 7.3463 3.1953 7.47132C3.32032 7.59635 3.48989 7.66659 3.6667 7.66659H10.3334C10.5102 7.66659 10.6797 7.59635 10.8048 7.47132C10.9298 7.3463 11 7.17673 11 6.99992C11 6.82311 10.9298 6.65354 10.8048 6.52851C10.6797 6.40349 10.5102 6.33325 10.3334 6.33325ZM9.00003 8.99992H5.00003C4.82322 8.99992 4.65365 9.07016 4.52863 9.19518C4.4036 9.32021 4.33337 9.48977 4.33337 9.66659C4.33337 9.8434 4.4036 10.013 4.52863 10.138C4.65365 10.263 4.82322 10.3333 5.00003 10.3333H9.00003C9.17684 10.3333 9.34641 10.263 9.47144 10.138C9.59646 10.013 9.6667 9.8434 9.6667 9.66659C9.6667 9.48977 9.59646 9.32021 9.47144 9.19518C9.34641 9.07016 9.17684 8.99992 9.00003 8.99992ZM5.00003 4.99992H9.00003C9.17684 4.99992 9.34641 4.92968 9.47144 4.80466C9.59646 4.67963 9.6667 4.51006 9.6667 4.33325C9.6667 4.15644 9.59646 3.98687 9.47144 3.86185C9.34641 3.73682 9.17684 3.66659 9.00003 3.66659H5.00003C4.82322 3.66659 4.65365 3.73682 4.52863 3.86185C4.4036 3.98687 4.33337 4.15644 4.33337 4.33325C4.33337 4.51006 4.4036 4.67963 4.52863 4.80466C4.65365 4.92968 4.82322 4.99992 5.00003 4.99992V4.99992Z" fill="#212121"/>
</svg>
