
<svg width="14" height="14" viewBox="0 0 14 14" fill="none" xmlns="http://www.w3.org/2000/svg">
<path d="M11.6667 3.33333H9.66671V2.66667C9.66671 2.13623 9.45599 1.62753 9.08092 1.25245C8.70585 0.87738 8.19714 0.666667 7.66671 0.666667H6.33337C5.80294 0.666667 5.29423 0.87738 4.91916 1.25245C4.54409 1.62753 4.33337 2.13623 4.33337 2.66667V3.33333H2.33337C1.80294 3.33333 1.29423 3.54405 0.919161 3.91912C0.544088 4.29419 0.333374 4.8029 0.333374 5.33333V11.3333C0.333374 11.8638 0.544088 12.3725 0.919161 12.7475C1.29423 13.1226 1.80294 13.3333 2.33337 13.3333H11.6667C12.1971 13.3333 12.7058 13.1226 13.0809 12.7475C13.456 12.3725 13.6667 11.8638 13.6667 11.3333V5.33333C13.6667 4.8029 13.456 4.29419 13.0809 3.91912C12.7058 3.54405 12.1971 3.33333 11.6667 3.33333ZM5.66671 2.66667C5.66671 2.48986 5.73695 2.32029 5.86197 2.19526C5.98699 2.07024 6.15656 2 6.33337 2H7.66671C7.84352 2 8.01309 2.07024 8.13811 2.19526C8.26314 2.32029 8.33337 2.48986 8.33337 2.66667V3.33333H5.66671V2.66667ZM12.3334 11.3333C12.3334 11.5101 12.2631 11.6797 12.1381 11.8047C12.0131 11.9298 11.8435 12 11.6667 12H2.33337C2.15656 12 1.98699 11.9298 1.86197 11.8047C1.73695 11.6797 1.66671 11.5101 1.66671 11.3333V7.66667C3.36421 8.34009 5.17383 8.68618 7.00004 8.68667C8.82619 8.68554 10.6357 8.33948 12.3334 7.66667V11.3333ZM12.3334 6.20667C10.6523 6.94518 8.83618 7.32652 7.00004 7.32652C5.1639 7.32652 3.34778 6.94518 1.66671 6.20667V5.33333C1.66671 5.15652 1.73695 4.98695 1.86197 4.86193C1.98699 4.7369 2.15656 4.66667 2.33337 4.66667H11.6667C11.8435 4.66667 12.0131 4.7369 12.1381 4.86193C12.2631 4.98695 12.3334 5.15652 12.3334 5.33333V6.20667Z" fill="black"/>
</svg>
