
<svg width="32" height="33" viewBox="0 0 32 33" fill="none" xmlns="http://www.w3.org/2000/svg">
<path d="M0 16.75C0 7.91344 7.16344 0.75 16 0.75C24.8366 0.75 32 7.91344 32 16.75C32 25.5866 24.8366 32.75 16 32.75C7.16344 32.75 0 25.5866 0 16.75Z" fill="#2892D7"/>
<path d="M21.7381 19.5795C21.3672 18.9411 20.925 17.7294 20.925 15.5833V15.1398C20.925 12.372 18.7045 10.1037 15.9752 10.0835C15.9625 10.0834 15.9498 10.0833 15.9371 10.0833C14.6127 10.0851 13.3433 10.6128 12.408 11.5505C11.4727 12.4882 10.9482 13.759 10.9499 15.0833V15.5833C10.9499 17.7293 10.5075 18.9409 10.1364 19.5793C10.0477 19.7311 10.0007 19.9037 10 20.0795C9.99932 20.2553 10.045 20.4282 10.1325 20.5807C10.2199 20.7333 10.346 20.8601 10.4981 20.9483C10.6502 21.0365 10.8228 21.0831 10.9987 21.0833H13.4372C13.4372 21.7464 13.7006 22.3823 14.1694 22.8511C14.6383 23.3199 15.2742 23.5833 15.9372 23.5833C16.6003 23.5833 17.2361 23.3199 17.705 22.8511C18.1738 22.3823 18.4372 21.7464 18.4372 21.0833H20.8757C21.0515 21.0831 21.2242 21.0365 21.3762 20.9483C21.5283 20.8601 21.6544 20.7334 21.7419 20.5809C21.8293 20.4284 21.875 20.2555 21.8744 20.0797C21.8737 19.9039 21.8267 19.7314 21.7381 19.5795ZM15.9372 22.5833C15.5395 22.5829 15.1583 22.4247 14.8771 22.1435C14.5958 21.8623 14.4377 21.481 14.4372 21.0833H17.4372C17.4368 21.481 17.2786 21.8623 16.9974 22.1435C16.7162 22.4247 16.3349 22.5829 15.9372 22.5833Z" fill="white"/>
</svg>
