
<svg width="24" height="24" viewBox="0 0 24 24" fill="none" xmlns="http://www.w3.org/2000/svg">
<path d="M12.3096 1C7.1773 1 3.00195 5.17535 3.00195 10.3077C3.00195 15.3152 11.4047 22.4961 11.7626 22.799C11.9204 22.9332 12.115 23 12.3096 23C12.5043 23 12.6989 22.9332 12.8567 22.799C13.2146 22.4961 21.6173 15.3152 21.6173 10.3077C21.6173 5.17535 17.442 1 12.3096 1ZM12.3096 21.0314C9.76315 18.7587 4.69426 13.5616 4.69426 10.3077C4.69426 6.10865 8.11061 2.69231 12.3096 2.69231C16.5087 2.69231 19.925 6.10865 19.925 10.3077C19.925 13.5616 14.8561 18.7587 12.3096 21.0314Z" fill="white"/>
<circle cx="12.5918" cy="10.3077" r="2.82051" fill="white"/>
</svg>
