<svg width="22" height="21" viewBox="0 0 22 21" fill="none" xmlns="http://www.w3.org/2000/svg">
<path d="M21.479 7.47922C21.6444 7.60806 21.7688 7.78211 21.8373 7.98026C21.8899 8.17838 21.8853 8.38737 21.824 8.58297C21.7626 8.77857 21.647 8.95275 21.4906 9.08526L17.0164 13.4186L18.0998 19.5719C18.1384 19.775 18.1182 19.985 18.0414 20.1769C17.9646 20.3689 17.8345 20.5349 17.6664 20.6553C17.4805 20.7898 17.2567 20.8619 17.0273 20.8611C16.8527 20.8617 16.681 20.8169 16.5289 20.7311L11.0039 17.8278L5.45726 20.7203C5.27934 20.8146 5.07865 20.8575 4.87772 20.8441C4.67679 20.8307 4.48357 20.7615 4.31976 20.6444C4.15168 20.524 4.02157 20.358 3.94478 20.1661C3.868 19.9741 3.84775 19.7642 3.88642 19.5611L4.96976 13.4078L0.495589 9.07443C0.356335 8.93546 0.25755 8.7612 0.209836 8.57035C0.162122 8.37949 0.16728 8.17924 0.224756 7.9911C0.287546 7.79856 0.403047 7.62748 0.558152 7.49727C0.713257 7.36706 0.901755 7.28293 1.10226 7.25443L7.26642 6.34443L10.0289 0.75443C10.1176 0.571269 10.2561 0.4168 10.4286 0.308718C10.601 0.200635 10.8004 0.143311 11.0039 0.143311C11.2074 0.143311 11.4068 0.200635 11.5793 0.308718C11.7517 0.4168 11.8902 0.571269 11.9789 0.75443L14.7414 6.35526L20.9056 7.25443C21.1145 7.2723 21.3137 7.35039 21.479 7.47922Z" fill="#EEEEEE"/>
</svg>
