<svg width="14" height="14" viewBox="0 0 14 14" fill="none" xmlns="http://www.w3.org/2000/svg">
<path d="M13 6.40442C12.8232 6.40442 12.6536 6.47466 12.5286 6.59968C12.4036 6.72471 12.3333 6.89427 12.3333 7.07109C12.3413 8.31977 11.9135 9.53214 11.1238 10.4994C10.334 11.4666 9.2317 12.1282 8.00665 12.3702C6.78161 12.6121 5.51053 12.4193 4.41235 11.8249C3.31416 11.2306 2.45761 10.2719 1.99023 9.11392C1.52284 7.95598 1.47387 6.6713 1.85176 5.48114C2.22964 4.29098 3.01073 3.26984 4.06048 2.59361C5.11023 1.91737 6.36294 1.62836 7.60285 1.77636C8.84276 1.92436 9.99225 2.5001 10.8533 3.40442H9.25335C9.07654 3.40442 8.90697 3.47466 8.78194 3.59968C8.65692 3.72471 8.58668 3.89427 8.58668 4.07109C8.58668 4.2479 8.65692 4.41747 8.78194 4.54249C8.90697 4.66751 9.07654 4.73775 9.25335 4.73775H12.2733C12.4502 4.73775 12.6197 4.66751 12.7448 4.54249C12.8698 4.41747 12.94 4.2479 12.94 4.07109V1.07109C12.94 0.894274 12.8698 0.724705 12.7448 0.599681C12.6197 0.474657 12.4502 0.404419 12.2733 0.404419C12.0965 0.404419 11.927 0.474657 11.8019 0.599681C11.6769 0.724705 11.6067 0.894274 11.6067 1.07109V2.25109C10.4965 1.18979 9.05384 0.544387 7.52269 0.423971C5.99154 0.303556 4.46577 0.715515 3.20329 1.59021C1.94082 2.46491 1.01908 3.74869 0.593898 5.22455C0.168711 6.7004 0.266152 8.2778 0.869751 9.69011C1.47335 11.1024 2.54608 12.263 3.90661 12.9756C5.26714 13.6883 6.83201 13.9094 8.33671 13.6014C9.8414 13.2935 11.1936 12.4754 12.1648 11.2855C13.1359 10.0957 13.6665 8.60697 13.6667 7.07109C13.6667 6.89427 13.5964 6.72471 13.4714 6.59968C13.3464 6.47466 13.1768 6.40442 13 6.40442Z" fill="black"/>
</svg>
