
<svg width="14" height="14" viewBox="0 0 14 14" fill="none" xmlns="http://www.w3.org/2000/svg">
<path d="M12.2734 9.34H9.25337C9.07656 9.34 8.90699 9.41024 8.78197 9.53526C8.65695 9.66029 8.58671 9.82986 8.58671 10.0067C8.58671 10.1835 8.65695 10.353 8.78197 10.4781C8.90699 10.6031 9.07656 10.6733 9.25337 10.6733H10.8534C10.118 11.4418 9.16964 11.9729 8.13015 12.1983C7.09066 12.4237 6.00751 12.3331 5.01989 11.9382C4.03227 11.5433 3.18529 10.8621 2.58777 9.98212C1.99025 9.10216 1.66949 8.06365 1.66671 7C1.66671 6.82319 1.59647 6.65362 1.47145 6.5286C1.34642 6.40357 1.17685 6.33334 1.00004 6.33334C0.82323 6.33334 0.65366 6.40357 0.528636 6.5286C0.403612 6.65362 0.333374 6.82319 0.333374 7C0.336898 8.30187 0.721521 9.57421 1.43978 10.66C2.15803 11.7458 3.17848 12.5976 4.3752 13.1102C5.57192 13.6227 6.89253 13.7737 8.17405 13.5444C9.45558 13.3152 10.6419 12.7157 11.5867 11.82V13C11.5867 13.1768 11.6569 13.3464 11.782 13.4714C11.907 13.5964 12.0766 13.6667 12.2534 13.6667C12.4302 13.6667 12.5998 13.5964 12.7248 13.4714C12.8498 13.3464 12.92 13.1768 12.92 13V10C12.9184 9.82776 12.8501 9.66284 12.7296 9.5398C12.609 9.41676 12.4455 9.34516 12.2734 9.34ZM9.00004 7C9.00004 6.60444 8.88274 6.21776 8.66298 5.88886C8.44322 5.55996 8.13086 5.30362 7.76541 5.15224C7.39996 5.00087 6.99782 4.96126 6.60986 5.03843C6.2219 5.1156 5.86553 5.30608 5.58583 5.58579C5.30612 5.86549 5.11564 6.22186 5.03847 6.60982C4.9613 6.99778 5.00091 7.39992 5.15228 7.76537C5.30366 8.13082 5.56 8.44318 5.8889 8.66294C6.2178 8.8827 6.60448 9 7.00004 9C7.53047 9 8.03918 8.78929 8.41426 8.41422C8.78933 8.03914 9.00004 7.53044 9.00004 7ZM6.33337 7C6.33337 6.86815 6.37247 6.73925 6.44573 6.62962C6.51898 6.51999 6.6231 6.43454 6.74492 6.38408C6.86674 6.33362 7.00078 6.32042 7.1301 6.34615C7.25942 6.37187 7.37821 6.43536 7.47145 6.5286C7.56468 6.62183 7.62817 6.74062 7.6539 6.86994C7.67962 6.99926 7.66642 7.13331 7.61596 7.25513C7.5655 7.37694 7.48005 7.48106 7.37042 7.55432C7.26079 7.62757 7.1319 7.66667 7.00004 7.66667C6.82323 7.66667 6.65366 7.59643 6.52864 7.47141C6.40361 7.34638 6.33337 7.17681 6.33337 7ZM7.00004 0.333336C5.29096 0.338211 3.64903 0.999278 2.41337 2.18V1C2.41337 0.823192 2.34314 0.653622 2.21811 0.528598C2.09309 0.403574 1.92352 0.333336 1.74671 0.333336C1.5699 0.333336 1.40033 0.403574 1.2753 0.528598C1.15028 0.653622 1.08004 0.823192 1.08004 1V4C1.08004 4.17681 1.15028 4.34638 1.2753 4.47141C1.40033 4.59643 1.5699 4.66667 1.74671 4.66667H4.74671C4.92352 4.66667 5.09309 4.59643 5.21811 4.47141C5.34314 4.34638 5.41337 4.17681 5.41337 4C5.41337 3.82319 5.34314 3.65362 5.21811 3.5286C5.09309 3.40357 4.92352 3.33334 4.74671 3.33334H3.14671C3.88168 2.56525 4.82943 2.03434 5.86831 1.80874C6.90718 1.58315 7.98977 1.67317 8.97711 2.06724C9.96446 2.46132 10.8115 3.14148 11.4095 4.0204C12.0076 4.89933 12.3293 5.93693 12.3334 7C12.3334 7.17681 12.4036 7.34638 12.5286 7.47141C12.6537 7.59643 12.8232 7.66667 13 7.66667C13.1769 7.66667 13.3464 7.59643 13.4714 7.47141C13.5965 7.34638 13.6667 7.17681 13.6667 7C13.6667 6.12452 13.4943 5.25762 13.1592 4.44878C12.8242 3.63994 12.3331 2.90501 11.7141 2.28596C11.095 1.6669 10.3601 1.17584 9.55126 0.840806C8.74243 0.505774 7.87552 0.333336 7.00004 0.333336Z" fill="white"/>
</svg>
