<svg width="14" height="14" viewBox="0 0 14 14" fill="none" xmlns="http://www.w3.org/2000/svg">
<path d="M13.6667 5.44676C13.6246 5.32482 13.5481 5.21772 13.4463 5.13843C13.3445 5.05915 13.2219 5.01109 13.0934 5.0001L9.30007 4.44676L7.60007 1.0001C7.54548 0.887383 7.46024 0.792325 7.35413 0.725812C7.24801 0.6593 7.1253 0.624023 7.00007 0.624023C6.87483 0.624023 6.75212 0.6593 6.64601 0.725812C6.53989 0.792325 6.45466 0.887383 6.40007 1.0001L4.70007 4.4401L0.906733 5.0001C0.783348 5.01763 0.667349 5.06941 0.5719 5.14954C0.476451 5.22967 0.405373 5.33495 0.366733 5.45343C0.331363 5.56921 0.328189 5.69244 0.357552 5.80989C0.386914 5.92734 0.447705 6.03458 0.5334 6.1201L3.28673 8.78676L2.62007 12.5734C2.59627 12.6984 2.60873 12.8276 2.65598 12.9457C2.70323 13.0639 2.7833 13.166 2.88673 13.2401C2.98754 13.3122 3.10645 13.3547 3.2301 13.363C3.35375 13.3712 3.47725 13.3448 3.58673 13.2868L7.00007 11.5068L10.4001 13.2934C10.4936 13.3462 10.5993 13.3738 10.7067 13.3734C10.8479 13.3739 10.9857 13.3296 11.1001 13.2468C11.2035 13.1727 11.2836 13.0705 11.3308 12.9524C11.3781 12.8343 11.3905 12.7051 11.3667 12.5801L10.7001 8.79343L13.4534 6.12676C13.5497 6.04522 13.6208 5.93803 13.6586 5.81766C13.6963 5.69729 13.6992 5.56868 13.6667 5.44676ZM9.56673 8.11343C9.48855 8.18905 9.43005 8.28266 9.39636 8.38608C9.36266 8.4895 9.35478 8.5996 9.3734 8.70676L9.8534 11.5001L7.34673 10.1668C7.25028 10.1154 7.14268 10.0885 7.0334 10.0885C6.92412 10.0885 6.81652 10.1154 6.72007 10.1668L4.2134 11.5001L4.6934 8.70676C4.71202 8.5996 4.70414 8.4895 4.67044 8.38608C4.63674 8.28266 4.57825 8.18905 4.50007 8.11343L2.50007 6.11343L5.30673 5.70676C5.41473 5.69174 5.5174 5.65046 5.60573 5.58653C5.69407 5.52261 5.76537 5.43799 5.8134 5.3401L7.00007 2.8001L8.2534 5.34676C8.30143 5.44466 8.37273 5.52927 8.46107 5.5932C8.5494 5.65712 8.65207 5.69841 8.76007 5.71343L11.5667 6.1201L9.56673 8.11343Z" fill="#212121"/>
</svg>
