<svg width="12" height="16" viewBox="0 0 12 16" fill="none" xmlns="http://www.w3.org/2000/svg">
<path d="M6.40312 0H6.69969C7.30094 0.0303125 7.90594 0.19625 8.40094 0.5475C8.77125 0.796562 9.03094 1.16625 9.3325 1.48781C9.74844 1.93281 10.0619 2.50344 10.0888 3.12188C10.0988 3.19531 10.0716 3.28719 10.1375 3.34094C10.3966 3.6025 10.6622 3.85781 10.9159 4.12469C11.4147 4.66656 11.7738 5.37594 11.7669 6.125C11.7684 6.66031 11.5544 7.18188 11.2088 7.58656C11.4134 8.16813 11.3891 8.81688 11.1794 9.39375C11.055 9.73188 10.8841 10.0556 10.6591 10.3378C10.5369 10.4937 10.3203 10.5409 10.1353 10.4866C10.1428 11.1684 10.1281 11.8597 9.96563 12.5256C9.69563 13.6009 9.04406 14.58 8.14125 15.2269C7.47438 15.7103 6.66 15.9797 5.83719 16H5.56594C5.3275 15.9809 5.08875 15.9584 4.855 15.9053C4.13656 15.7503 3.46812 15.3903 2.92687 14.8953C2.16062 14.2 1.63093 13.2506 1.43781 12.2347C1.32531 11.65 1.34 11.0516 1.33937 10.4591C1.2475 10.4663 1.15156 10.4766 1.06375 10.4422C0.929372 10.3925 0.832184 10.2816 0.732497 10.1841C0.274996 9.71219 0.0056211 9.06281 0.000308593 8.405C-0.00875391 7.83531 0.182184 7.26875 0.520934 6.81187C0.177496 5.36469 0.657809 3.73312 1.77593 2.74094C2.42094 2.16625 3.06719 1.59375 3.71219 1.01937C4.01219 0.748125 4.36531 0.540625 4.73625 0.3825C5.26312 0.15625 5.83062 0.028125 6.40312 0ZM5.46125 1.11281C5.0525 1.24844 4.65156 1.43625 4.32844 1.72625C3.68875 2.29469 3.04875 2.86312 2.40937 3.43187C1.70718 4.05531 1.33625 5.00437 1.34656 5.93563C2.38437 4.87844 3.41969 3.81875 4.45687 2.76125C4.58031 2.63594 4.69937 2.505 4.83875 2.39687C5.21281 2.10063 5.68625 1.93281 6.16344 1.92875C6.66188 1.92 7.1625 2.08656 7.55188 2.39875C7.745 2.54875 7.91938 2.73625 8.00188 2.97062C8.13063 3.3125 8.07219 3.71219 7.85875 4.0075C8.14594 4.15844 8.395 4.36969 8.61719 4.60406C8.84813 4.28219 9.0525 3.92844 9.12875 3.53531C9.18969 3.23781 9.14844 2.92188 9.01375 2.65C8.86625 2.33781 8.61281 2.09719 8.39031 1.83906C8.25 1.68656 8.12406 1.51906 7.96125 1.38906C7.7125 1.18594 7.41 1.05469 7.09688 0.990313C6.55344 0.88125 5.98656 0.949063 5.46125 1.11281ZM5.27312 3.2675C3.99 4.57781 2.70594 5.88781 1.42343 7.19875C1.16093 7.4625 0.987184 7.815 0.948747 8.18594C0.902809 8.58344 1.00375 8.99594 1.23312 9.32406C3.14 7.4175 5.04656 5.51031 6.95344 3.60406C7.01969 3.53375 7.10531 3.47219 7.13406 3.37594C7.14406 3.31625 7.10688 3.26219 7.06844 3.22125C6.8175 2.97156 6.45563 2.8425 6.10344 2.87C5.78875 2.88969 5.48812 3.03844 5.27312 3.2675ZM9.83875 4.36938C9.69188 4.69156 9.50063 4.99156 9.28719 5.27344C9.75219 5.74781 10.2372 6.20312 10.6875 6.69156C10.7769 6.50594 10.8297 6.30156 10.8269 6.09469C10.8241 5.70906 10.6631 5.34188 10.4444 5.03062C10.2731 4.78375 10.0503 4.58031 9.83875 4.36938ZM6.40156 5.48094C7.66969 6.7525 8.94094 8.02125 10.21 9.29156C10.4356 8.82187 10.4947 8.25281 10.2697 7.77125C10.1566 7.51625 9.98281 7.2925 9.78531 7.0975C9.12938 6.44187 8.47375 5.78562 7.8175 5.13C7.63375 4.945 7.405 4.80719 7.15781 4.725C6.90562 4.97687 6.65406 5.22937 6.40156 5.48094ZM5.73656 6.14469C4.58719 7.29813 3.43375 8.44781 2.28312 9.59969C2.28062 10.1391 2.27031 10.6784 2.28062 11.2178C2.28812 11.5212 2.30843 11.8256 2.37156 12.1231C2.62218 13.3047 3.43875 14.3891 4.57469 14.8419C5.33781 15.1462 6.22031 15.1334 6.97625 14.8122C8.0725 14.3441 8.85438 13.2834 9.095 12.1294C9.24906 11.2941 9.18781 10.4412 9.18969 9.59719C8.03875 8.44625 6.88906 7.29406 5.73656 6.14469Z" fill="white"/>
</svg>
