<svg width="16" height="16" viewBox="0 0 16 16" fill="none" xmlns="http://www.w3.org/2000/svg">
<path d="M8.40312 0H8.69969C9.30094 0.0303125 9.90594 0.19625 10.4009 0.5475C10.7713 0.796562 11.0309 1.16625 11.3325 1.48781C11.7484 1.93281 12.0619 2.50344 12.0888 3.12188C12.0988 3.19531 12.0716 3.28719 12.1375 3.34094C12.3966 3.6025 12.6622 3.85781 12.9159 4.12469C13.4147 4.66656 13.7738 5.37594 13.7669 6.125C13.7684 6.66031 13.5544 7.18188 13.2088 7.58656C13.4134 8.16813 13.3891 8.81688 13.1794 9.39375C13.055 9.73188 12.8841 10.0556 12.6591 10.3378C12.5369 10.4937 12.3203 10.5409 12.1353 10.4866C12.1428 11.1684 12.1281 11.8597 11.9656 12.5256C11.6956 13.6009 11.0441 14.58 10.1413 15.2269C9.47438 15.7103 8.66 15.9797 7.83719 16H7.56594C7.3275 15.9809 7.08875 15.9584 6.855 15.9053C6.13656 15.7503 5.46812 15.3903 4.92687 14.8953C4.16062 14.2 3.63093 13.2506 3.43781 12.2347C3.32531 11.65 3.34 11.0516 3.33937 10.4591C3.2475 10.4663 3.15156 10.4766 3.06375 10.4422C2.92937 10.3925 2.83218 10.2816 2.7325 10.1841C2.275 9.71219 2.00562 9.06281 2.00031 8.405C1.99125 7.83531 2.18218 7.26875 2.52093 6.81187C2.1775 5.36469 2.65781 3.73312 3.77593 2.74094C4.42094 2.16625 5.06719 1.59375 5.71219 1.01937C6.01219 0.748125 6.36531 0.540625 6.73625 0.3825C7.26312 0.15625 7.83062 0.028125 8.40312 0ZM7.46125 1.11281C7.0525 1.24844 6.65156 1.43625 6.32844 1.72625C5.68875 2.29469 5.04875 2.86312 4.40937 3.43187C3.70718 4.05531 3.33625 5.00437 3.34656 5.93563C4.38437 4.87844 5.41969 3.81875 6.45687 2.76125C6.58031 2.63594 6.69937 2.505 6.83875 2.39687C7.21281 2.10063 7.68625 1.93281 8.16344 1.92875C8.66188 1.92 9.1625 2.08656 9.55188 2.39875C9.745 2.54875 9.91938 2.73625 10.0019 2.97062C10.1306 3.3125 10.0722 3.71219 9.85875 4.0075C10.1459 4.15844 10.395 4.36969 10.6172 4.60406C10.8481 4.28219 11.0525 3.92844 11.1288 3.53531C11.1897 3.23781 11.1484 2.92188 11.0138 2.65C10.8663 2.33781 10.6128 2.09719 10.3903 1.83906C10.25 1.68656 10.1241 1.51906 9.96125 1.38906C9.7125 1.18594 9.41 1.05469 9.09688 0.990313C8.55344 0.88125 7.98656 0.949063 7.46125 1.11281ZM7.27312 3.2675C5.99 4.57781 4.70594 5.88781 3.42343 7.19875C3.16093 7.4625 2.98718 7.815 2.94875 8.18594C2.90281 8.58344 3.00375 8.99594 3.23312 9.32406C5.14 7.4175 7.04656 5.51031 8.95344 3.60406C9.01969 3.53375 9.10531 3.47219 9.13406 3.37594C9.14406 3.31625 9.10688 3.26219 9.06844 3.22125C8.8175 2.97156 8.45563 2.8425 8.10344 2.87C7.78875 2.88969 7.48812 3.03844 7.27312 3.2675ZM11.8388 4.36938C11.6919 4.69156 11.5006 4.99156 11.2872 5.27344C11.7522 5.74781 12.2372 6.20312 12.6875 6.69156C12.7769 6.50594 12.8297 6.30156 12.8269 6.09469C12.8241 5.70906 12.6631 5.34188 12.4444 5.03062C12.2731 4.78375 12.0503 4.58031 11.8388 4.36938ZM8.40156 5.48094C9.66969 6.7525 10.9409 8.02125 12.21 9.29156C12.4356 8.82187 12.4947 8.25281 12.2697 7.77125C12.1566 7.51625 11.9828 7.2925 11.7853 7.0975C11.1294 6.44187 10.4738 5.78562 9.8175 5.13C9.63375 4.945 9.405 4.80719 9.15781 4.725C8.90562 4.97687 8.65406 5.22937 8.40156 5.48094ZM7.73656 6.14469C6.58719 7.29813 5.43375 8.44781 4.28312 9.59969C4.28062 10.1391 4.27031 10.6784 4.28062 11.2178C4.28812 11.5212 4.30843 11.8256 4.37156 12.1231C4.62218 13.3047 5.43875 14.3891 6.57469 14.8419C7.33781 15.1462 8.22031 15.1334 8.97625 14.8122C10.0725 14.3441 10.8544 13.2834 11.095 12.1294C11.2491 11.2941 11.1878 10.4412 11.1897 9.59719C10.0388 8.44625 8.88906 7.29406 7.73656 6.14469Z" fill="black"/>
<path d="M6.02087 9.51596C6.23743 9.44033 6.49556 9.55783 6.58681 9.76689C6.64993 9.89814 6.6265 10.0463 6.63056 10.1866C6.62587 10.3297 6.65118 10.4813 6.5865 10.6153C6.49743 10.8184 6.25056 10.9366 6.03743 10.8706C5.83368 10.8178 5.68556 10.6153 5.69306 10.4056C5.69525 10.2381 5.68743 10.0706 5.69775 9.90377C5.71806 9.72627 5.84993 9.56815 6.02087 9.51596Z" fill="black"/>
<path d="M9.26215 9.50585C9.5234 9.43617 9.80934 9.64116 9.83184 9.9096C9.84059 10.0852 9.8359 10.2618 9.83465 10.4377C9.83059 10.6868 9.6009 10.9015 9.35184 10.8887C9.11559 10.883 8.90497 10.6777 8.89965 10.4402C8.89747 10.2721 8.89684 10.1037 8.90028 9.93554C8.90809 9.73241 9.06465 9.54991 9.26215 9.50585Z" fill="black"/>
<path d="M6.6697 12.069C6.82939 12.0283 7.0072 12.0802 7.12064 12.1996C7.25314 12.3283 7.37595 12.4868 7.56252 12.5387C7.76377 12.5918 7.99814 12.5696 8.16252 12.4324C8.30908 12.3227 8.40564 12.1455 8.58533 12.0827C8.79189 12.0043 9.0472 12.098 9.15033 12.294C9.2472 12.4615 9.22314 12.6874 9.09439 12.8315C8.90314 13.0399 8.69283 13.2405 8.43345 13.3612C7.8697 13.6177 7.1522 13.5265 6.69689 13.0965C6.55095 12.9487 6.3522 12.8155 6.32002 12.5946C6.27845 12.3627 6.4397 12.1199 6.6697 12.069Z" fill="black"/>
</svg>
