<svg width="15" height="16" viewBox="0 0 15 16" fill="none" xmlns="http://www.w3.org/2000/svg">
<path d="M4.83333 11.3333C5.56974 11.3333 6.16666 10.7364 6.16666 9.99999C6.16666 9.26358 5.56974 8.66666 4.83333 8.66666C4.09692 8.66666 3.49999 9.26358 3.49999 9.99999C3.49999 10.7364 4.09692 11.3333 4.83333 11.3333Z" fill="#212121"/>
<path fill-rule="evenodd" clip-rule="evenodd" d="M12.1667 1.99999H11.5V1.33332C11.5 1.24893 11.484 1.16617 11.4537 1.08918C11.4205 1.00479 11.3701 0.927236 11.3048 0.861888C11.1797 0.736888 11.0102 0.666656 10.8333 0.666656C10.6565 0.666656 10.487 0.736888 10.3619 0.861888C10.2369 0.986969 10.1667 1.15648 10.1667 1.33332V1.99999H4.83333V1.33332C4.83333 1.30004 4.83081 1.267 4.82592 1.23445C4.81941 1.19107 4.80867 1.14859 4.79394 1.10757C4.77042 1.04206 4.73665 0.980377 4.6936 0.924876C4.67651 0.902822 4.65795 0.881744 4.6381 0.861888C4.51302 0.736888 4.3435 0.666656 4.16666 0.666656C3.98982 0.666656 3.82031 0.736888 3.69523 0.861888C3.57023 0.986969 3.49999 1.15648 3.49999 1.33332V1.99999H2.83333C2.30289 1.99999 1.79418 2.21068 1.4191 2.58576C1.04402 2.96085 0.833328 3.46955 0.833328 3.99999V13.3333C0.833328 13.8638 1.04402 14.3725 1.4191 14.7475C1.79418 15.1226 2.30289 15.3333 2.83333 15.3333H12.1667C12.6971 15.3333 13.2058 15.1226 13.5809 14.7475C13.956 14.3725 14.1667 13.8638 14.1667 13.3333V3.99999C14.1667 3.46955 13.956 2.96085 13.5809 2.58576C13.2058 2.21068 12.6971 1.99999 12.1667 1.99999ZM12.8333 13.3333C12.8333 13.4147 12.8184 13.4945 12.7902 13.5692C12.7571 13.6568 12.7056 13.7372 12.6381 13.8048C12.513 13.9298 12.3435 14 12.1667 14H2.83333C2.65649 14 2.48697 13.9298 2.36189 13.8048C2.23689 13.6797 2.16666 13.5102 2.16666 13.3333V7.33332H12.8333V13.3333ZM12.8333 5.99999H2.16666V3.99999C2.16666 3.82315 2.23689 3.65364 2.36189 3.52855C2.48697 3.40355 2.65649 3.33332 2.83333 3.33332H3.49999V3.99999C3.49999 4.17683 3.57023 4.34634 3.69523 4.47143C3.82031 4.59643 3.98982 4.66666 4.16666 4.66666C4.26733 4.66666 4.36564 4.64387 4.45475 4.60123C4.52213 4.56892 4.58422 4.52522 4.6381 4.47143C4.7631 4.34634 4.83333 4.17683 4.83333 3.99999V3.33332H10.1667V3.99999C10.1667 4.17683 10.2369 4.34634 10.3619 4.47143C10.487 4.59643 10.6565 4.66666 10.8333 4.66666C10.9284 4.66666 11.0212 4.64639 11.1063 4.60823C11.1795 4.57535 11.2469 4.52929 11.3048 4.47143C11.3304 4.44579 11.3538 4.41828 11.3747 4.38915C11.3904 4.36726 11.4047 4.34447 11.4176 4.32095C11.4712 4.22346 11.5 4.11319 11.5 3.99999V3.33332H12.1667C12.3435 3.33332 12.513 3.40355 12.6381 3.52855C12.7631 3.65364 12.8333 3.82315 12.8333 3.99999V5.99999Z" fill="#212121"/>
</svg>
