
<svg width="16" height="15" viewBox="0 0 16 15" fill="none" xmlns="http://www.w3.org/2000/svg">
<path d="M15.1003 13.6182L10.4628 8.98071C11.1824 8.05035 11.5717 6.91285 11.5717 5.71643C11.5717 4.28428 11.0128 2.94143 10.0021 1.92893C8.99135 0.916426 7.64492 0.359283 6.21456 0.359283C4.78421 0.359283 3.43778 0.918212 2.42706 1.92893C1.41456 2.93964 0.857422 4.28428 0.857422 5.71643C0.857422 7.14678 1.41635 8.49321 2.42706 9.50393C3.43778 10.5164 4.78242 11.0736 6.21456 11.0736C7.41099 11.0736 8.54671 10.6843 9.47706 9.96643L14.1146 14.6021C14.1282 14.6157 14.1443 14.6265 14.1621 14.6339C14.1799 14.6413 14.1989 14.6451 14.2181 14.6451C14.2374 14.6451 14.2564 14.6413 14.2742 14.6339C14.292 14.6265 14.3081 14.6157 14.3217 14.6021L15.1003 13.8254C15.1139 13.8118 15.1247 13.7956 15.132 13.7778C15.1394 13.7601 15.1432 13.741 15.1432 13.7218C15.1432 13.7025 15.1394 13.6835 15.132 13.6657C15.1247 13.648 15.1139 13.6318 15.1003 13.6182ZM9.04314 8.545C8.28599 9.30035 7.28242 9.71643 6.21456 9.71643C5.14671 9.71643 4.14314 9.30035 3.38599 8.545C2.63064 7.78785 2.21456 6.78428 2.21456 5.71643C2.21456 4.64857 2.63064 3.64321 3.38599 2.88785C4.14314 2.1325 5.14671 1.71643 6.21456 1.71643C7.28242 1.71643 8.28778 2.13071 9.04314 2.88785C9.79849 3.645 10.2146 4.64857 10.2146 5.71643C10.2146 6.78428 9.79849 7.78964 9.04314 8.545Z" fill="white"/>
</svg>
