<svg xmlns="http://www.w3.org/2000/svg" width="14" height="14" viewBox="0 0 14 14" fill="none">
<path d="M13.4872 12.5408L11.0139 10.0874C11.9739 8.89037 12.4389 7.37096 12.3131 5.84163C12.1873 4.3123 11.4803 2.88928 10.3375 1.86519C9.19477 0.8411 7.70306 0.29377 6.16913 0.335743C4.63521 0.377717 3.17567 1.0058 2.09061 2.09086C1.00556 3.17591 0.377473 4.63546 0.335499 6.16938C0.293526 7.7033 0.840856 9.19501 1.86495 10.3378C2.88904 11.4805 4.31205 12.1875 5.84139 12.3133C7.37072 12.4391 8.89013 11.9742 10.0872 11.0141L12.5405 13.4674C12.6025 13.5299 12.6762 13.5795 12.7575 13.6134C12.8387 13.6472 12.9258 13.6646 13.0139 13.6646C13.1019 13.6646 13.189 13.6472 13.2702 13.6134C13.3515 13.5795 13.4252 13.5299 13.4872 13.4674C13.6073 13.3431 13.6745 13.177 13.6745 13.0041C13.6745 12.8312 13.6073 12.6651 13.4872 12.5408ZM6.34719 11.0141C5.42421 11.0141 4.52195 10.7404 3.75452 10.2276C2.9871 9.71484 2.38896 8.98601 2.03575 8.13329C1.68254 7.28056 1.59012 6.34225 1.77019 5.43701C1.95025 4.53176 2.39471 3.70024 3.04735 3.0476C3.7 2.39495 4.53152 1.9505 5.43676 1.77043C6.34201 1.59037 7.28032 1.68278 8.13304 2.03599C8.98576 2.3892 9.7146 2.98734 10.2274 3.75477C10.7402 4.5222 11.0139 5.42445 11.0139 6.34743C11.0139 7.58511 10.5222 8.77209 9.64702 9.64726C8.77185 10.5224 7.58486 11.0141 6.34719 11.0141Z" fill="#212121"/>
</svg>