<svg width="14" height="14" viewBox="0 0 14 14" fill="none" xmlns="http://www.w3.org/2000/svg">
<path d="M13.4872 12.5406L11.0139 10.0873C11.9739 8.8902 12.4389 7.37079 12.3131 5.84146C12.1873 4.31213 11.4803 2.88912 10.3375 1.86502C9.19477 0.840933 7.70306 0.293602 6.16913 0.335576C4.63521 0.377549 3.17567 1.00564 2.09061 2.09069C1.00556 3.17574 0.377473 4.63529 0.335499 6.16921C0.293526 7.70313 0.840856 9.19484 1.86495 10.3376C2.88904 11.4804 4.31205 12.1873 5.84139 12.3131C7.37072 12.4389 8.89013 11.974 10.0872 11.0139L12.5405 13.4673C12.6025 13.5297 12.6762 13.5793 12.7575 13.6132C12.8387 13.647 12.9258 13.6645 13.0139 13.6645C13.1019 13.6645 13.189 13.647 13.2702 13.6132C13.3515 13.5793 13.4252 13.5297 13.4872 13.4673C13.6073 13.343 13.6745 13.1768 13.6745 13.0039C13.6745 12.831 13.6073 12.6649 13.4872 12.5406ZM6.34719 11.0139C5.42421 11.0139 4.52195 10.7402 3.75452 10.2275C2.9871 9.71467 2.38896 8.98584 2.03575 8.13312C1.68254 7.2804 1.59012 6.34209 1.77019 5.43684C1.95025 4.5316 2.39471 3.70008 3.04735 3.04743C3.7 2.39479 4.53152 1.95033 5.43676 1.77026C6.34201 1.5902 7.28032 1.68262 8.13304 2.03582C8.98576 2.38903 9.7146 2.98717 10.2274 3.7546C10.7402 4.52203 11.0139 5.42428 11.0139 6.34726C11.0139 7.58494 10.5222 8.77192 9.64702 9.64709C8.77185 10.5223 7.58486 11.0139 6.34719 11.0139Z" fill="#525252"/>
</svg>
