<svg width="8" height="8" viewBox="0 0 8 8" fill="none" xmlns="http://www.w3.org/2000/svg">
<path fill-rule="evenodd" clip-rule="evenodd" d="M2.48871 7.34122C5.36346 7.34122 6.93587 4.89672 6.93587 2.77712C6.93587 2.70753 6.93587 2.63847 6.9313 2.56967C7.23717 2.34293 7.50115 2.06141 7.71103 1.73929C7.42611 1.86907 7.12328 1.95419 6.8136 1.99172C7.13966 1.79117 7.38383 1.4761 7.50077 1.10433C7.19375 1.2912 6.85817 1.42308 6.50811 1.49384C5.91617 0.848023 4.92618 0.816734 4.29653 1.42423C3.89086 1.81594 3.7183 2.39997 3.84438 2.95704C2.58775 2.89215 1.41683 2.28309 0.623004 1.28115C0.20819 2.01413 0.420359 2.95148 1.10714 3.42216C0.858408 3.41473 0.615005 3.346 0.397504 3.22168V3.24204C0.397885 4.00552 0.922402 4.66292 1.65147 4.81421C1.4214 4.87871 1.1799 4.88806 0.946018 4.84154C1.15057 5.49517 1.73755 5.94286 2.40606 5.95576C1.85259 6.4022 1.16885 6.64462 0.464925 6.64384C0.340748 6.64345 0.21657 6.63601 0.0927734 6.62077C0.807747 7.09144 1.63928 7.34123 2.48871 7.34006" fill="#616161"/>
</svg>
