<svg width="21" height="20" viewBox="0 0 21 20" fill="none" xmlns="http://www.w3.org/2000/svg">
<path d="M7.49979 4.80385H9.47925V13.8655C9.47925 13.9833 9.57568 14.0797 9.69354 14.0797H11.3007C11.4185 14.0797 11.515 13.9833 11.515 13.8655V4.80385H13.4998C13.6793 4.80385 13.7784 4.5976 13.6685 4.45831L10.6685 0.660099C10.6485 0.634487 10.6229 0.613774 10.5936 0.599529C10.5644 0.585284 10.5323 0.577881 10.4998 0.577881C10.4673 0.577881 10.4352 0.585284 10.4059 0.599529C10.3767 0.613774 10.3511 0.634487 10.331 0.660099L7.33104 4.45564C7.22122 4.5976 7.32033 4.80385 7.49979 4.80385ZM20.3034 13.0619H18.6962C18.5784 13.0619 18.4819 13.1583 18.4819 13.2762V17.4012H2.51765V13.2762C2.51765 13.1583 2.42122 13.0619 2.30336 13.0619H0.696219C0.578362 13.0619 0.481934 13.1583 0.481934 13.2762V18.5797C0.481934 19.0539 0.864969 19.4369 1.33908 19.4369H19.6605C20.1346 19.4369 20.5176 19.0539 20.5176 18.5797V13.2762C20.5176 13.1583 20.4212 13.0619 20.3034 13.0619Z" fill="black" fill-opacity="0.85"/>
</svg>
