
<svg width="11" height="11" viewBox="0 0 11 11" fill="none" xmlns="http://www.w3.org/2000/svg">
<path d="M9.54575 1.45417C9.50701 1.41511 9.46093 1.38412 9.41015 1.36296C9.35938 1.34181 9.30492 1.33092 9.24991 1.33092C9.19491 1.33092 9.14045 1.34181 9.08967 1.36296C9.0389 1.38412 8.99282 1.41511 8.95408 1.45417L8.07075 2.3375L7.77491 2.04583C7.69685 1.96823 7.59124 1.92467 7.48116 1.92467C7.37109 1.92467 7.26548 1.96823 7.18741 2.04583L6.59991 2.63333L6.30408 2.3375C6.26535 2.29845 6.21926 2.26745 6.16849 2.2463C6.11771 2.22514 6.06325 2.21425 6.00825 2.21425C5.95324 2.21425 5.89878 2.22514 5.84801 2.2463C5.79723 2.26745 5.75115 2.29845 5.71241 2.3375L2.47491 5.57917L2.16658 5.2875C2.08571 5.23098 1.9874 5.20499 1.88917 5.21417C1.79093 5.22334 1.69913 5.26707 1.63012 5.33758C1.56111 5.4081 1.51936 5.50081 1.5123 5.59923C1.50524 5.69764 1.53334 5.79536 1.59158 5.875L3.06241 7.35L2.34158 8.075L2.04575 7.775C1.96729 7.69654 1.86087 7.65246 1.74991 7.65246C1.63896 7.65246 1.53254 7.69654 1.45408 7.775C1.37562 7.85346 1.33154 7.95987 1.33154 8.07083C1.33154 8.18179 1.37562 8.28821 1.45408 8.36667L2.63325 9.54583C2.67218 9.58445 2.71835 9.615 2.76912 9.63574C2.81989 9.65647 2.87425 9.66698 2.92908 9.66667C2.98392 9.66698 3.03828 9.65647 3.08904 9.63574C3.13981 9.615 3.18598 9.58445 3.22491 9.54583C3.26397 9.5071 3.29497 9.46101 3.31612 9.41024C3.33727 9.35947 3.34816 9.305 3.34816 9.25C3.34816 9.19499 3.33727 9.14053 3.31612 9.08976C3.29497 9.03898 3.26397 8.9929 3.22491 8.95417L2.92908 8.6625L3.65408 7.9375L5.12491 9.40833C5.1635 9.4477 5.20952 9.47902 5.2603 9.50048C5.31108 9.52194 5.36562 9.5331 5.42075 9.53333C5.50315 9.53299 5.58361 9.50821 5.65193 9.46215C5.72026 9.41608 5.77339 9.35079 5.80461 9.27452C5.83583 9.19826 5.84373 9.11445 5.82732 9.03369C5.81091 8.95294 5.77092 8.87886 5.71241 8.82083L5.42075 8.525L8.66241 5.2875C8.70147 5.24877 8.73247 5.20268 8.75362 5.15191C8.77477 5.10113 8.78566 5.04667 8.78566 4.99167C8.78566 4.93666 8.77477 4.8822 8.75362 4.83143C8.73247 4.78065 8.70147 4.73457 8.66241 4.69583L8.36658 4.4L8.95408 3.83333C9.03169 3.75527 9.07524 3.64966 9.07524 3.53958C9.07524 3.42951 9.03169 3.3239 8.95408 3.24583L8.66241 2.95L9.54575 2.06667C9.58804 2.02765 9.62179 1.98029 9.64488 1.92759C9.66797 1.87488 9.67989 1.81796 9.67989 1.76042C9.67989 1.70287 9.66797 1.64596 9.64488 1.59325C9.62179 1.54054 9.58804 1.49318 9.54575 1.45417ZM3.65408 6.75L3.06241 6.17083L3.64991 5.57917L4.24991 6.17083L3.65408 6.75ZM4.82908 7.92917L4.24991 7.35L4.82908 6.75L5.42075 7.34167L4.82908 7.92917ZM6.00825 6.75L4.24991 4.99167L6.01658 3.225L6.31241 3.51667L7.78325 4.99167L6.00825 6.75ZM7.77491 3.83333L7.18741 3.225L7.48325 2.92917L7.77491 3.22083L8.06658 3.5125L7.77491 3.83333Z" fill="#D9ECDA"/>
</svg>
