<svg width="14" height="14" viewBox="0 0 14 14" fill="none" xmlns="http://www.w3.org/2000/svg">
<path d="M1 7C1 3.68629 3.68629 1 7 1C10.3137 1 13 3.68629 13 7C13 10.3137 10.3137 13 7 13C3.68629 13 1 10.3137 1 7Z" fill="#43A047"/>
<path d="M10.2366 3.76339C10.2057 3.73215 10.1688 3.70735 10.1282 3.69043C10.0876 3.67351 10.044 3.66479 9.99998 3.66479C9.95598 3.66479 9.91241 3.67351 9.87179 3.69043C9.83117 3.70735 9.7943 3.73215 9.76331 3.76339L9.05665 4.47006L8.81998 4.23673C8.75753 4.17464 8.67304 4.1398 8.58498 4.1398C8.49692 4.1398 8.41243 4.17464 8.34998 4.23673L7.87998 4.70673L7.64331 4.47006C7.61233 4.43882 7.57546 4.41402 7.53484 4.3971C7.49422 4.38017 7.45065 4.37146 7.40665 4.37146C7.36264 4.37146 7.31907 4.38017 7.27845 4.3971C7.23784 4.41402 7.20097 4.43882 7.16998 4.47006L4.57998 7.06339L4.33331 6.83006C4.26862 6.78485 4.18997 6.76406 4.11138 6.77139C4.03279 6.77873 3.95935 6.81372 3.90414 6.87013C3.84893 6.92654 3.81553 7.00071 3.80989 7.07944C3.80424 7.15817 3.82672 7.23635 3.87331 7.30006L5.04998 8.48006L4.47331 9.06006L4.23665 8.82006C4.17388 8.75729 4.08875 8.72203 3.99998 8.72203C3.91121 8.72203 3.82608 8.75729 3.76331 8.82006C3.70055 8.88283 3.66528 8.96796 3.66528 9.05673C3.66528 9.14549 3.70055 9.23063 3.76331 9.29339L4.70665 10.2367C4.73779 10.2676 4.77473 10.2921 4.81535 10.3087C4.85596 10.3252 4.89944 10.3336 4.94331 10.3334C4.98718 10.3336 5.03067 10.3252 5.07128 10.3087C5.1119 10.2921 5.14883 10.2676 5.17998 10.2367C5.21122 10.2057 5.23602 10.1689 5.25294 10.1283C5.26987 10.0876 5.27858 10.0441 5.27858 10.0001C5.27858 9.95606 5.26987 9.91249 5.25294 9.87187C5.23602 9.83125 5.21122 9.79438 5.17998 9.76339L4.94331 9.53006L5.52331 8.95006L6.69998 10.1267C6.73085 10.1582 6.76767 10.1833 6.80829 10.2004C6.84892 10.2176 6.89254 10.2265 6.93665 10.2267C7.00257 10.2265 7.06693 10.2066 7.12159 10.1698C7.17626 10.1329 7.21876 10.0807 7.24374 10.0197C7.26871 9.95867 7.27503 9.89162 7.26191 9.82702C7.24878 9.76241 7.21679 9.70315 7.16998 9.65673L6.93665 9.42006L9.52998 6.83006C9.56122 6.79907 9.58602 6.76221 9.60294 6.72159C9.61987 6.68097 9.62858 6.6374 9.62858 6.59339C9.62858 6.54939 9.61987 6.50582 9.60294 6.4652C9.58602 6.42458 9.56122 6.38772 9.52998 6.35673L9.29331 6.12006L9.76331 5.66673C9.8254 5.60427 9.86024 5.51979 9.86024 5.43173C9.86024 5.34367 9.8254 5.25918 9.76331 5.19673L9.52998 4.96006L10.2366 4.25339C10.2705 4.22218 10.2975 4.1843 10.316 4.14213C10.3344 4.09996 10.344 4.05443 10.344 4.00839C10.344 3.96236 10.3344 3.91683 10.316 3.87466C10.2975 3.83249 10.2705 3.79461 10.2366 3.76339ZM5.52331 8.00006L5.04998 7.53673L5.51998 7.06339L5.99998 7.53673L5.52331 8.00006ZM6.46331 8.94339L5.99998 8.48006L6.46331 8.00006L6.93665 8.47339L6.46331 8.94339ZM7.40665 8.00006L5.99998 6.59339L7.41331 5.18006L7.64998 5.41339L8.82665 6.59339L7.40665 8.00006ZM8.81998 5.66673L8.34998 5.18006L8.58665 4.94339L8.81998 5.17673L9.05331 5.41006L8.81998 5.66673Z" fill="#D9ECDA"/>
<path d="M7 12C4.23858 12 2 9.76142 2 7H0C0 10.866 3.13401 14 7 14V12ZM12 7C12 9.76142 9.76142 12 7 12V14C10.866 14 14 10.866 14 7H12ZM7 2C9.76142 2 12 4.23858 12 7H14C14 3.13401 10.866 0 7 0V2ZM7 0C3.13401 0 0 3.13401 0 7H2C2 4.23858 4.23858 2 7 2V0Z" fill="white"/>
</svg>
