<svg width="14" height="12" viewBox="0 0 14 12" fill="none" xmlns="http://www.w3.org/2000/svg">
<path d="M13.6133 5.73333C12.2667 2.60667 9.73332 0.666668 6.99998 0.666668C4.26665 0.666668 1.73332 2.60667 0.38665 5.73333C0.349941 5.81745 0.330994 5.90823 0.330994 6C0.330994 6.09177 0.349941 6.18256 0.38665 6.26667C1.73332 9.39333 4.26665 11.3333 6.99998 11.3333C9.73332 11.3333 12.2667 9.39333 13.6133 6.26667C13.65 6.18256 13.669 6.09177 13.669 6C13.669 5.90823 13.65 5.81745 13.6133 5.73333ZM6.99998 10C4.88665 10 2.88665 8.47333 1.73332 6C2.88665 3.52667 4.88665 2 6.99998 2C9.11332 2 11.1133 3.52667 12.2667 6C11.1133 8.47333 9.11332 10 6.99998 10ZM6.99998 3.33333C6.47257 3.33333 5.95699 3.48973 5.51846 3.78275C5.07993 4.07577 4.73814 4.49224 4.5363 4.97951C4.33447 5.46678 4.28166 6.00296 4.38456 6.52024C4.48745 7.03752 4.74143 7.51268 5.11437 7.88562C5.48731 8.25856 5.96246 8.51253 6.47974 8.61543C6.99703 8.71832 7.5332 8.66551 8.02047 8.46368C8.50774 8.26185 8.92422 7.92005 9.21724 7.48152C9.51025 7.04299 9.66665 6.52742 9.66665 6C9.66665 5.29276 9.3857 4.61448 8.8856 4.11438C8.3855 3.61429 7.70723 3.33333 6.99998 3.33333ZM6.99998 7.33333C6.73628 7.33333 6.47849 7.25514 6.25922 7.10863C6.03996 6.96212 5.86906 6.75388 5.76814 6.51025C5.66723 6.26661 5.64082 5.99852 5.69227 5.73988C5.74372 5.48124 5.8707 5.24366 6.05717 5.05719C6.24364 4.87072 6.48122 4.74373 6.73986 4.69229C6.9985 4.64084 7.26659 4.66724 7.51023 4.76816C7.75386 4.86908 7.9621 5.03998 8.10861 5.25924C8.25512 5.47851 8.33332 5.73629 8.33332 6C8.33332 6.35362 8.19284 6.69276 7.94279 6.94281C7.69274 7.19286 7.35361 7.33333 6.99998 7.33333Z" fill="white"/>
</svg>
