<svg width="15" height="14" viewBox="0 0 15 14" fill="none" xmlns="http://www.w3.org/2000/svg">
<path d="M2.83325 11.0001H5.65992C5.74766 11.0006 5.83463 10.9838 5.91586 10.9506C5.99708 10.9175 6.07096 10.8686 6.13325 10.8068L10.7466 6.18679L12.6399 4.33346C12.7024 4.27148 12.752 4.19775 12.7858 4.11651C12.8197 4.03527 12.8371 3.94813 12.8371 3.86012C12.8371 3.77211 12.8197 3.68498 12.7858 3.60374C12.752 3.5225 12.7024 3.44876 12.6399 3.38679L9.81325 0.526789C9.75128 0.464303 9.67754 0.414707 9.5963 0.380861C9.51506 0.347015 9.42793 0.32959 9.33992 0.32959C9.25191 0.32959 9.16477 0.347015 9.08353 0.380861C9.00229 0.414707 8.92856 0.464303 8.86659 0.526789L6.98659 2.41346L2.35992 7.03346C2.29813 7.09575 2.24925 7.16963 2.21607 7.25085C2.18289 7.33208 2.16608 7.41905 2.16659 7.50679V10.3335C2.16659 10.5103 2.23682 10.6798 2.36185 10.8049C2.48687 10.9299 2.65644 11.0001 2.83325 11.0001ZM9.33992 1.94012L11.2266 3.82679L10.2799 4.77346L8.39325 2.88679L9.33992 1.94012ZM3.49992 7.78012L7.45325 3.82679L9.33992 5.71346L5.38659 9.66679H3.49992V7.78012ZM13.4999 12.3335H1.49992C1.32311 12.3335 1.15354 12.4037 1.02851 12.5287C0.90349 12.6537 0.833252 12.8233 0.833252 13.0001C0.833252 13.1769 0.90349 13.3465 1.02851 13.4715C1.15354 13.5966 1.32311 13.6668 1.49992 13.6668H13.4999C13.6767 13.6668 13.8463 13.5966 13.9713 13.4715C14.0963 13.3465 14.1666 13.1769 14.1666 13.0001C14.1666 12.8233 14.0963 12.6537 13.9713 12.5287C13.8463 12.4037 13.6767 12.3335 13.4999 12.3335Z" fill="white"/>
</svg>
