
<svg width="20" height="20" viewBox="0 0 20 20" fill="none" xmlns="http://www.w3.org/2000/svg">
<path fill-rule="evenodd" clip-rule="evenodd" d="M10 20C15.5228 20 20 15.5228 20 10C20 4.47715 15.5228 0 10 0C4.47715 0 0 4.47715 0 10C0 15.5228 4.47715 20 10 20Z" fill="black"/>
<path fill-rule="evenodd" clip-rule="evenodd" d="M14.8775 5.7906C15.027 5.6339 15.1989 5.55556 15.3933 5.55556C15.5876 5.55556 15.7596 5.6339 15.9091 5.7906C16.0436 5.93163 16.1109 6.10791 16.1109 6.31945C16.1109 6.53099 16.0436 6.70727 15.9091 6.84829L8.75513 14.3932C8.74018 14.4088 8.72523 14.4245 8.71028 14.4402C8.69533 14.4558 8.68038 14.4715 8.66543 14.4872C8.53087 14.6439 8.36268 14.7222 8.16084 14.7222C7.95901 14.7222 7.79081 14.6439 7.65626 14.4872L4.09051 10.7735C3.95595 10.6325 3.88867 10.4562 3.88867 10.2447C3.88867 10.0331 3.95595 9.85684 4.09051 9.71581C4.24001 9.55912 4.41195 9.48077 4.60631 9.48077C4.80067 9.48077 4.9726 9.55912 5.12211 9.71581L8.14963 12.8889L14.8775 5.7906Z" fill="white"/>
</svg>
