
<svg width="13" height="14" viewBox="0 0 13 14" fill="none" xmlns="http://www.w3.org/2000/svg">
<path d="M11.0533 7.28001L6.93328 11.4067C6.39315 11.8867 5.69004 12.1422 4.96776 12.1209C4.24548 12.0997 3.55861 11.8032 3.04766 11.2923C2.53671 10.7813 2.24028 10.0945 2.21902 9.37219C2.19776 8.64991 2.45327 7.9468 2.93328 7.40667L8.26661 2.07334C8.58503 1.77087 9.00743 1.60223 9.44661 1.60223C9.88579 1.60223 10.3082 1.77087 10.6266 2.07334C10.9368 2.38774 11.1108 2.81166 11.1108 3.25334C11.1108 3.69503 10.9368 4.11895 10.6266 4.43334L6.02661 9.02668C5.98108 9.0757 5.92635 9.11528 5.86553 9.14316C5.80471 9.17103 5.73899 9.18665 5.67213 9.18913C5.60527 9.1916 5.53858 9.18089 5.47587 9.15759C5.41315 9.13429 5.35564 9.09887 5.30661 9.05334C5.25758 9.00782 5.218 8.95308 5.19013 8.89226C5.16226 8.83144 5.14664 8.76572 5.14416 8.69886C5.14168 8.63201 5.1524 8.56532 5.1757 8.5026C5.199 8.43988 5.23442 8.38237 5.27994 8.33334L8.69994 4.92001C8.82548 4.79447 8.896 4.62421 8.896 4.44668C8.896 4.26914 8.82548 4.09888 8.69994 3.97334C8.57441 3.84781 8.40414 3.77728 8.22661 3.77728C8.04908 3.77728 7.87881 3.84781 7.75328 3.97334L4.33328 7.40001C4.16215 7.56981 4.02632 7.77181 3.93363 7.99436C3.84094 8.2169 3.79322 8.4556 3.79322 8.69668C3.79322 8.93775 3.84094 9.17645 3.93363 9.39899C4.02632 9.62154 4.16215 9.82354 4.33328 9.99334C4.68286 10.3263 5.14715 10.5121 5.62994 10.5121C6.11274 10.5121 6.57703 10.3263 6.92661 9.99334L11.5199 5.39334C12.0499 4.82464 12.3384 4.07246 12.3246 3.29525C12.3109 2.51805 11.9961 1.77651 11.4464 1.22686C10.8968 0.677203 10.1552 0.362355 9.37803 0.348642C8.60083 0.33493 7.84864 0.623422 7.27994 1.15334L1.94661 6.48667C1.22741 7.28323 0.843296 8.32658 0.874299 9.39933C0.905303 10.4721 1.34903 11.4915 2.11304 12.2452C2.87704 12.9989 3.90239 13.4287 4.97547 13.4451C6.04854 13.4616 7.08657 13.0633 7.87328 12.3333L11.9999 8.21334C12.0621 8.15118 12.1114 8.07739 12.145 7.99617C12.1787 7.91496 12.196 7.82791 12.196 7.74001C12.196 7.6521 12.1787 7.56506 12.145 7.48384C12.1114 7.40263 12.0621 7.32883 11.9999 7.26667C11.9378 7.20452 11.864 7.15521 11.7828 7.12157C11.7016 7.08793 11.6145 7.07061 11.5266 7.07061C11.4387 7.07061 11.3517 7.08793 11.2704 7.12157C11.1892 7.15521 11.1154 7.20452 11.0533 7.26667V7.28001Z" fill="black"/>
</svg>
