
<svg width="37" height="42" viewBox="0 0 37 42" fill="none" xmlns="http://www.w3.org/2000/svg">
<path d="M19.3818 23.738C18.9944 23.3764 18.5294 23.1697 18.0645 22.9373C17.9612 22.7823 17.8062 22.7306 17.6512 22.679C17.1346 22.4465 16.618 22.2399 16.1014 22.0074C14.9907 21.4908 13.8025 21.1292 12.6401 20.7417C11.8394 20.4059 11.0645 20.0959 10.2638 19.7602C8.81727 19.0369 7.44827 18.2103 6.33757 16.9963C5.71764 16.3247 5.22686 15.5756 4.73609 14.7233C4.73609 14.8524 4.71026 14.8782 4.73609 14.9299C5.56266 18.2362 7.39661 20.8709 10.1604 22.8598C10.8579 23.4022 11.6069 23.8672 12.4335 24.2288C13.6217 24.8745 14.939 25.3137 16.1014 26.0369C16.6438 26.4502 17.1863 26.8376 17.7287 27.2509C18.297 27.7934 18.8394 28.3616 19.3302 29.0074C19.4077 29.1365 19.511 29.2915 19.5885 29.4207C20.9058 31.4871 21.3449 33.7085 20.6992 36.1107C20.2859 37.583 19.4852 38.8229 18.452 39.9594C17.832 40.476 17.2379 40.9926 16.618 41.5092C16.3339 41.6125 16.1014 41.7675 15.8948 42C16.1531 41.8967 16.463 41.8709 16.6955 41.6642C17.4704 41.3801 18.1678 40.941 18.8136 40.3985C19.9759 39.5203 20.9317 38.4354 21.7066 37.2214C23.1272 34.9483 23.8246 32.5203 23.2822 29.8598C22.7914 27.3026 21.5258 25.2362 19.3818 23.738Z" fill="#353A48"/>
<path d="M18.891 35.6974C17.9353 34.6642 16.8763 33.9926 15.4556 33.9926C14.2674 33.9409 13.2859 34.4059 12.356 35.0516C11.2969 35.6199 10.2379 36.1881 8.99803 36.2656C8.61058 36.1881 8.48143 35.8782 8.35227 35.5682C8.19729 35.1808 8.17146 34.7416 8.1198 34.3284C8.09397 34.0701 7.99065 33.9151 7.70652 33.8892C7.57737 33.8892 7.42239 33.8376 7.31906 33.8118C6.98327 33.6826 6.93161 33.4243 7.21574 33.1918C7.29323 33.1143 7.39656 33.0885 7.55154 33.011C7.39656 32.9594 7.29323 32.9077 7.16408 32.8819C6.31168 32.6236 6.31168 32.5719 6.64748 31.7712C6.82829 31.3579 6.72497 31.0738 6.28585 30.8929C5.8984 30.738 5.51095 30.6346 5.12349 30.5055C4.58106 30.3247 4.5294 30.1955 4.86519 29.7306C5.43346 28.904 5.95006 28.0774 6.28585 27.1476C6.4925 26.6309 6.4925 26.1402 6.23419 25.5977C5.82091 24.7195 5.43346 23.8413 5.14932 22.8856C4.81353 21.7232 4.65855 20.535 4.58106 19.1918C4.50357 19.3726 4.45191 19.4501 4.45191 19.5535C4.27109 20.7416 4.27109 21.9298 4.50357 23.1439C4.68438 24.1254 5.14932 25.0036 5.56261 25.9077C5.74342 26.3468 5.74342 26.7084 5.56261 27.1217C5.20098 27.9483 4.65855 28.6974 4.16777 29.4723C3.72866 30.1439 3.90947 30.738 4.60689 31.0738C5.02017 31.2804 5.45929 31.4354 5.92423 31.4612C5.92423 31.5129 5.92423 31.5645 5.8984 31.5904C5.43346 32.4686 5.45929 32.5202 6.23419 33.1143C6.36335 33.2177 6.36334 33.2693 6.33751 33.4243C6.20836 33.8634 6.38918 34.2509 6.77663 34.3542C7.42239 34.535 7.52571 34.9741 7.6032 35.5166C7.62903 35.6715 7.68069 35.8007 7.73235 35.9557C7.96482 36.4464 8.24895 36.8597 8.81722 36.9372C8.99803 37.0405 9.20467 37.0147 9.38548 36.9889C10.6253 36.8081 11.7102 36.2915 12.7434 35.6457C13.4667 35.2066 14.2157 34.845 15.0423 34.6642C16.4113 34.535 17.6512 34.845 18.736 35.7232C18.736 35.7232 18.7877 35.6974 18.891 35.6974Z" fill="#353A48"/>
<path d="M7.91344 26.9152C8.27506 26.8377 8.66251 26.7602 8.97248 26.5019C9.41159 26.2694 9.56657 25.8819 9.64406 25.3395C9.28244 25.6495 8.97248 25.9078 8.63668 26.0369C8.32672 26.0369 8.04259 26.0369 7.73262 26.0111C7.65513 26.0111 7.52598 25.9594 7.50015 26.0628C7.34517 26.3985 7.06104 26.6569 6.67358 26.9152C7.16436 26.941 7.55181 26.9926 7.91344 26.9152Z" fill="#353A48"/>
<path fill-rule="evenodd" clip-rule="evenodd" d="M18.0646 9.35055C18.6845 8.03321 19.2011 6.71587 18.917 5.01107C18.8912 4.93358 18.8395 4.85609 18.762 4.85609H18.7362C18.6587 4.85609 18.607 4.90775 18.5554 4.95941C18.3487 5.34686 18.1937 5.73432 18.0388 6.09594C17.8321 6.56089 17.6255 6.97417 17.4188 7.38745C17.238 7.72325 17.0314 8.03321 16.8506 8.34317C16.6956 8.57565 16.5406 8.83395 16.3856 9.06642C16.2823 9.27306 16.179 9.32472 16.1532 9.32472C16.0757 9.32472 15.7915 9.04059 15.5332 7.77491C15.4041 7.12915 15.3266 6.53506 15.3266 6.38007C15.2491 4.54613 15.9207 2.76384 17.2122 1.44649C17.393 1.26568 19.1495 0.154982 19.7177 0C19.6661 1.03321 19.9502 1.98893 20.2085 2.91882C20.4926 3.9262 20.7768 4.88192 20.6476 5.8893C20.441 7.18081 19.6144 9.16974 18.0646 9.35055Z" fill="#5573A0"/>
<path fill-rule="evenodd" clip-rule="evenodd" d="M23.463 13.845C23.3597 13.845 23.2822 13.845 23.1789 13.8192C24.1346 13.0443 25.3228 10.5388 25.3744 10.1513C25.3744 10.0738 25.3486 9.99634 25.2711 9.9705C25.2453 9.94467 25.1936 9.94467 25.1678 9.94467C25.1161 9.94467 25.0903 9.94467 25.0645 9.9705C24.5479 10.3321 24.1346 10.7712 23.7213 11.2104C23.1272 11.8045 22.5848 12.3985 21.8357 12.7343C21.629 12.8377 21.4482 12.8893 21.3191 12.8893C21.1899 12.8893 21.1383 12.8377 21.1124 12.8118C20.88 12.5277 21.0349 11.6753 21.0866 11.2878C21.1641 10.8746 21.2416 10.5129 21.2933 10.3838C21.8099 9.04062 22.6106 7.87825 23.4888 7.15501C24.0571 6.69006 26.0202 5.57936 27.1309 5.57936C27.3892 5.57936 27.5958 5.65685 27.6992 5.786C27.8541 5.99264 27.8541 6.35427 27.6992 6.87087C27.5183 7.4908 27.415 8.16239 27.3375 8.80814C27.1826 9.94467 27.0534 11.107 26.356 11.9853C25.891 12.5535 24.7545 13.845 23.463 13.845Z" fill="#5573A0"/>
<path fill-rule="evenodd" clip-rule="evenodd" d="M12.0721 10.797C11.2197 10.797 9.6182 8.85973 9.33407 8.36895C8.2492 6.63833 8.32669 4.59773 8.58499 3.2029C8.66248 2.76379 8.73997 2.3505 9.04994 2.01471C9.41156 3.09958 10.1865 3.64202 10.9097 4.08113C11.0647 4.18445 11.2455 4.28777 11.4263 4.36526C12.1237 4.77855 12.8728 5.19183 13.3636 5.88925C14.061 6.89663 14.3968 8.36895 13.6736 9.58297C13.5702 9.04054 13.4153 8.57559 13.1569 8.16231L13.1053 8.05899C12.7953 7.56821 12.4337 6.99995 11.8396 6.79331H11.7621C11.7105 6.79331 11.6846 6.81914 11.633 6.84497C11.5813 6.89663 11.5555 6.94829 11.5555 7.02578C11.6071 7.36157 11.7879 7.80069 11.9946 8.2398C12.3562 9.0922 12.7695 10.0479 12.382 10.6162C12.3045 10.7195 12.2012 10.797 12.0721 10.797Z" fill="#5573A0"/>
<path fill-rule="evenodd" clip-rule="evenodd" d="M26.6403 21.7232C26.5886 21.7232 26.4595 21.7232 26.4337 21.3099C26.4078 21.0516 26.4078 20.7933 26.4337 20.5092C26.4337 19.9668 26.4595 19.3985 26.2787 18.8302C26.2529 18.7786 26.227 18.7269 26.1754 18.7011C26.1495 18.7011 26.1237 18.6752 26.0979 18.6752C26.072 18.6752 26.0462 18.6752 26.0204 18.6752C25.2455 18.9852 25.1938 19.6051 25.1422 20.1734C25.1422 20.2509 25.1422 20.3542 25.1163 20.4317C25.0905 20.6125 25.0388 20.7417 24.9613 20.7933C24.9355 20.7933 24.9097 20.8192 24.8839 20.8192C24.7805 20.8192 24.5739 20.7158 24.3931 20.4575C24.2123 20.2251 24.1348 19.7085 24.1606 19.0885C24.2123 18.0553 24.6514 16.8671 25.2196 16.1697C25.5554 15.7823 25.9946 15.4465 26.4078 15.1107C27.2602 14.4649 28.1385 13.7933 28.2676 12.631C29.12 13.3284 29.43 14.3616 29.5333 15.1365C29.7916 16.9704 29.1717 19.2952 28.0868 20.5609C27.6477 21.1291 26.9761 21.7232 26.6403 21.7232Z" fill="#39577E"/>
<path fill-rule="evenodd" clip-rule="evenodd" d="M8.89487 12.3469C7.99081 11.6495 6.80262 11.4687 5.69192 10.7196C7.11258 10.5388 8.24911 10.8488 9.35982 11.3912C9.15317 10.0738 8.04247 9.24728 6.85428 8.88565C5.40779 8.44654 4.4779 9.16979 3.18638 9.66056C2.12734 10.0738 1.0683 9.8672 0.00926307 9.55724C-0.145718 10.3321 1.68823 11.9336 2.20483 12.4502C3.16055 13.4318 4.19377 13.6901 5.48528 13.9484C6.67347 14.1809 7.75834 13.8451 8.81738 13.3801C9.64395 12.9927 9.61812 12.8893 8.89487 12.3469Z" fill="#5573A0"/>
<path fill-rule="evenodd" clip-rule="evenodd" d="M33.6144 22.9115C33.5628 22.2916 33.5628 21.6716 33.6403 20.9742C33.6919 20.4576 33.7694 19.941 33.8211 19.4244L33.8986 18.7528C33.8986 18.6753 33.8727 18.5978 33.7953 18.572C33.7694 18.5462 33.7178 18.5462 33.6919 18.5462C33.6661 18.5462 33.6144 18.5462 33.5886 18.572C32.762 19.1144 32.2713 19.9927 31.7288 21.9299C31.548 21.8008 31.4964 21.5683 31.4705 21.2583C31.4705 21.1809 31.4447 21.1034 31.4447 21.0259C31.2381 19.7344 31.6255 18.417 32.5296 17.4613C32.7879 17.1772 33.1237 16.9447 33.4853 16.7381C33.8727 16.5056 34.2602 16.2731 34.5443 15.9115C34.6993 15.7565 34.8285 15.4982 34.9576 15.2399C35.1384 14.8783 35.3451 14.465 35.6034 14.31C35.6809 14.2842 35.7325 14.2583 35.81 14.2583C35.8875 14.2583 35.965 14.2842 36.0425 14.3358C36.4558 14.5425 36.6366 15.6532 36.7141 16.1181L36.7399 16.2473C37.1015 18.5203 36.8174 20.1735 35.81 21.2583C35.7325 21.3617 35.2418 21.6975 34.8285 22.0333C34.2085 22.4465 33.8211 22.7048 33.6144 22.9115Z" fill="#39577E"/>
<path fill-rule="evenodd" clip-rule="evenodd" d="M19.9762 9.66049C18.7363 11.4428 17.6515 13.3542 16.0758 14.904C15.8692 15.0332 15.6625 15.1882 15.4559 15.3173C14.5002 15.5498 13.7769 15.059 13.002 14.5682C12.0205 13.9483 11.5297 12.9409 10.8064 12.0885C10.6773 11.9336 10.574 11.6753 10.3157 11.7527C10.0057 11.8561 10.1349 12.1402 10.1865 12.3727C10.5223 13.7675 11.1164 15.0332 11.8913 16.2214C14.2419 19.8118 17.6256 21.9299 21.7068 23.0147C22.9983 23.3505 24.2898 23.7122 25.788 23.6863C25.1164 22.8856 24.2123 22.6531 23.4633 22.2915C22.0943 21.6457 20.467 20.5867 19.692 19.2435C18.8913 17.8229 18.9171 16.1181 19.1754 14.5424C19.2529 14 20.3636 9.81547 20.2345 9.76381C20.157 9.73798 20.0537 9.68632 19.9762 9.66049Z" fill="#5573A0"/>
<path fill-rule="evenodd" clip-rule="evenodd" d="M13.1828 11.1586C13.0278 11.2361 12.9762 11.3394 12.9762 11.5203C12.4079 12.8118 12.8728 13.9741 14.1127 14.4649C15.3525 14.9557 16.3341 14.5166 16.7215 13.3284C17.1607 11.9852 16.5666 10.8745 15.1717 10.5129C14.6035 10.3321 14.0869 10.4354 13.6219 10.8228C13.4411 10.8487 13.2861 10.9778 13.1828 11.1586Z" fill="#5573A0"/>
<path fill-rule="evenodd" clip-rule="evenodd" d="M22.6626 23.8155C24.4707 25.0295 26.2013 26.3985 28.2161 27.2509C28.4486 27.3026 28.7069 27.3542 28.9394 27.4059C29.9209 27.2509 30.4117 26.5535 30.9541 25.8044C31.6515 24.8487 31.729 23.738 32.0906 22.6789C32.1681 22.4981 32.1423 22.214 32.4006 22.1882C32.7364 22.1882 32.7106 22.4981 32.7364 22.7048C32.9172 24.1254 32.8397 25.5203 32.5556 26.9151C31.7032 31.1254 29.3268 34.3284 25.943 36.8598C24.8582 37.6605 23.7991 38.4612 22.4043 38.9778C22.7401 37.9705 23.4892 37.428 24.0574 36.8339C25.3489 35.4391 26.5113 33.8893 26.4855 31.9262C26.4596 30.1439 25.5556 28.5682 24.574 27.1476C24.3416 26.786 22.2493 24.1771 22.4301 24.0221C22.5076 23.9446 22.5851 23.8671 22.6626 23.8155Z" fill="#39577E"/>
<path fill-rule="evenodd" clip-rule="evenodd" d="M29.5076 22.7306C29.6626 22.7306 29.7917 22.8339 29.8175 22.9889C30.8249 23.9704 30.8249 25.2361 29.8434 26.1402C28.8618 27.0442 27.8028 27.0184 26.9762 26.0368C26.0722 24.952 26.2271 23.7121 27.3895 22.8339C27.8544 22.4464 28.371 22.3689 28.9393 22.5498C29.1718 22.5239 29.3526 22.5756 29.5076 22.7306Z" fill="#39577E"/>
</svg>
